<?xml version="1.0" encoding="utf-8"?>
<!-- Generator: Adobe Illustrator 25.0.0, SVG Export Plug-In . SVG Version: 6.00 Build 0)  -->
<svg version="1.1" id="Layer_1" xmlns="http://www.w3.org/2000/svg" xmlns:xlink="http://www.w3.org/1999/xlink" x="0px" y="0px"
	 viewBox="0 0 359 34" style="enable-background:new 0 0 359 34;" xml:space="preserve">
<style type="text/css">
	.st0{fill:#231F20;}
	.st1{fill:#B37A2B;}
</style>
<path class="st0" d="M19,0.9c1,0,2.1,0,3.1,0.1c1.1,0.1,2.1,0.3,3.1,0.5c1,0.2,1.8,0.5,2.5,0.8c0.3,0.1,0.5,0.2,0.6,0.4
	c0.1,0.2,0.1,0.4,0.2,0.8l0.7,7c0,0.1-0.1,0.2-0.3,0.2c-0.2,0-0.3,0-0.4-0.2c-0.9-2.7-2.3-4.8-4-6.3C22.8,2.7,20.7,2,18.2,2
	c-2.3,0-4.3,0.6-6.1,1.8C10.3,5,8.9,6.8,7.9,9c-1,2.2-1.5,4.9-1.5,8c0,2.3,0.3,4.5,0.9,6.4c0.6,1.9,1.5,3.5,2.6,4.9
	c1.1,1.3,2.4,2.4,3.9,3.1c1.5,0.7,3.2,1.1,5,1.1c2.4,0,4.4-0.6,5.9-1.9c1.6-1.3,3-3.3,4.4-6.2c0.1-0.1,0.2-0.1,0.3-0.1
	c0.2,0,0.2,0.1,0.2,0.2l-0.8,6.2c0,0.4-0.1,0.7-0.2,0.8c-0.1,0.1-0.3,0.2-0.6,0.4c-1.6,0.6-3.2,1-4.8,1.3c-1.6,0.3-3.1,0.4-4.6,0.4
	c-3.6,0-6.8-0.7-9.7-2c-2.8-1.4-5-3.3-6.6-5.7C0.8,23.3,0,20.5,0,17.4c0-2.4,0.5-4.6,1.4-6.7c1-2,2.3-3.8,4-5.2
	C7.2,4,9.2,2.9,11.5,2.1C13.8,1.3,16.3,0.9,19,0.9L19,0.9z"/>
<path class="st0" d="M61.1,32.9H38.9c-0.1,0-0.2-0.1-0.2-0.3c0-0.2,0-0.3,0.2-0.3c1,0,1.8-0.1,2.3-0.3c0.5-0.2,0.8-0.5,1-1
	c0.2-0.5,0.3-1.2,0.3-2.2V5.5c0-1-0.1-1.7-0.3-2.2c-0.2-0.5-0.5-0.8-1-1c-0.5-0.2-1.3-0.3-2.3-0.3c-0.1,0-0.2-0.1-0.2-0.3
	c0-0.2,0-0.3,0.2-0.3h21.3c0.3,0,0.5,0.2,0.5,0.5l0.1,6.7c0,0.1-0.1,0.1-0.3,0.1c-0.2,0-0.3,0-0.4-0.1c-0.5-2-1.4-3.4-2.7-4.3
	c-1.3-0.9-3-1.4-5-1.4H51c-0.7,0-1.2,0.1-1.7,0.3c-0.4,0.2-0.8,0.5-1,0.9c-0.2,0.4-0.3,0.9-0.3,1.5v23c0,0.6,0.1,1.2,0.3,1.6
	c0.2,0.4,0.4,0.8,0.8,1c0.3,0.2,0.8,0.3,1.3,0.3H52c2.6,0,4.7-0.5,6.3-1.6c1.6-1.1,2.7-2.7,3.5-5c0-0.1,0.1-0.1,0.3-0.1
	c0.2,0.1,0.3,0.1,0.3,0.2c-0.1,1-0.3,2.1-0.4,3.4c-0.1,1.3-0.2,2.6-0.2,3.7C61.9,32.6,61.6,32.9,61.1,32.9L61.1,32.9z M58.3,21.7
	c0-1.4-0.5-2.5-1.6-3.2c-1-0.8-2.6-1.2-4.6-1.2h-6.8v-1.4h6.8c2,0,3.5-0.3,4.5-1c1-0.7,1.5-1.6,1.5-2.8c0-0.1,0.1-0.1,0.3-0.1
	c0.2,0,0.3,0.1,0.3,0.1c0,1.1,0,2,0,2.6c0,0.6,0,1.3,0,1.9c0,0.8,0,1.7,0.1,2.5c0,0.8,0.1,1.7,0.1,2.7c0,0.1-0.1,0.1-0.3,0.1
	S58.3,21.7,58.3,21.7L58.3,21.7z"/>
<path class="st0" d="M85.5,1.3c3.1,0,5.5,0.6,7.1,1.7c1.7,1.1,2.5,2.7,2.5,4.7c0,2-0.6,3.7-1.7,5.3c-1.1,1.5-2.5,2.7-4.3,3.5
	c-1.7,0.8-3.5,1.3-5.5,1.3h-1.4c-0.5,0-0.9,0-1.3,0v11.1c0,1,0.1,1.7,0.3,2.2c0.2,0.5,0.5,0.8,1,1c0.5,0.2,1.3,0.3,2.3,0.3
	c0.1,0,0.1,0.1,0.1,0.3c0,0.2,0,0.3-0.1,0.3c-0.9,0-1.8,0-2.9-0.1c-1.1,0-2.2,0-3.5,0c-1.2,0-2.4,0-3.4,0c-1.1,0-2.1,0.1-2.9,0.1
	c-0.1,0-0.2-0.1-0.2-0.3c0-0.2,0.1-0.3,0.2-0.3c1,0,1.8-0.1,2.3-0.3c0.5-0.2,0.8-0.5,1-1c0.2-0.5,0.3-1.2,0.3-2.2V5.5
	c0-1-0.1-1.7-0.3-2.2c-0.2-0.5-0.5-0.8-1-1c-0.5-0.2-1.3-0.3-2.3-0.3c-0.1,0-0.1-0.1-0.1-0.3c0-0.2,0-0.3,0.1-0.3
	c0.9,0,1.8,0,2.9,0.1c1.1,0,2.2,0.1,3.4,0.1c1.1,0,2.3-0.1,3.6-0.2C83.1,1.4,84.3,1.3,85.5,1.3L85.5,1.3z M89.4,9.6
	c0-2-0.2-3.5-0.6-4.5c-0.4-1-1-1.8-1.7-2.1c-0.7-0.4-1.5-0.6-2.4-0.6c-1.3,0-2.3,0.3-2.9,0.8C81.3,3.6,81,4.5,81,5.6v10.7
	c0.5,0.1,1,0.1,1.5,0.2c0.5,0,1,0.1,1.4,0.1c2,0,3.4-0.5,4.2-1.6C89,13.8,89.4,12,89.4,9.6L89.4,9.6z M96.3,32.9
	c-0.5,0-1.3-0.6-2.4-1.9c-1.1-1.3-2.5-3.1-4.1-5.5c-1.6-2.4-3.4-5.2-5.3-8.5l4.6-1.4c2.7,4.1,5,7.3,6.9,9.8c1.9,2.4,3.6,4.2,5.1,5.3
	c1.5,1.1,2.9,1.6,4.2,1.6c0.1,0,0.1,0.1,0.1,0.3c0,0.2,0,0.3-0.1,0.3L96.3,32.9L96.3,32.9z"/>
<path class="st0" d="M116.9,2.6c-2,0-3.8,0.7-5.2,2c-1.4,1.4-2.6,3.3-3.4,5.8c0,0.1-0.1,0.1-0.3,0.1c-0.2,0-0.3-0.1-0.3-0.2
	c0.1-0.5,0.1-1.1,0.2-2c0.1-0.9,0.1-1.8,0.2-2.8c0.1-1,0.2-2,0.2-2.9c0.1-0.9,0.1-1.7,0.1-2.3c0-0.2,0.1-0.3,0.3-0.3
	c0.2,0,0.3,0.1,0.3,0.3c0,0.3,0.2,0.6,0.5,0.7c0.4,0.2,0.8,0.3,1.2,0.3c0.5,0.1,0.8,0.1,1.1,0.1c2.9,0.1,6.3,0.2,10.1,0.2
	c2.3,0,4.2,0,5.6-0.1c1.4-0.1,2.8-0.1,4.1-0.1c1.2,0,2.1-0.1,2.7-0.2c0.6-0.2,1-0.5,1.2-1c0-0.1,0.1-0.2,0.3-0.2
	c0.2,0,0.3,0.1,0.3,0.2c-0.1,0.5-0.1,1.3-0.2,2.2c-0.1,1-0.1,2-0.1,3c-0.1,1.1-0.1,2-0.1,2.9c0,0.9-0.1,1.6-0.1,2
	c0,0.1-0.1,0.2-0.3,0.2c-0.2,0-0.3-0.1-0.3-0.2c-0.5-2.6-1.5-4.6-2.8-5.9c-1.4-1.3-3.1-1.9-5.1-1.9c-0.7,0-1.2,0.1-1.5,0.3
	c-0.4,0.2-0.6,0.5-0.7,0.9c-0.1,0.4-0.2,1-0.2,1.8v23.2c0,1,0.1,1.7,0.3,2.2c0.2,0.5,0.6,0.8,1.2,1c0.6,0.2,1.5,0.3,2.7,0.3
	c0.1,0,0.2,0.1,0.2,0.3c0,0.2-0.1,0.3-0.2,0.3c-0.9,0-2,0-3.2-0.1c-1.2,0-2.5,0-3.9,0c-1.3,0-2.6,0-3.8,0c-1.2,0-2.2,0.1-3.2,0.1
	c-0.1,0-0.1-0.1-0.1-0.3c0-0.2,0-0.3,0.1-0.3c1.2,0,2.1-0.1,2.7-0.3c0.6-0.2,1-0.5,1.2-1c0.2-0.5,0.3-1.2,0.3-2.2V5.5
	c0-0.7-0.1-1.3-0.2-1.7c-0.1-0.4-0.3-0.7-0.7-0.9C118,2.7,117.5,2.6,116.9,2.6L116.9,2.6z"/>
<path class="st0" d="M154.5,28.8c0,1,0.1,1.7,0.3,2.2c0.2,0.5,0.5,0.8,1,1c0.5,0.2,1.3,0.3,2.3,0.3c0.1,0,0.2,0.1,0.2,0.3
	c0,0.2-0.1,0.3-0.2,0.3c-0.9,0-1.8,0-2.9-0.1c-1.1,0-2.2,0-3.5,0c-1.2,0-2.4,0-3.5,0c-1.1,0-2.1,0.1-3,0.1c-0.1,0-0.1-0.1-0.1-0.3
	c0-0.2,0-0.3,0.1-0.3c1,0,1.8-0.1,2.3-0.3c0.5-0.2,0.9-0.5,1.1-1c0.2-0.5,0.3-1.2,0.3-2.2V5.5c0-1-0.1-1.7-0.3-2.2
	c-0.2-0.5-0.5-0.8-1.1-1c-0.5-0.2-1.3-0.3-2.3-0.3c-0.1,0-0.1-0.1-0.1-0.3s0-0.3,0.1-0.3c0.9,0,1.9,0,3,0.1c1.1,0,2.3,0.1,3.5,0.1
	c1.3,0,2.5,0,3.5-0.1c1.1-0.1,2.1-0.1,2.9-0.1c0.1,0,0.2,0.1,0.2,0.3c0,0.2-0.1,0.3-0.2,0.3c-1,0-1.8,0.1-2.3,0.3
	c-0.5,0.2-0.9,0.6-1,1.1c-0.2,0.5-0.3,1.2-0.3,2.2L154.5,28.8L154.5,28.8z"/>
<path class="st0" d="M167,32.9c-0.1,0-0.2-0.1-0.2-0.3c0-0.2,0.1-0.3,0.2-0.3c1.1,0,2-0.1,2.5-0.3c0.6-0.2,0.9-0.5,1.1-1
	c0.2-0.5,0.3-1.2,0.3-2.2V5.5c0-1-0.1-1.7-0.3-2.2c-0.2-0.5-0.5-0.8-1-1c-0.5-0.2-1.3-0.3-2.3-0.3c-0.1,0-0.1-0.1-0.1-0.3
	c0-0.2,0-0.3,0.1-0.3h21.3c0.3,0,0.5,0.2,0.5,0.5l0.1,6.7c0,0.1-0.1,0.1-0.3,0.1c-0.2,0-0.3,0-0.4-0.1c-0.5-2-1.4-3.4-2.7-4.3
	c-1.3-0.9-3-1.4-5-1.4h-1.5c-1,0-1.7,0.2-2.2,0.7c-0.5,0.4-0.7,1.1-0.7,2v23c0,1,0.1,1.8,0.4,2.3c0.3,0.5,0.8,0.9,1.6,1.1
	c0.8,0.2,1.9,0.3,3.4,0.3c0.1,0,0.1,0.1,0.1,0.3c0,0.2,0,0.3-0.1,0.3c-1.1,0-2.4,0-3.7-0.1c-1.3,0-2.9,0-4.7,0c-1.2,0-2.4,0-3.5,0
	C168.9,32.9,167.9,32.9,167,32.9L167,32.9z M186.2,22.2c0-1.3-0.5-2.4-1.6-3.2c-1-0.8-2.6-1.2-4.5-1.2h-6.2v-1.4h6.3
	c2,0,3.5-0.4,4.5-1.1c1-0.7,1.5-1.6,1.5-2.8c0-0.1,0.1-0.1,0.3-0.1s0.3,0,0.3,0.1c0,1.1,0,2,0,2.6c0,0.6,0,1.3,0,1.9
	c0,0.8,0,1.7,0.1,2.5c0,0.8,0.1,1.7,0.1,2.6c0,0.1-0.1,0.1-0.3,0.1S186.2,22.3,186.2,22.2L186.2,22.2z"/>
<path class="st0" d="M208,28.8c0,1,0.1,1.7,0.3,2.2c0.2,0.5,0.5,0.8,1,1c0.5,0.2,1.3,0.3,2.3,0.3c0.1,0,0.2,0.1,0.2,0.3
	c0,0.2-0.1,0.3-0.2,0.3c-0.9,0-1.8,0-2.9-0.1c-1.1,0-2.2,0-3.5,0c-1.2,0-2.4,0-3.5,0c-1.1,0-2.1,0.1-3,0.1c-0.1,0-0.1-0.1-0.1-0.3
	c0-0.2,0-0.3,0.1-0.3c1,0,1.8-0.1,2.3-0.3c0.5-0.2,0.9-0.5,1.1-1c0.2-0.5,0.3-1.2,0.3-2.2V5.5c0-1-0.1-1.7-0.3-2.2
	c-0.2-0.5-0.5-0.8-1.1-1c-0.5-0.2-1.3-0.3-2.3-0.3c-0.1,0-0.1-0.1-0.1-0.3s0-0.3,0.1-0.3c0.9,0,1.9,0,3,0.1c1.1,0,2.3,0.1,3.5,0.1
	c1.3,0,2.5,0,3.5-0.1c1.1-0.1,2.1-0.1,2.9-0.1c0.1,0,0.2,0.1,0.2,0.3c0,0.2-0.1,0.3-0.2,0.3c-1,0-1.8,0.1-2.3,0.3
	c-0.5,0.2-0.9,0.6-1,1.1c-0.2,0.5-0.3,1.2-0.3,2.2L208,28.8L208,28.8z"/>
<path class="st0" d="M240.3,0.9c1,0,2.1,0,3.1,0.1c1.1,0.1,2.1,0.3,3.1,0.5c1,0.2,1.8,0.5,2.5,0.8c0.3,0.1,0.5,0.2,0.6,0.4
	c0.1,0.2,0.1,0.4,0.2,0.8l0.7,7c0,0.1-0.1,0.2-0.3,0.2c-0.2,0-0.3,0-0.4-0.2c-0.9-2.7-2.3-4.8-4-6.3C244.1,2.7,242,2,239.5,2
	c-2.3,0-4.3,0.6-6.1,1.8c-1.8,1.2-3.2,3-4.2,5.2c-1,2.2-1.5,4.9-1.5,8c0,2.3,0.3,4.5,0.9,6.4c0.6,1.9,1.5,3.5,2.6,4.9
	c1.1,1.3,2.4,2.4,3.9,3.1c1.5,0.7,3.2,1.1,5,1.1c2.4,0,4.4-0.6,5.9-1.9c1.6-1.3,3-3.3,4.4-6.2c0.1-0.1,0.2-0.1,0.3-0.1
	c0.2,0,0.2,0.1,0.2,0.2l-0.8,6.2c0,0.4-0.1,0.7-0.2,0.8c-0.1,0.1-0.3,0.2-0.6,0.4c-1.6,0.6-3.2,1-4.8,1.3c-1.6,0.3-3.1,0.4-4.6,0.4
	c-3.6,0-6.8-0.7-9.7-2c-2.8-1.4-5-3.3-6.6-5.7c-1.6-2.4-2.4-5.2-2.4-8.4c0-2.4,0.5-4.6,1.4-6.7c1-2,2.3-3.8,4-5.2
	c1.7-1.5,3.7-2.6,6.1-3.4C235.2,1.3,237.7,0.9,240.3,0.9L240.3,0.9z"/>
<path class="st0" d="M294.2,32.3c0.2,0,0.3,0.1,0.3,0.3c0,0.2-0.1,0.3-0.3,0.3c-1,0-2.1,0-3.1-0.1c-1.1-0.1-2.1-0.1-3.1-0.1
	c-1.1,0-2.1,0-3,0.1c-0.8,0.1-1.8,0.1-2.8,0.1c-0.1,0-0.2-0.1-0.2-0.3c0-0.2,0.1-0.3,0.2-0.3c1.4,0,2.2-0.3,2.4-0.8
	c0.2-0.6-0.1-1.7-0.9-3.3L273.4,8l2.5-4.3l-10,22.1c-0.9,2-0.9,3.6,0,4.8c0.9,1.2,2.2,1.8,4.1,1.8c0.2,0,0.3,0.1,0.3,0.3
	c0,0.2-0.1,0.3-0.3,0.3c-1,0-1.9,0-2.8-0.1c-0.8-0.1-1.9-0.1-3.2-0.1c-1.3,0-2.4,0-3.1,0.1c-0.8,0.1-1.8,0.1-2.9,0.1
	c-0.1,0-0.2-0.1-0.2-0.3c0-0.2,0.1-0.3,0.2-0.3c0.9,0,1.7-0.2,2.3-0.6c0.7-0.4,1.3-1.1,2-2.1c0.7-1,1.4-2.5,2.2-4.4l10.9-24
	c0-0.1,0.2-0.2,0.5-0.2c0.3,0,0.4,0,0.5,0.2L288.9,26c0.8,1.6,1.5,2.8,2.1,3.7c0.6,0.9,1.1,1.6,1.7,2
	C293.2,32.1,293.7,32.3,294.2,32.3L294.2,32.3z M266.8,21.4l0.8-1.4H282l0.4,1.4H266.8z"/>
<path class="st0" d="M306.9,2.6c-2,0-3.8,0.7-5.2,2c-1.4,1.4-2.6,3.3-3.4,5.8c0,0.1-0.1,0.1-0.3,0.1c-0.2,0-0.3-0.1-0.3-0.2
	c0.1-0.5,0.1-1.1,0.2-2c0.1-0.9,0.1-1.8,0.2-2.8c0.1-1,0.1-2,0.2-2.9c0.1-0.9,0.1-1.7,0.1-2.3c0-0.2,0.1-0.3,0.3-0.3
	c0.2,0,0.3,0.1,0.3,0.3c0,0.3,0.2,0.6,0.5,0.7c0.4,0.2,0.8,0.3,1.2,0.3c0.5,0.1,0.8,0.1,1.1,0.1c2.9,0.1,6.3,0.2,10.1,0.2
	c2.3,0,4.2,0,5.6-0.1c1.4-0.1,2.8-0.1,4.1-0.1c1.2,0,2.1-0.1,2.7-0.2c0.6-0.2,1-0.5,1.2-1c0-0.1,0.1-0.2,0.3-0.2
	c0.2,0,0.3,0.1,0.3,0.2c-0.1,0.5-0.1,1.3-0.2,2.2c0,1-0.1,2-0.1,3c-0.1,1.1-0.1,2-0.1,2.9c0,0.9-0.1,1.6-0.1,2
	c0,0.1-0.1,0.2-0.3,0.2c-0.2,0-0.3-0.1-0.3-0.2c-0.5-2.6-1.5-4.6-2.8-5.9c-1.4-1.3-3.1-1.9-5.1-1.9c-0.7,0-1.2,0.1-1.5,0.3
	c-0.4,0.2-0.6,0.5-0.7,0.9c-0.1,0.4-0.2,1-0.2,1.8v23.2c0,1,0.1,1.7,0.3,2.2c0.2,0.5,0.6,0.8,1.2,1c0.6,0.2,1.5,0.3,2.7,0.3
	c0.1,0,0.1,0.1,0.1,0.3c0,0.2-0.1,0.3-0.1,0.3c-0.9,0-2,0-3.2-0.1c-1.2,0-2.5,0-3.9,0c-1.3,0-2.6,0-3.8,0c-1.2,0-2.2,0.1-3.2,0.1
	c-0.1,0-0.1-0.1-0.1-0.3c0-0.2,0-0.3,0.1-0.3c1.2,0,2.1-0.1,2.7-0.3c0.6-0.2,1-0.5,1.2-1c0.2-0.5,0.3-1.2,0.3-2.2V5.5
	c0-0.7-0.1-1.3-0.2-1.7c-0.1-0.4-0.3-0.7-0.7-0.9C308,2.7,307.5,2.6,306.9,2.6L306.9,2.6z"/>
<path class="st0" d="M357.4,32.9h-22.2c-0.1,0-0.1-0.1-0.1-0.3c0-0.2,0-0.3,0.1-0.3c1,0,1.8-0.1,2.3-0.3c0.5-0.2,0.8-0.5,1-1
	c0.2-0.5,0.3-1.2,0.3-2.2V5.5c0-1-0.1-1.7-0.3-2.2c-0.2-0.5-0.5-0.8-1-1c-0.5-0.2-1.3-0.3-2.3-0.3C335,2.1,335,2,335,1.8
	c0-0.2,0-0.3,0.1-0.3h21.3c0.3,0,0.5,0.2,0.5,0.5l0.1,6.7c0,0.1-0.1,0.1-0.3,0.1c-0.2,0-0.3,0-0.4-0.1c-0.5-2-1.4-3.4-2.7-4.3
	c-1.3-0.9-3-1.4-5-1.4h-1.5c-0.7,0-1.2,0.1-1.7,0.3c-0.4,0.2-0.8,0.5-1,0.9c-0.2,0.4-0.3,0.9-0.3,1.5v23c0,0.6,0.1,1.2,0.3,1.6
	c0.2,0.4,0.4,0.8,0.8,1c0.3,0.2,0.8,0.3,1.3,0.3h1.7c2.6,0,4.7-0.5,6.3-1.6c1.6-1.1,2.7-2.7,3.5-5c0-0.1,0.1-0.1,0.3-0.1
	c0.2,0.1,0.3,0.1,0.3,0.2c-0.1,1-0.3,2.1-0.4,3.4c-0.1,1.3-0.2,2.6-0.2,3.7C358.1,32.6,357.9,32.9,357.4,32.9L357.4,32.9z
	 M354.6,21.7c0-1.4-0.5-2.5-1.6-3.2c-1-0.8-2.6-1.2-4.6-1.2h-6.8v-1.4h6.8c2,0,3.5-0.3,4.5-1c1-0.7,1.5-1.6,1.5-2.8
	c0-0.1,0.1-0.1,0.3-0.1c0.2,0,0.3,0.1,0.3,0.1c0,1.1,0,2,0,2.6c0,0.6,0,1.3,0,1.9c0,0.8,0,1.7,0.1,2.5c0,0.8,0.1,1.7,0.1,2.7
	c0,0.1-0.1,0.1-0.3,0.1C354.7,21.8,354.6,21.7,354.6,21.7L354.6,21.7z"/>
<path class="st1" d="M19,0.9c1,0,2.1,0.1,3.1,0.2c1.1,0.1,2.1,0.3,3.1,0.5c1,0.2,1.8,0.5,2.5,0.8c0.3,0.1,0.5,0.2,0.6,0.4
	c0.1,0.2,0.1,0.4,0.2,0.8l0.7,7c0,0.1-0.1,0.2-0.3,0.2c-0.2,0-0.3,0-0.4-0.2c-0.9-2.7-2.3-4.8-4-6.3C22.8,2.7,20.7,2,18.2,2
	c-2.3,0-4.3,0.6-6.1,1.8C10.3,5,8.9,6.8,7.9,9c-1,2.2-1.5,4.9-1.5,8c0,2.3,0.3,4.5,0.9,6.4c0.6,1.9,1.5,3.5,2.6,4.9
	c1.1,1.3,2.4,2.4,3.9,3.1c1.5,0.7,3.2,1.1,5,1.1c2.4,0,4.4-0.6,5.9-1.9c1.6-1.3,3-3.3,4.4-6.2c0.1-0.1,0.2-0.1,0.3-0.1
	c0.2,0,0.2,0.1,0.2,0.2l-0.8,6.2c0,0.4-0.1,0.7-0.2,0.8c-0.1,0.1-0.3,0.2-0.6,0.4c-1.6,0.6-3.2,1-4.8,1.3c-1.6,0.3-3.1,0.4-4.6,0.4
	c-3.6,0-6.8-0.7-9.7-2c-2.8-1.4-5-3.3-6.6-5.7C0.8,23.3,0,20.5,0,17.4c0-2.4,0.5-4.6,1.4-6.7c1-2,2.3-3.8,4-5.2
	C7.2,4,9.2,2.9,11.5,2.1C13.8,1.3,16.3,0.9,19,0.9L19,0.9z M240.3,0.9c1,0,2.1,0.1,3.1,0.2c1.1,0.1,2.1,0.3,3.1,0.5
	c1,0.2,1.8,0.5,2.5,0.8c0.3,0.1,0.5,0.2,0.6,0.4c0.1,0.2,0.1,0.4,0.2,0.8l0.7,7c0,0.1-0.1,0.2-0.3,0.2c-0.2,0-0.3,0-0.4-0.2
	c-0.9-2.7-2.3-4.8-4-6.3C244.1,2.7,242,2,239.5,2c-2.3,0-4.3,0.6-6.1,1.8c-1.8,1.2-3.2,3-4.2,5.2c-1,2.2-1.5,4.9-1.5,8
	c0,2.3,0.3,4.5,0.9,6.4c0.6,1.9,1.5,3.5,2.6,4.9c1.1,1.3,2.4,2.4,3.9,3.1c1.5,0.7,3.2,1.1,5,1.1c2.4,0,4.4-0.6,5.9-1.9
	c1.6-1.3,3-3.3,4.4-6.2c0.1-0.1,0.2-0.1,0.3-0.1c0.2,0,0.2,0.1,0.2,0.2l-0.8,6.2c0,0.4-0.1,0.7-0.2,0.8c-0.1,0.1-0.3,0.2-0.6,0.4
	c-1.6,0.6-3.2,1-4.8,1.3c-1.6,0.3-3.1,0.4-4.6,0.4c-3.6,0-6.8-0.7-9.7-2c-2.8-1.4-5-3.3-6.6-5.7c-1.6-2.4-2.4-5.2-2.4-8.4
	c0-2.4,0.5-4.6,1.4-6.7c1-2,2.3-3.8,4-5.2c1.7-1.5,3.7-2.6,6.1-3.4C235.2,1.3,237.7,0.9,240.3,0.9L240.3,0.9z M85.5,1.3
	c3.1,0,5.5,0.6,7.1,1.7c1.7,1.1,2.5,2.7,2.5,4.7c0,2-0.6,3.7-1.7,5.3c-1,1.4-2.3,2.5-3.9,3.3c2.5,3.7,4.6,6.7,6.4,9.1
	c1.9,2.4,3.6,4.2,5.1,5.3c1.5,1.1,2.9,1.6,4.2,1.6c0.1,0,0.1,0.1,0.1,0.3s0,0.3-0.1,0.3h-9l0,0c-0.5,0-1.3-0.6-2.4-1.9
	c-1.1-1.3-2.5-3.1-4.1-5.5c-1.5-2.2-3.1-4.8-4.9-7.8c-0.4,0-0.8,0.1-1.2,0.1h-1.4c-0.5,0-0.9,0-1.3,0v11.1c0,1,0.1,1.7,0.3,2.2
	c0.2,0.5,0.5,0.8,1,1c0.5,0.2,1.3,0.3,2.3,0.3c0.1,0,0.1,0.1,0.1,0.3c0,0.2,0,0.3-0.1,0.3c-0.9,0-1.8,0-2.9-0.1c-1.1,0-2.2,0-3.5,0
	c-1.2,0-2.4,0-3.4,0c-1.1,0-2.1,0.1-2.9,0.1c-0.1,0-0.2-0.1-0.2-0.3c0-0.2,0.1-0.3,0.2-0.3c1,0,1.8-0.1,2.3-0.3c0.5-0.2,0.8-0.5,1-1
	c0.2-0.5,0.3-1.2,0.3-2.2V5.5c0-1-0.1-1.7-0.3-2.2c-0.2-0.5-0.5-0.8-1-1c-0.5-0.2-1.3-0.3-2.3-0.3c-0.1,0-0.1-0.1-0.1-0.3
	c0-0.2,0-0.3,0.1-0.3c0.9,0,1.8,0,2.9,0.1c1.1,0,2.2,0.1,3.4,0.1c1.1,0,2.3-0.1,3.6-0.2C83.1,1.4,84.3,1.3,85.5,1.3L85.5,1.3z
	 M135.9,0c0.2,0,0.3,0.1,0.3,0.2c-0.1,0.5-0.1,1.3-0.2,2.2c-0.1,1-0.1,2-0.1,3c-0.1,1.1-0.1,2-0.1,2.9c0,0.9-0.1,1.6-0.1,2
	c0,0.1-0.1,0.2-0.3,0.2c-0.2,0-0.3-0.1-0.3-0.2c-0.5-2.6-1.5-4.6-2.8-5.9c-1.4-1.3-3.1-1.9-5.1-1.9c-0.7,0-1.2,0.1-1.5,0.3
	c-0.4,0.2-0.6,0.5-0.7,0.9c-0.1,0.4-0.2,1-0.2,1.8v23.2c0,1,0.1,1.7,0.3,2.2c0.2,0.5,0.6,0.8,1.2,1c0.6,0.2,1.5,0.3,2.7,0.3
	c0.1,0,0.1,0.1,0.1,0.3s-0.1,0.3-0.1,0.3c-0.9,0-2,0-3.2-0.1c-1.2,0-2.5,0-3.9,0c-1.3,0-2.6,0-3.8,0c-1.2,0-2.2,0.1-3.2,0.1
	c-0.1,0-0.2-0.1-0.2-0.3c0-0.2,0.1-0.3,0.2-0.3c1.2,0,2.1-0.1,2.7-0.3c0.6-0.2,1-0.5,1.2-1c0.2-0.5,0.3-1.2,0.3-2.2V5.5
	c0-0.7-0.1-1.3-0.2-1.7c-0.1-0.4-0.3-0.7-0.7-0.9c-0.3-0.2-0.8-0.3-1.5-0.3l0,0c-2,0-3.8,0.7-5.2,2c-1.4,1.4-2.6,3.3-3.4,5.8
	c0,0.1-0.1,0.1-0.3,0.1c-0.2,0-0.3-0.1-0.3-0.2c0.1-0.5,0.1-1.1,0.2-2c0.1-0.9,0.1-1.8,0.2-2.8c0.1-1,0.2-2,0.2-2.9
	c0.1-0.9,0.1-1.7,0.1-2.3c0-0.2,0.1-0.3,0.3-0.3c0.2,0,0.3,0.1,0.3,0.3c0,0.3,0.2,0.6,0.5,0.7c0.4,0.2,0.8,0.3,1.2,0.3
	c0.5,0.1,0.8,0.1,1.1,0.1c2.9,0.1,6.3,0.2,10.1,0.2c2.3,0,4.2,0,5.6-0.1c1.4-0.1,2.8-0.1,4.1-0.1c1.2,0,2.1-0.1,2.7-0.2
	c0.6-0.2,1-0.5,1.2-1C135.6,0.1,135.7,0,135.9,0z M158.1,1.5c0.1,0,0.2,0.1,0.2,0.3c0,0.2-0.1,0.3-0.2,0.3c-1,0-1.8,0.1-2.3,0.3
	c-0.5,0.2-0.9,0.6-1,1.1c-0.2,0.5-0.3,1.2-0.3,2.2v23.2l0,0c0,1,0.1,1.7,0.3,2.2c0.2,0.5,0.5,0.8,1,1c0.5,0.2,1.3,0.3,2.3,0.3
	c0.1,0,0.2,0.1,0.2,0.3s-0.1,0.3-0.2,0.3c-0.9,0-1.8,0-2.9-0.1c-1.1,0-2.2,0-3.5,0c-1.2,0-2.4,0-3.5,0c-1.1,0-2.1,0.1-3,0.1
	c-0.1,0-0.1-0.1-0.1-0.3c0-0.2,0-0.3,0.1-0.3c1,0,1.8-0.1,2.3-0.3c0.5-0.2,0.9-0.5,1.1-1c0.2-0.5,0.3-1.2,0.3-2.2V5.5
	c0-1-0.1-1.7-0.3-2.2c-0.2-0.5-0.5-0.8-1.1-1c-0.5-0.2-1.3-0.3-2.3-0.3c-0.1,0-0.1-0.1-0.1-0.3c0-0.2,0-0.3,0.1-0.3
	c0.9,0,1.9,0,3,0.1c1.1,0,2.3,0.1,3.5,0.1c1.3,0,2.5,0,3.5-0.1C156.3,1.5,157.2,1.5,158.1,1.5z M211.6,1.5c0.1,0,0.2,0.1,0.2,0.3
	c0,0.2-0.1,0.3-0.2,0.3c-1,0-1.8,0.1-2.3,0.3c-0.5,0.2-0.9,0.6-1,1.1c-0.2,0.5-0.3,1.2-0.3,2.2v23.2l0,0c0,1,0.1,1.7,0.3,2.2
	c0.2,0.5,0.5,0.8,1,1c0.5,0.2,1.3,0.3,2.3,0.3c0.1,0,0.2,0.1,0.2,0.3s-0.1,0.3-0.2,0.3c-0.9,0-1.8,0-2.9-0.1c-1.1,0-2.2,0-3.5,0
	c-1.2,0-2.4,0-3.5,0c-1.1,0-2.1,0.1-3,0.1c-0.1,0-0.1-0.1-0.1-0.3c0-0.2,0-0.3,0.1-0.3c1,0,1.8-0.1,2.3-0.3c0.5-0.2,0.9-0.5,1.1-1
	c0.2-0.5,0.3-1.2,0.3-2.2V5.5c0-1-0.1-1.7-0.3-2.2c-0.2-0.5-0.5-0.8-1.1-1c-0.5-0.2-1.3-0.3-2.3-0.3c-0.1,0-0.1-0.1-0.1-0.3
	c0-0.2,0-0.3,0.1-0.3c0.9,0,1.9,0,3,0.1c1.1,0,2.3,0.1,3.5,0.1c1.3,0,2.5,0,3.5-0.1C209.8,1.5,210.8,1.5,211.6,1.5z M325.9,0
	c0.2,0,0.3,0.1,0.3,0.2c-0.1,0.5-0.1,1.3-0.2,2.2c0,1-0.1,2-0.1,3c-0.1,1.1-0.1,2-0.1,2.9c0,0.9-0.1,1.6-0.1,2
	c0,0.1-0.1,0.2-0.3,0.2c-0.2,0-0.3-0.1-0.3-0.2c-0.5-2.6-1.5-4.6-2.8-5.9c-1.4-1.3-3.1-1.9-5.1-1.9c-0.7,0-1.2,0.1-1.5,0.3
	c-0.4,0.2-0.6,0.5-0.7,0.9c-0.1,0.4-0.2,1-0.2,1.8v23.2c0,1,0.1,1.7,0.3,2.2c0.2,0.5,0.6,0.8,1.2,1c0.6,0.2,1.5,0.3,2.7,0.3
	c0.1,0,0.1,0.1,0.1,0.3c0,0.2-0.1,0.3-0.1,0.3c-0.9,0-2,0-3.2-0.1c-1.2,0-2.5,0-3.9,0c-1.3,0-2.6,0-3.8,0c-1.2,0-2.2,0.1-3.2,0.1
	c-0.1,0-0.1-0.1-0.1-0.3c0-0.2,0-0.3,0.1-0.3c1.2,0,2.1-0.1,2.7-0.3c0.6-0.2,1-0.5,1.2-1c0.2-0.5,0.3-1.2,0.3-2.2V5.5
	c0-0.7-0.1-1.3-0.2-1.7c-0.1-0.4-0.3-0.7-0.7-0.9c-0.3-0.2-0.8-0.3-1.5-0.3l0,0c-2,0-3.8,0.7-5.2,2c-1.4,1.4-2.6,3.3-3.4,5.8
	c0,0.1-0.1,0.1-0.3,0.1c-0.2,0-0.3-0.1-0.3-0.2c0.1-0.5,0.1-1.1,0.2-2c0.1-0.9,0.1-1.8,0.2-2.8c0.1-1,0.1-2,0.2-2.9
	c0.1-0.9,0.1-1.7,0.1-2.3c0-0.2,0.1-0.3,0.3-0.3c0.2,0,0.3,0.1,0.3,0.3c0,0.3,0.2,0.6,0.5,0.7c0.4,0.2,0.8,0.3,1.2,0.3
	c0.5,0.1,0.8,0.1,1.1,0.1c2.9,0.1,6.3,0.2,10.1,0.2c2.3,0,4.2,0,5.6-0.1c1.4-0.1,2.8-0.1,4.1-0.1c1.2,0,2.1-0.1,2.7-0.2
	c0.6-0.2,1-0.5,1.2-1C325.6,0.1,325.7,0,325.9,0z M60.2,1.5c0.3,0,0.5,0.2,0.5,0.5l0.1,6.7c0,0.1-0.1,0.1-0.3,0.2
	c-0.2,0-0.3,0-0.4-0.1c-0.5-2-1.4-3.4-2.7-4.3c-1.3-0.9-3-1.4-5-1.4H51c-0.7,0-1.2,0.1-1.7,0.3c-0.4,0.2-0.8,0.5-1,0.9
	c-0.2,0.4-0.3,0.9-0.3,1.5v10.3h4.2c2,0,3.5-0.3,4.5-1c1-0.7,1.5-1.6,1.5-2.8c0-0.1,0.1-0.1,0.3-0.1c0.2,0,0.3,0,0.3,0.1
	c0,1.1,0,2,0,2.6c0,0.6,0,1.3,0,1.9c0,0.8,0,1.7,0.1,2.5c0,0.8,0.1,1.7,0.1,2.7c0,0.1-0.1,0.1-0.3,0.1c-0.2,0-0.3,0-0.3-0.1l0,0
	c0-1.4-0.5-2.5-1.6-3.2c-1-0.8-2.6-1.2-4.6-1.2h-4.1v11.4c0,0.6,0.1,1.2,0.3,1.6c0.2,0.4,0.4,0.8,0.8,1c0.3,0.2,0.8,0.3,1.3,0.3H52
	c2.6,0,4.7-0.5,6.3-1.6c1.6-1.1,2.7-2.7,3.5-5c0-0.1,0.1-0.1,0.3-0.1c0.2,0.1,0.3,0.1,0.3,0.2c-0.1,1-0.3,2.1-0.4,3.4
	c-0.1,1.3-0.2,2.6-0.2,3.7c0,0.5-0.3,0.8-0.8,0.8v0H38.9c-0.1,0-0.2-0.1-0.2-0.3c0-0.2,0.1-0.3,0.2-0.3c1,0,1.8-0.1,2.3-0.3
	c0.5-0.2,0.8-0.5,1-1c0.2-0.5,0.3-1.2,0.3-2.2V5.5c0-1-0.1-1.7-0.3-2.2c-0.2-0.5-0.5-0.8-1-1c-0.5-0.2-1.3-0.3-2.3-0.3
	c-0.1,0-0.2-0.1-0.2-0.3c0-0.2,0.1-0.3,0.2-0.3H60.2z M188.7,1.5c0.3,0,0.5,0.2,0.5,0.5l0.1,6.7c0,0.1-0.1,0.1-0.3,0.2
	c-0.2,0-0.3,0-0.4-0.1c-0.5-2-1.4-3.4-2.7-4.3c-1.3-0.9-3-1.4-5-1.4h-1.5c-1,0-1.7,0.2-2.2,0.7c-0.5,0.4-0.7,1.1-0.7,2v10.9h3.6
	c2,0,3.5-0.4,4.5-1.1c1-0.7,1.5-1.6,1.5-2.8c0-0.1,0.1-0.1,0.3-0.1c0.2,0,0.3,0,0.3,0.1c0,1.1,0,2,0,2.6c0,0.6,0,1.3,0,1.9
	c0,0.8,0,1.7,0.1,2.5c0,0.8,0.1,1.7,0.1,2.6c0,0.1-0.1,0.1-0.3,0.1c-0.2,0-0.3,0-0.3-0.1l0,0c0-1.3-0.5-2.4-1.6-3.2
	c-1-0.8-2.6-1.2-4.5-1.2h-3.6v10.8c0,1,0.1,1.8,0.4,2.3c0.3,0.5,0.8,0.9,1.6,1.1c0.8,0.2,1.9,0.3,3.4,0.3c0.1,0,0.1,0.1,0.1,0.3
	c0,0.2,0,0.3-0.1,0.3c-1.1,0-2.4,0-3.7-0.1c-1.3,0-2.9,0-4.7,0c-1.2,0-2.4,0-3.5,0c-1.1,0-2.1,0.1-3,0.1v0c-0.1,0-0.2-0.1-0.2-0.3
	c0-0.2,0.1-0.3,0.2-0.3c1.1,0,2-0.1,2.5-0.3c0.6-0.2,0.9-0.5,1.1-1c0.2-0.5,0.3-1.2,0.3-2.2V5.5c0-1-0.1-1.7-0.3-2.2
	c-0.2-0.5-0.5-0.8-1-1c-0.5-0.2-1.3-0.3-2.3-0.3c-0.1,0-0.1-0.1-0.1-0.3c0-0.2,0-0.3,0.1-0.3H188.7z M275.9,1.1c0.3,0,0.4,0,0.5,0.2
	L288.9,26c0.8,1.6,1.5,2.8,2.1,3.7c0.6,0.9,1.1,1.6,1.7,2c0.5,0.4,1,0.6,1.6,0.6h0c0.2,0,0.3,0.1,0.3,0.3c0,0.2-0.1,0.3-0.3,0.3
	c-1,0-2.1,0-3.1-0.1c-1.1-0.1-2.1-0.1-3.1-0.1c-1.1,0-2.1,0-3,0.1c-0.8,0.1-1.8,0.1-2.8,0.1c-0.1,0-0.2-0.1-0.2-0.3
	c0-0.2,0.1-0.3,0.2-0.3c1.4,0,2.2-0.3,2.4-0.8c0.2-0.6-0.1-1.7-0.9-3.3l-3.4-6.8h-12.3l-2,4.4c-0.9,2-0.9,3.6,0,4.8
	c0.9,1.2,2.2,1.8,4.1,1.8c0.2,0,0.3,0.1,0.3,0.3c0,0.2-0.1,0.3-0.3,0.3c-1,0-1.9,0-2.8-0.1c-0.8-0.1-1.9-0.1-3.2-0.1
	c-1.3,0-2.4,0-3.1,0.1c-0.8,0.1-1.8,0.1-2.9,0.1c-0.1,0-0.2-0.1-0.2-0.3c0-0.2,0.1-0.3,0.2-0.3c0.9,0,1.7-0.2,2.3-0.6
	c0.7-0.4,1.3-1.1,2-2.1c0.7-1,1.4-2.5,2.2-4.4l10.9-24C275.4,1.2,275.6,1.1,275.9,1.1z M356.5,1.5c0.3,0,0.5,0.2,0.5,0.5l0.1,6.7
	c0,0.1-0.1,0.1-0.3,0.2c-0.2,0-0.3,0-0.4-0.1c-0.5-2-1.4-3.4-2.7-4.3c-1.3-0.9-3-1.4-5-1.4h-1.5c-0.7,0-1.2,0.1-1.7,0.3
	c-0.4,0.2-0.8,0.5-1,0.9c-0.2,0.4-0.3,0.9-0.3,1.5v10.3h4.2c2,0,3.5-0.3,4.5-1c1-0.7,1.5-1.6,1.5-2.8c0-0.1,0.1-0.1,0.3-0.1
	c0.2,0,0.3,0,0.3,0.1c0,1.1,0,2,0,2.6c0,0.6,0,1.3,0,1.9c0,0.8,0,1.7,0.1,2.5c0,0.8,0.1,1.7,0.1,2.7c0,0.1-0.1,0.1-0.3,0.1
	c-0.2,0-0.3,0-0.3-0.1l0,0c0-1.4-0.5-2.5-1.6-3.2c-1-0.8-2.6-1.2-4.6-1.2h-4.1v11.4c0,0.6,0.1,1.2,0.3,1.6c0.2,0.4,0.4,0.8,0.8,1
	c0.3,0.2,0.8,0.3,1.3,0.3h1.7c2.6,0,4.7-0.5,6.3-1.6c1.6-1.1,2.7-2.7,3.5-5c0-0.1,0.1-0.1,0.3-0.1c0.2,0.1,0.3,0.1,0.3,0.2
	c-0.1,1-0.3,2.1-0.4,3.4c-0.1,1.3-0.2,2.6-0.2,3.7c0,0.5-0.3,0.8-0.8,0.8v0h-22.2c-0.1,0-0.1-0.1-0.1-0.3c0-0.2,0-0.3,0.1-0.3
	c1,0,1.8-0.1,2.3-0.3c0.5-0.2,0.8-0.5,1-1c0.2-0.5,0.3-1.2,0.3-2.2V5.5c0-1-0.1-1.7-0.3-2.2c-0.2-0.5-0.5-0.8-1-1
	c-0.5-0.2-1.3-0.3-2.3-0.3C335,2.1,335,2,335,1.8c0-0.2,0-0.3,0.1-0.3H356.5z M268.5,20h11l-5.8-11.4L268.5,20z M84.7,2.4
	c-1.3,0-2.3,0.3-2.9,0.8C81.3,3.6,81,4.5,81,5.6v10.7c0.5,0.1,1,0.1,1.5,0.2c0.5,0,1,0,1.4,0c2,0,3.4-0.5,4.2-1.6
	c0.8-1.1,1.3-2.8,1.3-5.3h0c0-2-0.2-3.5-0.6-4.5c-0.4-1-1-1.8-1.7-2.1C86.4,2.6,85.6,2.4,84.7,2.4z"/>
</svg>
