<svg width="303" height="9" viewBox="0 0 303 9" fill="none" xmlns="http://www.w3.org/2000/svg">
<path d="M124.861 0.126953C125.929 0.126971 126.848 0.372924 127.192 0.418945C127.25 0.988597 127.336 1.84153 127.426 2.40918L126.971 2.49512C126.717 1.58172 126.373 1.10746 125.728 0.849609C125.423 0.71769 124.957 0.65625 124.577 0.65625C122.703 0.656265 121.743 2.15133 121.743 4.12012C121.743 6.41857 122.929 7.94629 124.725 7.94629C125.838 7.94615 126.502 7.39082 127.155 6.0791L127.591 6.24219H127.592C127.419 6.84882 127.098 7.76887 126.904 8.18262C126.571 8.25662 125.578 8.49406 124.64 8.49414C121.452 8.49414 120.035 6.42329 120.035 4.39453C120.035 1.85717 121.971 0.126953 124.861 0.126953ZM105.082 0.126953C107.302 0.127142 109.173 1.77359 109.173 4.20996C109.173 6.84326 107.324 8.49316 105.016 8.49316C102.583 8.49316 100.819 6.69436 100.818 4.33887C100.818 2.19618 102.343 0.126953 105.082 0.126953ZM132.961 0.126953C135.181 0.126953 137.053 1.77345 137.053 4.20996C137.053 6.84317 135.204 8.49305 132.896 8.49316C130.463 8.49316 128.697 6.69436 128.697 4.33887C128.697 2.19652 130.223 0.127621 132.961 0.126953ZM188.252 0.126953C190.472 0.127168 192.343 1.77361 192.343 4.20996C192.343 6.84325 190.494 8.49314 188.186 8.49316C185.753 8.49316 183.988 6.69436 183.988 4.33887C183.988 2.19633 185.513 0.127241 188.252 0.126953ZM200.318 6.01758V3.51953C200.318 2.42156 200.301 1.97152 200.264 1.5459C200.227 1.00728 199.999 0.777786 198.99 0.716797V0.299805H202.035L202.034 0.716797C201.269 0.811739 201.026 0.958953 200.989 1.51758C200.961 1.96827 200.928 2.42129 200.928 3.51953V8.43652H200.316L195.126 2.17578V5.06445C195.126 6.14928 195.156 6.65595 195.189 7.0127C195.23 7.58426 195.506 7.83357 196.409 7.89258V8.30957H193.373V7.89258C194.098 7.83062 194.402 7.64526 194.468 7.05762C194.513 6.63103 194.536 6.14929 194.536 5.06055V2.0625C194.536 1.67777 194.512 1.43168 194.282 1.12891C194.055 0.820174 193.773 0.770747 193.225 0.716797V0.299805H195.435L200.318 6.01758ZM152.729 0.299805C153.668 0.299805 154.395 0.467717 154.901 0.813477C155.47 1.20324 155.811 1.79144 155.811 2.62793C155.811 4.41872 154.286 5.16095 153.018 5.16895C152.89 5.16892 152.743 5.15748 152.661 5.14551L151.898 4.94727V6.70996C151.898 7.74433 151.985 7.78562 153.079 7.89355V8.31055H149.34V7.89355C150.313 7.78265 150.408 7.73238 150.408 6.70215V1.93164C150.408 0.874431 150.282 0.792697 149.34 0.71875V0.301758H152.73L152.729 0.299805ZM116.209 0.276367C116.222 0.567382 116.278 1.55784 116.341 2.2373L115.896 2.30176H115.893C115.766 1.87716 115.603 1.47725 115.407 1.23047C115.156 0.907748 114.987 0.840854 114.361 0.84082H113.299C112.902 0.84082 112.856 0.869851 112.856 1.26758V4.00977H114.249C115.033 4.00974 115.118 3.83693 115.304 2.97559H115.731V5.65527H115.292C115.148 4.80885 114.997 4.60257 114.25 4.60254H112.857V6.62402C112.857 7.73524 112.949 7.80964 114.063 7.89258V8.30957H110.297V7.89258C111.256 7.81063 111.366 7.73235 111.366 6.62402V1.96875C111.366 0.88082 111.251 0.799735 110.297 0.716797V0.299805H114.383C115.46 0.299805 116.008 0.287359 116.209 0.276367ZM143.254 6.01758L145.832 0.298828H148.277V0.71582C147.265 0.822751 147.145 0.925826 147.171 1.86816L147.252 6.52734C147.277 7.71062 147.323 7.7637 148.352 7.89062V8.30762H144.767V7.89258C145.73 7.79364 145.784 7.71157 145.779 6.5293L145.776 1.64648C144.844 3.81316 143.642 6.56863 142.914 8.30957H142.537C141.869 6.61161 140.812 3.9356 139.907 1.75293C139.729 5.77647 139.726 6.6146 139.726 6.98438C139.739 7.65874 140.006 7.80467 140.901 7.8916V8.30859H137.89V7.8916C138.597 7.82564 138.909 7.68524 139.007 6.97168C139.066 6.54096 139.103 5.92801 139.399 1.71191C139.44 1.10459 139.339 0.814736 138.272 0.71582V0.298828H140.753L143.254 6.01758ZM160.473 0.716797C159.502 0.807721 159.374 0.880911 159.374 1.92383V6.78711C159.374 7.49068 159.425 7.75168 160.111 7.76367C160.14 7.77255 160.812 7.77637 160.869 7.77637C161.546 7.77634 161.732 7.65482 162.023 7.33105C162.284 7.0592 162.582 6.54132 162.791 6.05371L163.23 6.18457L163.231 6.18359C163.14 6.6623 162.786 7.95878 162.67 8.30957H156.689V7.89258C157.787 7.80564 157.885 7.72764 157.885 6.68848V1.92383C157.885 0.884832 157.762 0.799736 156.816 0.716797V0.299805H160.473V0.716797ZM169.845 2.2334L169.404 2.29492C169.293 1.87618 169.113 1.45751 168.929 1.22266C168.716 0.919929 168.513 0.841797 167.845 0.841797H166.914C166.476 0.841797 166.435 0.870841 166.435 1.26855V3.89453H167.7C168.472 3.89447 168.574 3.70996 168.746 2.84863H169.193V5.52344H168.746C168.561 4.62099 168.463 4.48047 167.687 4.48047H166.435V6.71582C166.435 7.5703 166.546 7.76435 167.259 7.77734H168.229C168.941 7.77734 169.105 7.68231 169.375 7.35352C169.657 7.03172 169.908 6.55792 170.097 6.15625L170.524 6.26172C170.457 6.59105 170.117 7.9559 170.002 8.30957H163.744V7.90039C164.875 7.79746 164.953 7.71867 164.953 6.69336V1.92969C164.953 0.866371 164.81 0.794746 163.942 0.716797V0.299805H167.867C169.113 0.299802 169.562 0.287352 169.726 0.276367C169.739 0.528422 169.796 1.50797 169.845 2.2334ZM171.579 0C171.765 0.287824 171.909 0.299805 172.27 0.299805H177.184C177.521 0.299805 177.668 0.234856 177.869 0H178.205C178.214 0.538671 178.263 1.55567 178.324 2.3252L177.891 2.36133C177.764 1.85541 177.536 1.41046 177.409 1.21973C177.195 0.9359 177.088 0.84082 176.378 0.84082H175.434V6.70508C175.434 7.71443 175.548 7.80963 176.672 7.89258V8.30957H172.755V7.89258C173.838 7.81064 173.943 7.71833 173.943 6.70508V0.84082H173.062C172.376 0.84082 172.178 0.938939 171.953 1.26074C171.789 1.49862 171.642 1.89154 171.482 2.37012H171.047C171.129 1.52264 171.211 0.625618 171.24 0H171.579ZM182.876 0.716797C181.917 0.811739 181.802 0.885326 181.802 1.92969V6.69336C181.802 7.72867 181.909 7.78964 182.876 7.89258V8.30957H179.242V7.89258C180.205 7.79664 180.312 7.73267 180.312 6.69336V1.92969C180.312 0.885326 180.197 0.803744 179.242 0.716797V0.299805H182.876V0.716797ZM104.875 0.639648C103.574 0.639648 102.532 1.84667 102.532 4.07031C102.532 6.2258 103.511 7.97754 105.205 7.97754C106.488 7.97729 107.475 6.85297 107.475 4.55469C107.475 2.06342 106.371 0.639888 104.875 0.639648ZM132.754 0.639648C131.453 0.639849 130.412 1.84686 130.412 4.07031C130.412 6.22567 131.39 7.97733 133.084 7.97754C134.367 7.97754 135.355 6.85322 135.355 4.55469C135.355 2.06321 134.25 0.639648 132.754 0.639648ZM188.045 0.639648C186.744 0.639648 185.702 1.84667 185.702 4.07031C185.702 6.2258 186.681 7.97754 188.375 7.97754C189.658 7.97726 190.645 6.85294 190.645 4.55469C190.645 2.06345 189.541 0.639922 188.045 0.639648ZM152.571 0.775391C152.278 0.775391 152.092 0.837247 152.017 0.908203C151.926 0.986182 151.897 1.11794 151.897 1.35352V4.45996H151.898C152.046 4.5339 152.323 4.59568 152.638 4.5957C153.295 4.5957 154.255 4.23381 154.255 2.63281C154.255 1.26186 153.455 0.775541 152.571 0.775391Z" fill="#414142"/>
<path d="M79.6094 4.26877L0 3.76907L79.6094 3.26938V4.26877Z" fill="#414142"/>
<path d="M223.246 3.26938L302.856 3.76907L223.246 4.26877V3.26938Z" fill="#414142"/>
</svg>
