<svg width="106" height="95" viewBox="0 0 106 95" fill="none" xmlns="http://www.w3.org/2000/svg">
<path d="M24.9803 74.6822C25.7444 74.5053 26.4804 74.1076 27.1895 73.489L27.7596 72.9933C28.2637 72.5415 28.6267 72.0529 28.8508 71.5212C29.0738 70.9895 29.1418 70.4588 29.0558 69.9301C28.9688 69.4015 28.7418 68.9248 28.3717 68.5021C28.0067 68.0843 27.5706 67.7914 27.0625 67.6265C26.5545 67.4606 26.0404 67.4367 25.5193 67.5536C25.0003 67.6705 24.5342 67.9084 24.1222 68.2671C23.4621 68.8428 23.085 69.4724 22.988 70.158C22.892 70.8426 23.097 71.4772 23.6071 72.0599C23.9531 72.4576 24.4112 72.6895 24.9793 72.7584C24.0111 73.401 23.054 73.2321 22.1099 72.2517L21.8589 71.9739L20.6677 73.0142L20.7487 73.1062C21.3468 73.7928 22.0109 74.2705 22.74 74.5404C23.4691 74.8122 24.2152 74.8591 24.9793 74.6822H24.9803ZM24.8122 70.6747C24.8853 70.3579 25.0883 70.0531 25.4253 69.7593C25.7423 69.4834 26.0744 69.3175 26.4214 69.2626C26.7685 69.2086 27.0345 69.2866 27.2155 69.4964C27.4206 69.7313 27.4856 70.0041 27.4096 70.3139C27.3326 70.6247 27.0885 70.9595 26.6765 71.3193L26.0574 71.857C25.6544 71.9609 25.3123 71.849 25.0293 71.5272C24.8112 71.2763 24.7382 70.9925 24.8112 70.6747H24.8122Z" fill="#28282B"/>
<path d="M27.6376 78.6869C27.6926 79.5014 28.1067 80.184 28.8768 80.7367C29.6409 81.2854 30.416 81.4582 31.2011 81.2513C31.9862 81.0465 32.7153 80.4748 33.3864 79.5404L34.2925 78.2791C34.9616 77.3467 35.2686 76.4743 35.2146 75.6598C35.1596 74.8473 34.7476 74.1657 33.9795 73.613C33.2104 73.0623 32.4333 72.8905 31.6492 73.0954C30.8641 73.3022 30.136 73.8718 29.4639 74.8073L28.5558 76.0725C27.8877 77.0019 27.5816 77.8734 27.6367 78.6859L27.6376 78.6869ZM29.4059 78.6949C29.4469 78.3631 29.6539 77.9404 30.0249 77.4227L31.2961 75.6538C31.6372 75.1981 31.9532 74.8992 32.2432 74.7603C32.5323 74.6234 32.8153 74.6534 33.0913 74.8503C33.3744 75.0541 33.4904 75.324 33.4454 75.6628C33.3994 76.0016 33.1974 76.4203 32.8393 76.919L31.6092 78.6309C31.2471 79.1266 30.9191 79.4435 30.622 79.5844C30.324 79.7253 30.038 79.6963 29.7659 79.5004C29.4829 79.2966 29.3629 79.0297 29.4059 78.6949Z" fill="#28282B"/>
<path d="M37.2639 85.3867C38.134 85.7435 38.9281 85.7325 39.6432 85.3518C40.3603 84.97 40.9384 84.2474 41.3754 83.1821L41.9665 81.748C42.4035 80.6856 42.5015 79.7662 42.2605 78.9866C42.0205 78.2091 41.4614 77.6395 40.5883 77.2797C39.7132 76.9219 38.9181 76.9329 38.201 77.3127C37.4859 77.6934 36.9078 78.417 36.4688 79.4824L35.8767 80.9215C35.4406 81.9798 35.3446 82.8982 35.5857 83.6768C35.8257 84.4563 36.3867 85.026 37.2639 85.3878V85.3867ZM37.6159 81.8968L38.445 79.8831C38.672 79.3594 38.9121 78.9977 39.1621 78.7958C39.4111 78.5949 39.6922 78.5589 40.0082 78.6888C40.3293 78.8198 40.5053 79.0566 40.5393 79.3974C40.5723 79.7382 40.4733 80.1929 40.2392 80.7595L39.4371 82.7084C39.2001 83.275 38.9521 83.6598 38.695 83.8637C38.438 84.0685 38.155 84.1065 37.8439 83.9786C37.5219 83.8457 37.3429 83.6128 37.3089 83.278C37.2729 82.9462 37.3739 82.4855 37.6159 81.8968Z" fill="#28282B"/>
<path d="M45.971 87.7713L47.9282 88.0791L49.2574 79.6573L49.0774 79.6293L45.1769 80.3248L44.9429 81.8049L46.9531 81.5461L45.971 87.7713Z" fill="#28282B"/>
<path d="M54.6061 86.7019C54.3961 86.52 54.1341 86.4341 53.8211 86.4401C53.505 86.446 53.248 86.546 53.047 86.7379C52.8449 86.9288 52.7449 87.1666 52.7519 87.4524C52.7579 87.7363 52.8659 87.9701 53.074 88.153C53.284 88.3359 53.546 88.4248 53.8631 88.4178C54.1741 88.4118 54.4331 88.3139 54.6352 88.124C54.8392 87.9331 54.9372 87.6953 54.9302 87.4064C54.9252 87.1176 54.8162 86.8828 54.6052 86.7009L54.6061 86.7019Z" fill="#28282B"/>
<path d="M52.9759 83.4829C53.186 83.6658 53.448 83.7548 53.764 83.7468C54.0771 83.7408 54.3361 83.6428 54.5381 83.4529C54.7422 83.264 54.8402 83.0242 54.8332 82.7354C54.8282 82.4466 54.7192 82.2117 54.5081 82.0298C54.2981 81.8499 54.0361 81.762 53.723 81.768C53.407 81.776 53.148 81.8749 52.9479 82.0658C52.7459 82.2567 52.6479 82.4945 52.6539 82.7804C52.6599 83.0662 52.7679 83.2991 52.9759 83.4829Z" fill="#28282B"/>
<path d="M58.9167 82.1068C58.8407 81.731 58.8707 81.4002 59.0037 81.1124C59.1367 80.8256 59.3507 80.6517 59.6468 80.5917C59.9448 80.5317 60.1919 80.5807 60.3879 80.7356C60.5819 80.8915 60.7159 81.1504 60.7869 81.5101C60.877 81.9539 60.6669 82.6195 60.1548 83.5059L58.0356 86.8698L58.2896 88.1341L64.1264 86.9598L63.8263 85.4667L60.5339 86.1293L61.363 84.6662C61.8221 83.9766 62.1461 83.4339 62.3361 83.0392C62.5252 82.6444 62.6502 82.2807 62.7102 81.9429C62.7702 81.6071 62.7672 81.2743 62.7012 80.9445C62.5432 80.1649 62.1781 79.6143 61.607 79.2955C61.034 78.9767 60.2969 78.9077 59.3928 79.0906C58.8287 79.2025 58.3446 79.4284 57.9386 79.7642C57.5315 80.1 57.2435 80.5107 57.0745 80.9954C56.9054 81.4831 56.8724 81.9829 56.9754 82.4965L58.9177 82.1068H58.9167Z" fill="#28282B"/>
<path d="M66.1226 82.6664C66.6027 83.7048 67.2108 84.4004 67.9449 84.7542C68.6809 85.1079 69.4801 85.086 70.3422 84.6882C71.1963 84.2935 71.7284 83.7048 71.9354 82.9213C72.1434 82.1368 72.0064 81.2224 71.5233 80.177L70.8722 78.7678C70.3922 77.7245 69.7831 77.0269 69.048 76.6751C68.3119 76.3213 67.5148 76.3423 66.6567 76.7381C65.7976 77.1338 65.2655 77.7245 65.0575 78.509C64.8495 79.2915 64.9865 80.2069 65.4695 81.2533L66.1216 82.6674L66.1226 82.6664ZM66.7997 78.8138C66.8217 78.495 66.9877 78.2632 67.2958 78.1212C67.6118 77.9763 67.9049 78.0073 68.1789 78.2141C68.4509 78.422 68.716 78.8048 68.972 79.3615L69.8561 81.2753C70.1101 81.832 70.2241 82.2757 70.1991 82.6035C70.1741 82.9303 70.0101 83.1651 69.7031 83.3061C69.387 83.451 69.095 83.423 68.825 83.2211C68.5569 83.0222 68.2899 82.6345 68.0229 82.0568L67.1097 80.0781C66.8807 79.5554 66.7777 79.1346 66.8007 78.8138H66.7997Z" fill="#28282B"/>
<path d="M74.1197 74.9851L78.0052 79.9461L79.5654 78.7248L74.3057 72.0129L74.1617 72.1249L72.0124 75.4508L72.9385 76.6311L74.1197 74.9851Z" fill="#28282B"/>
<path d="M81.4737 71.5072C81.3836 71.1445 81.4827 70.7827 81.7717 70.4249C82.2798 69.7903 82.8898 69.7594 83.5989 70.329C84.368 70.9446 84.543 71.5112 84.128 72.0279C83.945 72.2568 83.7249 72.3827 83.4699 72.4087C83.2139 72.4337 82.9578 72.3568 82.7028 72.1769L81.4636 73.7199L81.4827 73.7339C81.8507 74.0307 82.2657 74.1946 82.7258 74.2276C83.1929 74.2626 83.6589 74.1656 84.125 73.9368C84.5911 73.7099 84.9901 73.3881 85.3252 72.9714C85.7022 72.5007 85.9362 72.0209 86.0262 71.5272C86.1163 71.0345 86.0643 70.5538 85.8712 70.0861C85.6782 69.6194 85.3692 69.2136 84.9411 68.8709C84.235 68.3042 83.5439 68.0424 82.8658 68.0834C82.1897 68.1243 81.5867 68.4751 81.0566 69.1357C80.9196 69.3066 80.8036 69.5005 80.7095 69.7163C80.6165 69.9342 80.5565 70.1231 80.5325 70.284L79.3324 69.0737L81.4487 66.4384L80.2505 65.4789L77.1321 69.3655L80.2065 72.4977L81.4756 71.5053L81.4737 71.5072Z" fill="#28282B"/>
<path d="M25.0373 25.1536L24.0151 26.5277C24.8943 27.2423 25.1493 27.8819 24.7812 28.4466C24.5522 28.7974 24.2172 28.9543 23.7781 28.9183C23.3371 28.8823 22.684 28.5805 21.8148 28.0138C20.8437 27.3812 20.2516 26.8586 20.0386 26.4488C19.8256 26.0371 19.8256 25.6713 20.0356 25.3475C20.4387 24.7308 21.1758 24.7448 22.2459 25.3904L23.067 23.9074C21.1628 22.853 19.7306 23.0619 18.7714 24.531C18.1924 25.4194 18.0764 26.2999 18.4274 27.1693C18.7765 28.0408 19.5215 28.8463 20.6617 29.5899C21.7928 30.3264 22.827 30.6772 23.7681 30.6422C24.7092 30.6073 25.4623 30.1565 26.0274 29.2881C26.4935 28.5765 26.6255 27.846 26.4285 27.0994C26.2314 26.3529 25.7664 25.7042 25.0353 25.1536H25.0373Z" fill="#28282B"/>
<path d="M30.264 21.8906L28.8918 20.3375L30.798 18.6575L29.8419 17.5762L27.9377 19.2572L26.6425 17.791L29.0938 15.6294L28.1387 14.548L24.3012 17.934L29.8719 24.2411L33.7114 20.8572L32.7143 19.7289L30.264 21.8906Z" fill="#28282B"/>
<path d="M38.8641 11.339C38.6671 10.9363 38.419 10.6085 38.12 10.3546C37.82 10.1008 37.4989 9.9409 37.1569 9.87694C36.8138 9.81198 36.5098 9.81896 36.2427 9.89591C35.9777 9.97286 35.6127 10.1228 35.1496 10.3476L32.7703 11.5039L36.4508 19.0703L38.115 18.2628L36.6588 15.2696L37.4909 14.8659L39.9592 17.3674L41.7705 16.4869L38.7681 13.8545C39.2911 13.1259 39.3221 12.2875 38.8631 11.341L38.8641 11.339ZM36.7948 13.6866L36.0637 14.0434L35.0296 11.9197L35.6957 11.5959C35.9437 11.476 36.1437 11.413 36.3008 11.408C36.4558 11.403 36.6218 11.459 36.7948 11.5719C36.9698 11.6858 37.1189 11.8687 37.2399 12.1196C37.5939 12.8481 37.4449 13.3708 36.7948 13.6866Z" fill="#28282B"/>
<path d="M47.9202 6.48199L42.7646 7.4604L43.0576 9.01145L44.7068 8.69863L45.981 15.4145L47.8002 15.0687L46.5241 8.35283L48.2153 8.03305L47.9202 6.48199Z" fill="#28282B"/>
<path d="M53.0583 6.24674L52.8571 14.6582L54.7068 14.7024L54.908 6.29092L53.0583 6.24674Z" fill="#28282B"/>
<path d="M58.9427 15.1457L60.7379 15.5944L61.543 12.3644L63.8963 12.951L64.2454 11.5519L61.8921 10.9642L62.4261 8.82953L65.4785 9.59005L65.8276 8.19091L60.979 6.98364L58.9427 15.1457Z" fill="#28282B"/>
<path d="M70.5527 10.187L66.7626 17.7003L68.4156 18.5329L72.2058 11.0197L70.5527 10.187Z" fill="#28282B"/>
<path d="M77.6881 20.7822L78.6123 19.6729L76.657 18.0509L77.9062 16.5478L80.4215 18.6365L81.3436 17.5272L77.4051 14.2562L72.0234 20.7273L75.9619 23.9973L76.924 22.84L74.4097 20.7523L75.7349 19.1602L77.6881 20.7822Z" fill="#28282B"/>
<path d="M79.4074 28.2337C79.7514 28.7304 80.0845 29.1112 80.4085 29.378C80.7335 29.6429 81.1256 29.8117 81.5846 29.8847C82.0437 29.9556 82.5718 29.9067 83.1649 29.7368C83.7589 29.5649 84.368 29.2651 84.9901 28.8343C85.8652 28.2297 86.4683 27.6161 86.7983 26.9924C87.1264 26.3708 87.2344 25.7712 87.1174 25.1956C87.0004 24.6199 86.6973 23.9753 86.2063 23.2658L85.0721 21.6277L78.1472 26.4138L79.4054 28.2347L79.4074 28.2337ZM84.9391 23.9683L85.1171 24.2292C85.3482 24.561 85.4722 24.8618 85.4912 25.1316C85.5102 25.4014 85.4042 25.7093 85.1741 26.056C84.9431 26.4028 84.535 26.7806 83.9459 27.1873C83.3099 27.6281 82.7818 27.9069 82.3658 28.0238C81.9507 28.1418 81.6067 28.1518 81.3376 28.0508C81.0676 27.9519 80.8116 27.726 80.5685 27.3742L80.3885 27.1134L84.9391 23.9683Z" fill="#28282B"/>
<path d="M54.3741 24.2961L52.6519 20.9202L51.0177 24.3401L47.2732 24.9337L50.0226 27.5431L49.4315 31.2848L52.7639 29.4779L56.1434 31.1969L55.4533 27.4712L58.1336 24.7918L54.3741 24.2961Z" fill="#28282B"/>
<path d="M64.7945 27.2183L63.7203 25.1136L62.7022 27.2463L60.3669 27.6161L62.0811 29.2431L61.7121 31.5767L63.7903 30.4504L65.8976 31.5217L65.4676 29.1991L67.1388 27.5282L64.7945 27.2183Z" fill="#28282B"/>
<path d="M42.5816 27.2183L41.5074 25.1136L40.4893 27.2463L38.154 27.6161L39.8682 29.2431L39.4992 31.5767L41.5774 30.4504L43.6847 31.5217L43.2547 29.1991L44.9259 27.5282L42.5816 27.2183Z" fill="#28282B"/>
<path d="M49.4315 72.6675L52.7639 70.8606L56.1434 72.5796L55.4533 68.8539L58.1336 66.1735L54.3741 65.6778L52.6519 62.3019L51.0177 65.7218L47.2732 66.3154L50.0226 68.9248L49.4315 72.6675Z" fill="#28282B"/>
<path d="M61.9091 68.6989L63.9873 67.5716L66.0946 68.644L65.6645 66.3204L67.3358 64.6494L64.9915 64.3406L63.9173 62.2359L62.8992 64.3676L60.5639 64.7384L62.2781 66.3644L61.9091 68.6989Z" fill="#28282B"/>
<path d="M39.6962 68.6989L41.7745 67.5716L43.8817 68.644L43.4517 66.3204L45.1229 64.6494L42.7786 64.3406L41.7044 62.2359L40.6863 64.3676L38.351 64.7384L40.0652 66.3644L39.6962 68.6989Z" fill="#28282B"/>
<path d="M98.3779 34.284C96.2206 26.6137 92.1211 19.584 86.3293 13.7945C77.4261 4.89998 65.5906 0 53.002 0C40.4133 0 28.5757 4.89998 19.6746 13.7945C13.8808 19.584 9.78328 26.6137 7.626 34.284C3.38244 34.5049 0 38.0257 0 42.3191V51.8773C0 56.1707 3.38244 59.6915 7.626 59.9123C9.78328 67.5827 13.8808 74.6124 19.6746 80.4018C28.5757 89.2964 40.4113 94.1964 53.002 94.1964C65.5926 94.1964 77.4261 89.2964 86.3293 80.4018C92.1211 74.6124 96.2206 67.5827 98.3779 59.9123C102.619 59.6895 106.002 56.1707 106.002 51.8773V42.3191C106.002 38.0257 102.619 34.5069 98.3779 34.284ZM103.791 51.8763C103.791 54.7515 101.7 57.1481 98.9569 57.6268C98.6299 57.6847 98.2949 57.7147 97.9528 57.7147H8.05006C7.70702 57.7147 7.37298 57.6847 7.04593 57.6278C4.30258 57.1501 2.21031 54.7515 2.21031 51.8763V42.3181C2.21031 39.4429 4.30258 37.0443 7.04593 36.5666C7.37298 36.5097 7.70802 36.4797 8.05006 36.4797H97.9528C98.2959 36.4797 98.6299 36.5097 98.9569 36.5676C101.7 37.0453 103.791 39.4429 103.791 42.3181V51.8763ZM53.002 76.1164C64.4094 76.1164 74.3027 69.5095 79.0484 59.9234H79.7924C74.9948 69.8883 64.7895 76.7841 53.0029 76.7841C41.2164 76.7841 31.0091 69.8883 26.2114 59.9234H26.9556C31.7022 69.5095 41.5935 76.1164 53.002 76.1164ZM29.4479 59.9234H76.556C71.9984 68.2483 63.1493 73.9068 53.002 73.9068C42.8546 73.9068 34.0054 68.2483 29.4479 59.9234ZM25.1633 59.9234C30.0289 70.4259 40.6783 77.7305 53.002 77.7305C65.3256 77.7305 75.9739 70.4259 80.8386 59.9234H94.4473C88.9616 77.5856 72.4545 90.4487 53.002 90.4487C33.5494 90.4487 17.0423 77.5856 11.5565 59.9234H25.1643H25.1633ZM53.002 18.0799C41.5925 18.0799 31.7012 24.6869 26.9545 34.271H26.2104C31.0081 24.3061 41.2134 17.4103 53.002 17.4103C64.7905 17.4103 74.9948 24.3061 79.7914 34.271H79.0474C74.3017 24.6869 64.4084 18.0799 53.0009 18.0799H53.002ZM76.556 34.271H29.4479C34.0054 25.9461 42.8546 20.2886 53.002 20.2886C63.1493 20.2886 71.9984 25.9451 76.556 34.271ZM80.8386 34.271C75.9729 23.7685 65.3256 16.4639 53.002 16.4639C40.6783 16.4639 30.0289 23.7685 25.1633 34.271H11.5555C17.0412 16.6088 33.5464 3.7467 53.0009 3.7467C72.4555 3.7467 88.9607 16.6088 94.4464 34.271H80.8386ZM53.002 0.946412C74.0157 0.946412 91.796 15.0438 97.3707 34.271H96.7737C94.6564 27.0175 90.7349 20.3725 85.2412 14.8809C76.63 6.27615 65.1795 1.53803 53.002 1.53803C40.8244 1.53803 29.3739 6.27615 20.7607 14.8809C15.267 20.3725 11.3475 27.0165 9.23021 34.271H8.63315C14.2079 15.0438 31.9882 0.946412 53.002 0.946412ZM53.002 93.249C31.9872 93.249 14.2059 79.1516 8.63214 59.9244H9.23021C11.3465 67.1769 15.266 73.8228 20.7607 79.3145C29.3729 87.9192 40.8224 92.6594 53.002 92.6594C65.1815 92.6594 76.63 87.9192 85.2412 79.3145C90.7369 73.8228 94.6554 67.1769 96.7737 59.9244H97.3717C91.797 79.1516 74.0167 93.249 53.002 93.249Z" fill="#28282B"/>
<path d="M36.9028 38.0956H32.7163V55.5H36.9028V38.0956Z" fill="#28282B"/>
<path d="M46.4621 41.5196C46.8962 41.1898 47.4882 41.0239 48.2383 41.0239C48.9794 41.0239 49.5675 41.2198 50.0025 41.6095C50.4366 42.0013 50.6546 42.5499 50.6546 43.2585H54.8412C54.8412 42.2002 54.5661 41.2577 54.0171 40.4322C53.466 39.6067 52.6949 38.9711 51.7018 38.5264C50.7086 38.0797 49.5855 37.8558 48.3333 37.8558C47.0492 37.8558 45.894 38.0607 44.8639 38.4715C43.8357 38.8832 43.0396 39.4558 42.4776 40.1934C41.9155 40.9319 41.6344 41.7824 41.6344 42.7468C41.6344 44.6826 42.7636 46.2057 45.0199 47.313C45.713 47.6558 46.6071 48.0086 47.6993 48.3764C48.7924 48.7422 49.5545 49.0979 49.9905 49.4397C50.4246 49.7825 50.6416 50.2603 50.6416 50.8739C50.6416 51.4165 50.4406 51.8363 50.0385 52.1351C49.6355 52.4349 49.0874 52.5828 48.3933 52.5828C47.3082 52.5828 46.5251 52.362 46.044 51.9202C45.561 51.4785 45.3189 50.7899 45.3189 49.8575H41.1094C41.1094 51.0048 41.3984 52.0192 41.9765 52.8996C42.5546 53.7801 43.4147 54.4747 44.5598 54.9794C45.705 55.4861 46.9821 55.7379 48.3943 55.7379C50.3966 55.7379 51.9708 55.3042 53.121 54.4357C54.2691 53.5662 54.8422 52.3719 54.8422 50.8489C54.8422 48.944 53.901 47.45 52.0198 46.3656C51.2457 45.9189 50.2556 45.5021 49.0524 45.1154C47.8473 44.7306 47.0061 44.3548 46.5271 43.9921C46.049 43.6303 45.81 43.2255 45.81 42.7788C45.81 42.2691 46.026 41.8494 46.4621 41.5176V41.5196Z" fill="#28282B"/>
<path d="M69.9111 38.9082C68.754 38.2076 67.4378 37.8558 65.9636 37.8558C64.4714 37.8558 63.1412 38.2106 61.9731 38.9212C60.8049 39.6297 59.9078 40.6361 59.2827 41.9383C58.6557 43.2415 58.3436 44.7456 58.3436 46.4516V47.432C58.3756 49.075 58.7127 50.5281 59.3537 51.7953C59.9968 53.0625 60.8919 54.0379 62.0401 54.7195C63.1882 55.4001 64.5034 55.7409 65.9876 55.7409C67.4718 55.7409 68.792 55.3891 69.9531 54.6835C71.1133 53.978 72.0094 52.9716 72.6395 51.6654C73.2696 50.3592 73.5836 48.8571 73.5836 47.1591V46.3586C73.5756 44.6847 73.2506 43.1996 72.6095 41.9054C71.9664 40.6102 71.0683 39.6108 69.9121 38.9102L69.9111 38.9082ZM69.312 47.2291C69.304 48.9171 69.012 50.2133 68.4389 51.1137C67.8639 52.0132 67.0457 52.4649 65.9866 52.4649C64.8704 52.4649 64.0283 52.0062 63.4613 51.0887C62.8962 50.1733 62.6122 48.8621 62.6122 47.1561L62.6252 45.8779C62.7452 42.7218 63.8573 41.1438 65.9636 41.1438C67.0388 41.1438 67.8668 41.5915 68.4439 42.488C69.023 43.3844 69.312 44.6966 69.312 46.4266V47.2281V47.2291Z" fill="#28282B"/>
<path d="M87.6714 44.9904L85.9482 41.6145L84.316 45.0344L83.5969 45.1473L82.6558 45.2972L81.9927 45.4022L80.5695 45.6271L82.0417 47.0242L82.7038 47.6518V47.6538L83.3189 48.2375L82.7268 51.9802L83.3179 51.6604L86.0602 50.1723L89.4397 51.8922L88.7496 48.1665L91.4299 45.4852L87.6714 44.9904Z" fill="#28282B"/>
<path d="M23.353 45.1743L22.4119 45.0494L21.9569 44.9895L20.2356 41.6145L18.6014 45.0344L14.8569 45.628L17.6063 48.2384L17.0142 51.9812L20.3476 50.1733L22.6369 51.3395L23.6731 51.8662L23.7251 51.8932L23.5151 50.7589C23.4001 49.8205 23.327 48.8671 23.302 47.9026L23.9621 47.243L25.7164 45.4871L24.0171 45.2633L23.352 45.1763L23.353 45.1743Z" fill="#28282B"/>
</svg>
