<?xml version="1.0" encoding="utf-8"?>
<!-- Generator: Adobe Illustrator 25.0.0, SVG Export Plug-In . SVG Version: 6.00 Build 0)  -->
<svg version="1.1" id="Layer_1" xmlns="http://www.w3.org/2000/svg" xmlns:xlink="http://www.w3.org/1999/xlink" x="0px" y="0px"
	 viewBox="0 0 183 60" style="enable-background:new 0 0 183 60;" xml:space="preserve">
<style type="text/css">
	.st0{fill:#FBD5D6;}
	.st1{fill:#EF413E;}
	.st2{fill:#FEF1F1;}
	.st3{fill:#414142;}
	.st4{fill:#888989;}
</style>
<path class="st0" d="M68.9,27.2c-0.2-3,0.4-6,1.4-8.9c1.1-2.8,2.8-5.5,4.9-7.7c2.1-2.2,4.7-4,7.6-5.2c2.8-1.2,5.9-1.8,9-1.8
	c3.1,0,6.2,0.6,9,1.8c2.8,1.2,5.4,3,7.6,5.2c2.1,2.2,3.8,4.9,4.9,7.7c1.1,2.9,1.6,5.9,1.4,8.9c0,0.1-0.1,0.2-0.2,0.2
	c-0.1,0-0.2-0.1-0.2-0.2c-0.3-5.9-2.9-11.5-7-15.5c-4.1-4-9.8-6.3-15.5-6.2c-5.7,0-11.4,2.3-15.5,6.2c-4.1,4-6.7,9.6-7,15.5
	c0,0.1-0.1,0.2-0.2,0.2C69,27.4,68.9,27.3,68.9,27.2z"/>
<path class="st1" d="M91.8,9.1c-10.1,0-18.2,8.2-18.2,18.2s8.2,18.2,18.2,18.2c10.1,0,18.2-8.2,18.2-18.2S101.9,9.1,91.8,9.1z
	 M91.8,41.5c-7.8,0-14.2-6.3-14.2-14.2S84,13.1,91.8,13.1S106,19.5,106,27.3S99.6,41.5,91.8,41.5z"/>
<path class="st2" d="M91.8,1.6c7,0,13.5,2.2,18.9,6C105.8,2.9,99.1,0,91.8,0c-7.3,0-14,2.9-18.9,7.6C78.3,3.8,84.8,1.6,91.8,1.6z"/>
<path class="st3" d="M32.6,45.5h-7.8l-0.5-1.1l-7-15l-0.9-1.9l-2.6,5.6l-3.3,7l-2.5,5.3H0l16.3-34.7L32.6,45.5L32.6,45.5z"/>
<path class="st3" d="M66.8,18H55.6v27.5h-7.1V18H37.2V11h29.6L66.8,18L66.8,18z"/>
<path class="st3" d="M146,11l-15.9,34.6L114.2,11h7.7l8.2,17.7l8.1-17.7H146z"/>
<path class="st3" d="M182.2,45.5h-7.8l-0.5-1.1l-7-15l-0.9-1.9l-2.6,5.6l-3.3,7l-2.5,5.3h-7.8l16.3-34.7L182.2,45.5L182.2,45.5z"/>
<path class="st1" d="M3.6,59.2H3.1c-0.1,0-0.2-0.1-0.2-0.2v-9.5c0-0.1-0.1-0.1-0.2-0.1H0.4c-0.1,0-0.2-0.1-0.2-0.2v-0.4
	c0-0.1,0.1-0.2,0.2-0.2h6c0.1,0,0.2,0.1,0.2,0.2v0.4c0,0.1-0.1,0.2-0.2,0.2H3.9c-0.1,0-0.2,0-0.2,0.1V59C3.8,59.1,3.7,59.2,3.6,59.2
	L3.6,59.2z"/>
<path class="st1" d="M24.3,59.2h-5.1c-0.1,0-0.2-0.1-0.2-0.2V48.8c0-0.1,0.1-0.2,0.2-0.2h5.1c0.1,0,0.2,0.1,0.2,0.2v0.4
	c0,0.1-0.1,0.2-0.2,0.2H20c-0.1,0-0.2,0-0.2,0.1v3.8c0,0.1,0.1,0.1,0.2,0.1h3.8c0.1,0,0.2,0.1,0.2,0.2V54c0,0.1-0.1,0.2-0.2,0.2H20
	c-0.1,0-0.2,0-0.2,0.1v4c0,0.1,0.1,0.1,0.2,0.1h4.3c0.1,0,0.2,0.1,0.2,0.2V59C24.5,59.1,24.4,59.2,24.3,59.2z"/>
<path class="st1" d="M41.9,59.2h-2.1c-0.7,0-1.3-0.2-1.7-0.6c-0.4-0.4-0.6-1-0.6-1.7v-5.9c0-0.7,0.2-1.3,0.6-1.7
	c0.4-0.4,1-0.6,1.7-0.6h2.1c0.7,0,1.3,0.2,1.7,0.6c0.4,0.4,0.6,1,0.6,1.7v0.8c0,0.1-0.1,0.2-0.2,0.2h-0.5c-0.1,0-0.2-0.1-0.2-0.2
	v-0.8c0-0.5-0.1-0.9-0.4-1.2c-0.3-0.3-0.7-0.4-1.2-0.4h-1.9c-0.5,0-0.9,0.1-1.2,0.4c-0.3,0.3-0.4,0.7-0.4,1.2v5.9
	c0,0.5,0.1,0.9,0.4,1.2c0.3,0.3,0.7,0.4,1.2,0.4h1.9c0.5,0,0.9-0.1,1.2-0.4c0.3-0.3,0.4-0.7,0.4-1.2V56c0-0.1,0.1-0.2,0.2-0.2h0.5
	c0.1,0,0.2,0.1,0.2,0.2v0.8c0,0.7-0.2,1.3-0.6,1.7C43.2,59,42.7,59.2,41.9,59.2z"/>
<path class="st1" d="M58.1,59.2h-0.5c-0.1,0-0.2-0.1-0.2-0.2V48.8c0-0.1,0.1-0.2,0.2-0.2h0.5c0.1,0,0.2,0.1,0.2,0.2v4.5
	c0,0.1,0.1,0.1,0.2,0.1h4.6c0.1,0,0.2,0,0.2-0.1v-4.5c0-0.1,0.1-0.2,0.2-0.2h0.5c0.1,0,0.2,0.1,0.2,0.2V59c0,0.1-0.1,0.2-0.2,0.2
	h-0.5c-0.1,0-0.2-0.1-0.2-0.2v-4.7c0-0.1-0.1-0.1-0.2-0.1h-4.6c-0.1,0-0.2,0-0.2,0.1V59C58.3,59.1,58.2,59.2,58.1,59.2z"/>
<path class="st1" d="M78.3,59.2h-0.5c-0.1,0-0.2-0.1-0.2-0.2V48.8c0-0.1,0.1-0.2,0.2-0.2h0.4c0.1,0,0.2,0,0.2,0.1l5.1,8.7h0.1v-8.6
	c0-0.1,0.1-0.2,0.2-0.2h0.5c0.1,0,0.2,0.1,0.2,0.2V59c0,0.1-0.1,0.2-0.2,0.2h-0.4c-0.1,0-0.2-0.1-0.3-0.2l-5.1-8.7h-0.1V59
	C78.4,59.1,78.4,59.2,78.3,59.2L78.3,59.2z"/>
<path class="st1" d="M102.1,59.2h-2c-0.7,0-1.3-0.2-1.7-0.6c-0.4-0.4-0.6-1-0.6-1.7v-5.9c0-0.7,0.2-1.3,0.6-1.7
	c0.4-0.4,1-0.6,1.7-0.6h2c0.7,0,1.3,0.2,1.7,0.6c0.4,0.4,0.6,1,0.6,1.7v5.9c0,0.7-0.2,1.3-0.6,1.7C103.4,59,102.9,59.2,102.1,59.2z
	 M100.2,58.5h1.9c0.5,0,0.9-0.1,1.2-0.4c0.3-0.3,0.4-0.7,0.4-1.2v-5.9c0-0.5-0.1-0.9-0.4-1.2c-0.3-0.3-0.7-0.4-1.2-0.4h-1.9
	c-0.5,0-0.9,0.1-1.2,0.4c-0.3,0.3-0.4,0.7-0.4,1.2v5.9c0,0.5,0.1,0.9,0.4,1.2C99.3,58.3,99.7,58.5,100.2,58.5z"/>
<path class="st1" d="M123.3,59.2H118c-0.1,0-0.2-0.1-0.2-0.2V48.8c0-0.1,0.1-0.2,0.2-0.2h0.5c0.1,0,0.2,0.1,0.2,0.2v9.5
	c0,0.1,0.1,0.1,0.2,0.1h4.4c0.1,0,0.2,0.1,0.2,0.2V59C123.5,59.1,123.4,59.2,123.3,59.2z"/>
<path class="st1" d="M140.3,59.2h-2c-0.7,0-1.3-0.2-1.7-0.6c-0.4-0.4-0.6-1-0.6-1.7v-5.9c0-0.7,0.2-1.3,0.6-1.7
	c0.4-0.4,1-0.6,1.7-0.6h2c0.7,0,1.3,0.2,1.7,0.6c0.4,0.4,0.6,1,0.6,1.7v5.9c0,0.7-0.2,1.3-0.6,1.7C141.5,59,141,59.2,140.3,59.2z
	 M138.3,58.5h1.9c0.5,0,0.9-0.1,1.2-0.4c0.3-0.3,0.4-0.7,0.4-1.2v-5.9c0-0.5-0.1-0.9-0.4-1.2c-0.3-0.3-0.7-0.4-1.2-0.4h-1.9
	c-0.5,0-0.9,0.1-1.2,0.4c-0.3,0.3-0.4,0.7-0.4,1.2v5.9c0,0.5,0.1,0.9,0.4,1.2C137.4,58.3,137.8,58.5,138.3,58.5z"/>
<path class="st1" d="M159.9,59.2h-1.8c-0.7,0-1.3-0.2-1.7-0.6c-0.4-0.4-0.6-1-0.6-1.7v-5.9c0-0.7,0.2-1.3,0.6-1.7
	c0.4-0.4,1-0.6,1.7-0.6h1.8c0.7,0,1.3,0.2,1.7,0.6c0.4,0.4,0.6,1,0.6,1.7v0.7c0,0.1-0.1,0.2-0.2,0.2h-0.5c-0.1,0-0.2-0.1-0.2-0.2
	v-0.7c0-0.5-0.1-0.9-0.4-1.2s-0.7-0.4-1.2-0.4h-1.7c-0.5,0-0.9,0.1-1.2,0.4c-0.3,0.3-0.4,0.7-0.4,1.2v5.9c0,0.5,0.1,0.9,0.4,1.2
	c0.3,0.3,0.7,0.4,1.2,0.4h1.7c0.5,0,0.9-0.1,1.2-0.4c0.3-0.3,0.4-0.7,0.4-1.2v-2.2c0-0.1-0.1-0.1-0.1-0.1h-1.9
	c-0.1,0-0.2-0.1-0.2-0.2v-0.4c0-0.1,0.1-0.2,0.2-0.2h2.6c0.2,0,0.3,0.1,0.3,0.3v2.8c0,0.7-0.2,1.3-0.6,1.7
	C161.2,59,160.6,59.2,159.9,59.2z"/>
<path class="st1" d="M178.6,59.2h-0.5c-0.1,0-0.2-0.1-0.2-0.2v-3.8l-3.2-6.4c-0.1-0.1,0-0.2,0.1-0.2h0.6c0.1,0,0.2,0.1,0.2,0.2
	l2.6,5.4h0.1l2.6-5.4c0.1-0.1,0.1-0.2,0.2-0.2h0.6c0.1,0,0.2,0.1,0.1,0.2l-3.2,6.4V59C178.7,59.1,178.7,59.2,178.6,59.2L178.6,59.2z
	"/>
<path class="st3" d="M174.8,5.7V2.4h-1.3V1.5h3.6v0.9h-1.3v3.3H174.8z"/>
<path class="st3" d="M177.6,5.7V1.5h0.9l1.4,3h-0.2l1.4-3h0.9v4.1h-1V3.1h0.3l-1.2,2.5h-0.6l-1.2-2.5h0.3v2.5H177.6z"/>
<path class="st4" d="M101.4,19.1L101.4,19.1L101.4,19.1L101.4,19.1z"/>
<path class="st4" d="M92.6,16.5C92.6,16.5,92.6,16.5,92.6,16.5C92.6,16.5,92.6,16.5,92.6,16.5c0.1-0.1,0.2,0,0.2-0.1
	c0-0.1,0-0.1-0.1-0.2c0-0.3,0.4-0.3,0.6-0.5c-0.1-0.1-0.2,0-0.2,0c0-0.1,0-0.2-0.1-0.2c0.1-0.1,0.2,0.1,0.2,0c0-0.1,0-0.2,0-0.4
	c0-0.1,0-0.1,0.1-0.2c0.2,0,0.3-0.1,0.5-0.1c-0.4-0.2-0.8-0.1-1.3-0.2c0,0,0.1-0.1-0.1-0.2c-0.3-0.1-0.5-0.1-0.8-0.1
	c-0.7-0.1-1.3,0.1-1.9,0.2c-0.4,0.1-0.8,0.3-1.3,0.4c-0.3,0-0.5,0.2-0.8,0.2c-0.5,0-0.9,0.1-1.3,0.3c-0.4,0.1-0.8,0.3-1.1,0.5
	c-0.6,0.3-1.2,0.7-1.8,1.2c0.1,0,0.2,0,0.2,0c0.1,0,0.1,0,0.2,0.1c0,0,0,0-0.1,0c0,0-0.1,0-0.1,0c-0.2,0-0.4,0.1-0.4,0.3
	c0,0.2-0.1,0.1-0.2,0.1c-0.2,0-0.3,0.1-0.4,0.3c0.1,0,0.1,0,0.2,0c-0.2,0.1-0.3,0.3-0.5,0.4c0.2,0,0.4,0,0.5-0.1
	c0,0.1-0.1,0.2-0.2,0.2c-0.1,0-0.2,0.1-0.2,0.2c0,0.2-0.2,0.2-0.3,0.3c0-0.1,0.1-0.2,0.2-0.3c-0.1,0-0.1,0-0.1,0c0,0-0.1,0-0.1,0
	c0.1-0.2,0.2-0.4,0.3-0.5c-0.1,0-0.1,0-0.2,0c0,0,0,0,0,0c0,0,0,0,0,0c-0.2,0.1-0.3,0.2-0.5,0.4c0,0-0.1,0-0.1,0.1
	c-0.2,0.1-0.3,0.2-0.3,0.3c0,0.1,0,0.1-0.1,0.2c-0.3,0.1-0.4,0.3-0.5,0.6c-0.3,0.3-0.5,0.7-0.7,1c-0.2,0.3-0.4,0.6-0.5,0.9
	c0.8,0,1.7,0,2.5,0c-0.8,0-1.7,0-2.5,0c-0.2,0.3-0.3,0.6-0.4,0.9c-0.2,0.4-0.3,0.7-0.4,1.1c-0.1,0.3-0.2,0.6-0.3,0.9
	c-0.1,0.3,0,0.5,0.1,0.7c0,0,0.1,0.1,0,0.1c-0.2,0.2,0,0.2,0.1,0.3c0,0,0.1,0.1,0.1,0.1C78.8,26,79,26,79.1,26.1c0,0,0.1,0.1,0.1,0
	c0,0,0-0.1,0-0.1c-0.1-0.1-0.1-0.3-0.2-0.4c-0.1-0.2-0.1-0.4-0.3-0.5c-0.1,0-0.1-0.1,0-0.2c0-0.1,0.1,0,0.2,0c0,0.4,0.3,0.6,0.5,0.9
	c0.1,0.2,0.3,0.4,0.3,0.6c0,0.3,0.1,0.4,0.4,0.5c0.2,0.2,0.5,0.3,0.7,0.4c0.1,0,0.1,0,0.2,0c0.1-0.1,0.2,0,0.3,0.1
	c0.1,0.1,0.2,0.2,0.3,0.3c0.3,0.1,0.5,0.2,0.7,0.4c0.1,0.1,0,0.3,0.2,0.4c0.2,0.1,0.4,0.3,0.6,0.4c0.1,0.1,0.2,0.2,0.2-0.1
	c0-0.1,0-0.1,0.1-0.1c0.1,0,0.1,0.1,0.1,0.1c0.1,0.2,0.2,0.5,0.2,0.7c0,0.1,0,0.3-0.1,0.4c-0.1,0.2-0.3,0.4-0.3,0.7
	c0,0.2,0.2,0.4,0,0.7c0,0,0,0,0,0.1c0,0.2,0.2,0.3,0.3,0.5c0.2,0.4,0.3,0.8,0.6,1.1c0.1,0.4,0.3,0.5,0.6,0.7
	c0.3,0.2,0.5,0.4,0.5,0.8c0,0.2,0,0.4,0,0.6c0,0.2,0,0.5,0,0.7c0,0.2,0,0.3,0,0.5c0.1,0.2,0.1,0.5,0,0.7c0,0.1-0.1,0.2,0,0.4
	c0.1,0.2,0.1,0.4,0.1,0.7c0,0.1-0.1,0.3,0.2,0.2c0,0,0,0.1,0,0.1c-0.1,0.2-0.1,0.3,0,0.5c0,0,0.1,0.1,0,0.1c-0.1,0.1,0,0.1,0,0.2
	c0.2,0.6,0.6,1,1.1,1.3c0.1,0.1,0.3,0.1,0.5,0c-0.2-0.1-0.3-0.4-0.5-0.5c-0.1-0.2,0-0.3,0-0.4c0.2-0.2,0.2-0.2-0.1-0.3
	c-0.1,0-0.1-0.1-0.1-0.1c0-0.1,0-0.1,0.1-0.1c0.1,0,0.1-0.1,0.1-0.1c0-0.1,0-0.1,0.1-0.1c0,0,0.1,0,0.1-0.1c0-0.1,0-0.1-0.1-0.1
	c-0.1,0-0.1,0-0.1-0.1c0-0.1,0.1,0,0.1,0c0.1,0,0.2,0.1,0.2-0.1c0-0.2,0.1-0.2,0.3-0.2c0.3,0,0.4-0.1,0.3-0.4c0-0.1,0-0.2,0.1-0.2
	c0.3,0,0.3-0.2,0.4-0.3c0.1-0.1,0.1-0.2,0.2-0.3c0.1-0.2,0.3-0.4,0.3-0.7c0-0.4,0.3-0.8,0.7-0.8c0.2,0,0.3-0.1,0.4-0.2
	c0,0,0-0.1,0-0.1c0.2-0.4,0.3-0.9,0.3-1.4c0-0.3,0.2-0.5,0.4-0.7c0.1-0.1,0.2-0.2,0.2-0.3c0.1-0.2,0.1-0.4,0-0.7
	c0-0.2-0.2-0.1-0.3-0.2c-0.1-0.1-0.2-0.2-0.3-0.3c-0.1-0.1-0.3-0.2-0.5-0.2c-0.2,0-0.4-0.1-0.5-0.2c-0.2-0.2-0.3-0.3-0.6-0.3
	c-0.1,0-0.2-0.1-0.2-0.2c0-0.2-0.1-0.3-0.3-0.4c-0.1,0-0.1-0.1-0.1-0.2c0-0.2-0.2-0.3-0.3-0.5c-0.1-0.1-0.2-0.2-0.4-0.2
	c-0.3,0.1-0.4-0.1-0.5-0.3c-0.1-0.1-0.1-0.2-0.2-0.2c-0.1-0.1-0.3-0.2-0.2-0.5c-0.1,0.1-0.1,0.2-0.3,0c0-0.1-0.2-0.1-0.3,0
	c-0.1,0.1-0.1,0.1-0.2,0c0,0-0.1-0.1-0.1-0.1c-0.1,0-0.2,0-0.3-0.1c0-0.1-0.2-0.3-0.3,0c-0.1-0.2-0.1-0.3-0.3-0.1
	c0,0.1-0.1,0.1-0.2,0.1c-0.2,0-0.3,0.1-0.3,0.3c0,0.2-0.2,0.2-0.3,0.1c-0.1-0.1-0.2-0.1-0.3,0c-0.2,0.1-0.3,0-0.4-0.1
	c-0.1-0.1-0.1-0.3-0.1-0.4c0-0.1,0-0.2,0-0.3c0-0.1,0.2-0.2,0-0.3c-0.1-0.1-0.2-0.2-0.3-0.1c-0.4,0-0.4,0-0.3-0.4
	c0.1-0.2,0.1-0.4,0.2-0.6c0,0,0-0.1,0-0.1c-0.1-0.1-0.5,0.1-0.6,0.2c0,0.2-0.2,0.3-0.3,0.4c-0.1,0-0.2,0.1-0.3,0
	c-0.3-0.3-0.3-0.7-0.2-1.1c0.1-0.1,0.1-0.2,0.1-0.3c0-0.2,0.1-0.4,0.3-0.4c0.2-0.2,0.4-0.2,0.7-0.1c0.1,0,0.2,0,0.3-0.1
	c0.1-0.2,0.3-0.2,0.5-0.1c0,0,0.1,0.1,0.1,0c0.2-0.1,0.2,0.1,0.2,0.2c0,0.1,0,0.2,0,0.2c0.1,0.2,0.1,0.4-0.1,0.5
	c0.3,0,0.4-0.1,0.5-0.3c0-0.2,0-0.4-0.1-0.6c-0.1-0.3,0-0.4,0.2-0.6c0.2-0.1,0.3-0.3,0.5-0.4c0.1-0.1,0.3-0.1,0.3-0.3
	c0-0.1,0-0.2,0.1-0.3c0.1-0.2,0.2-0.3,0.2-0.5c0,0,0.1-0.1,0.1-0.1c0.3-0.1,0.4-0.2,0.4-0.5c0-0.1,0.2-0.2,0.3-0.3
	c0.2,0,0.3-0.2,0.5-0.2l0,0c0,0.1-0.1,0.1,0,0.2c0.1,0.1,0.2,0,0.2-0.1c0.1-0.1,0.2-0.1,0.3-0.2c0.1-0.1,0.3-0.2,0.4-0.2
	c0.1,0,0.1-0.1,0-0.2c0,0-0.1-0.1-0.1,0c-0.1,0.2-0.3,0-0.5,0c-0.2,0-0.1-0.1-0.1-0.2c0,0,0.1-0.1,0.1-0.2c-0.1-0.1-0.1,0-0.2,0
	c-0.1,0-0.1,0-0.2,0l0,0c0.2-0.3,0.2-0.3,0.5-0.1c0.1,0,0.2,0.1,0.3,0c0.1-0.1-0.1-0.1-0.2-0.1c0,0,0,0,0-0.1c0.3,0.1,0.6,0,0.8-0.2
	c0,0,0.1,0,0.1,0l0,0c-0.1,0.2-0.2,0.3-0.3,0.5c0,0.1-0.1,0.1,0,0.2c0,0.1,0.1,0,0.1,0c0.1,0,0.3,0,0.3,0c0.1,0.2,0.3,0,0.5,0.1
	c0,0,0.1,0,0.1-0.1c0.1-0.1-0.1-0.5-0.2-0.5c-0.2,0-0.2-0.1-0.2-0.2c0.1-0.2,0.1-0.4-0.1-0.6c-0.1-0.1-0.2-0.1-0.3-0.2
	c-0.1,0-0.2,0-0.2-0.1c0-0.3-0.3-0.4-0.4-0.6c-0.1-0.2-0.1-0.1-0.2,0c-0.1,0.1-0.1,0.2-0.3,0.3c-0.1,0-0.3,0-0.3-0.1
	c0-0.2-0.1-0.2-0.2-0.2c-0.3-0.2-0.5,0-0.7,0c-0.1,0-0.2,0-0.2,0.2c0,0.2,0,0.3-0.1,0.4c-0.1,0,0,0.1,0,0.1c0.2,0.1,0.1,0.2,0,0.3
	c-0.1,0.1-0.2,0.2-0.3,0.3c-0.1,0-0.1,0.1-0.1,0.2c0.1,0.2,0,0.3-0.1,0.4c-0.1,0.1-0.1,0-0.1,0c0.1-0.1-0.1-0.2-0.1-0.3
	c0-0.2-0.1-0.2-0.2-0.1c-0.1,0.1-0.3,0-0.4,0c-0.2-0.1-0.3-0.1-0.5,0c-0.2,0-0.2-0.2-0.3-0.2c0-0.1,0-0.1,0.1-0.2
	c0.1-0.2,0.2-0.3,0.4-0.4c0.1-0.1,0.2-0.1,0.3-0.2c0.1-0.1,0.2-0.2,0.4-0.2c0.2,0,0.3,0,0.4-0.1c0.1,0,0.1-0.1,0.2-0.1
	c0.1,0,0.2,0,0.2-0.1c0-0.1-0.2-0.1-0.3-0.1c0,0,0,0-0.1,0c0.1-0.1,0.2-0.3,0.4-0.4c0.1-0.1,0.2-0.2,0.1-0.3c0-0.1,0-0.1,0.1-0.1
	c0.1,0,0.1,0,0.1,0.1c0,0,0,0.1,0.1,0.1c0.2,0,0.4,0.1,0.6,0c0,0,0,0,0,0c-0.1,0.2-0.3,0.3-0.4,0.4c-0.1,0-0.2,0.1-0.1,0.2
	c0,0.1,0.2,0,0.2,0c0.2-0.1,0.3-0.1,0.5,0c0.3,0.2,0.6,0,1,0.1c-0.1-0.1-0.2-0.1-0.3-0.2c0.1,0,0.2,0,0.2,0c0.2,0.1,0.2-0.1,0.2-0.2
	c0-0.1,0-0.2-0.1-0.2c-0.1,0-0.2-0.1-0.1-0.2c0-0.1,0.1-0.1,0.2,0c0,0,0,0,0,0c0.1,0.1,0.5-0.1,0.5-0.3c0-0.1,0-0.1-0.1-0.1
	c-0.1,0-0.3-0.1-0.4-0.1c-0.1,0-0.2,0-0.1-0.1c0.1-0.2-0.1-0.2-0.2-0.2c-0.4,0-0.9-0.1-1.3,0l0,0c0.1-0.1,0.2-0.1,0.2-0.2
	c0.1-0.2,0.3-0.4,0.5-0.5c0.2-0.1,0.3-0.2,0.4-0.4c0.1,0,0.2-0.1,0.3-0.1c0.2-0.1,0.4-0.4,0.7-0.2c-0.3,0.1-0.6,0.3-0.9,0.4
	c0.1,0.2,0.3,0.2,0.5,0.2c0.1,0,0.3-0.1,0.4-0.1c0.4-0.2,0.7-0.1,0.9,0.2c0,0,0,0.1,0,0.1c0,0.2,0,0.3,0.3,0.2c0.1,0,0.1,0,0.2,0.1
	c0,0-0.1,0-0.1,0c-0.1,0-0.2,0.1-0.2,0.2c0,0,0,0.1,0,0.1c0.1,0.1,0.2,0,0.2,0c0.1,0,0.1-0.1,0.2-0.1c0,0.1-0.1,0.2-0.2,0.2
	c-0.2,0.1-0.3,0.2-0.2,0.4c0.1,0.4,0.3,0.7,0.7,0.9c0,0,0.1,0,0.1,0c0.1-0.1,0.2,0,0.3,0.1c0.1,0.1,0.2,0.1,0.3,0
	c0.1-0.3,0.3-0.5,0.4-0.8c0.1-0.2,0.2-0.2,0.4-0.3c0.2,0,0.4-0.1,0.5-0.2c0.2-0.2,0.4-0.3,0.7-0.3C92.1,16.8,92.4,16.7,92.6,16.5
	C92.7,16.5,92.7,16.5,92.6,16.5L92.6,16.5z M82.3,19C82.3,19,82.3,19,82.3,19C82.3,19,82.3,19,82.3,19z M82.8,22.6
	C82.8,22.6,82.8,22.6,82.8,22.6C82.8,22.6,82.8,22.6,82.8,22.6z M83.9,22.3c0,0.1-0.1,0.1-0.1,0.1C83.9,22.3,83.9,22.3,83.9,22.3z
	 M82.9,19.2C83,19.2,83,19.2,82.9,19.2C83,19.2,83,19.2,82.9,19.2z M83.2,18C83.2,18,83.2,18,83.2,18C83.2,18,83.2,18,83.2,18z
	 M83.2,18C83.2,18.1,83.2,18.1,83.2,18C83.2,18.1,83.2,18.1,83.2,18z"/>
<path class="st4" d="M105.1,26.7c0-0.3,0-0.5-0.1-0.8c0-0.1,0-0.1-0.1-0.1c-0.2,0.1-0.4,0.1-0.5-0.1c-0.1-0.1-0.1-0.1-0.2-0.2
	c-0.1-0.1-0.1-0.2-0.2-0.2c0-0.1-0.1-0.1-0.1-0.2c0,0,0.1-0.1,0.1-0.1c0.1,0,0.1,0.1,0.2,0.1c0.1,0.2,0.3,0.3,0.5,0.4
	c0.2,0.1,0.3,0,0.2-0.2c0-0.2-0.1-0.4-0.1-0.6c-0.1-0.4-0.2-0.8-0.4-1.2c0-0.1,0-0.2,0-0.2c-0.2-0.4-0.3-0.8-0.5-1.2
	c-0.2-0.4-0.4-0.7-0.5-1.1c-0.3-0.5-0.6-1.1-1.1-1.6c-0.3-0.1-0.7,0-0.8-0.4c0,0-0.1-0.1-0.1-0.1v0.1h0c-0.1,0-0.2,0-0.3,0
	c-0.1,0-0.2-0.1-0.3-0.1c-0.2,0-0.3-0.1-0.3-0.3c0.1,0,0.2,0.1,0.3,0.2c0.1,0,0.2,0.1,0.3,0c0.1-0.1-0.1-0.2-0.2-0.2
	c-0.4-0.4-1-0.6-1.4-1c-0.3-0.3-0.8-0.3-1.2-0.4c-0.2,0-0.4-0.1-0.6,0.1c0.1,0.1,0.2,0.1,0,0.2c-0.1,0-0.1,0.1-0.2,0.1
	c-0.1,0.1-0.2,0.2-0.4,0.2c-0.4,0-0.5,0.2-0.3,0.6c0,0,0,0,0,0c0.1,0.3,0.3,0.3,0.6,0.2c0.1,0,0.2-0.1,0.2,0
	c0.1,0.2,0.2,0.3,0.3,0.4c-0.2,0.1-0.2,0-0.3-0.1c0-0.1,0-0.1-0.2-0.1c-0.2,0-0.2,0.1-0.1,0.3c0.1,0.2,0.1,0.3-0.2,0.3
	c-0.1,0-0.2,0.1-0.3,0.2c-0.2,0.2-0.4,0.4-0.6,0.5c-0.1,0-0.2-0.1-0.2,0c-0.1,0.2-0.2,0.1-0.3,0.1c-0.1,0-0.1,0-0.1,0.1
	c0,0.1,0,0.1,0.1,0.1c0.2,0,0.3,0.2,0.5,0.4c0,0,0,0,0,0.1c0.1,0.4,0,0.5-0.4,0.4c-0.2,0-0.4-0.1-0.5-0.1c-0.2,0-0.3,0-0.2,0.3
	c0,0.1,0,0.2,0,0.3c-0.1,0.2,0,0.4,0,0.6c0,0.1,0.1,0.2,0.2,0.1c0.2-0.1,0.2,0.1,0.3,0.2c0,0.3-0.1,0.5-0.3,0.6
	c-0.1,0.1-0.2,0.2-0.2,0.3c-0.1,0-0.1,0.1,0,0.2c0,0.2-0.1,0.3-0.2,0.5c-0.1,0.1-0.3,0.1-0.3,0.2c-0.2,0.2-0.3,0.5-0.4,0.8
	c-0.1,0.2-0.3,0.4-0.2,0.6c0,0.2,0.1,0.3,0.2,0.5c-0.1,0.1,0,0.2,0,0.3c-0.1,0.3-0.2,0.6-0.1,0.9c0,0.2,0,0.4,0.2,0.5
	c0.2,0.1,0.3,0.3,0.4,0.5c0,0.1,0,0.1,0.1,0.2c0.3,0.1,0.4,0.3,0.7,0.5c0.1,0.1,0.2,0.1,0.4,0c0.1-0.1,0.3-0.1,0.5-0.1
	c0.2,0.1,0.4,0,0.6-0.1c0.1-0.1,0.2-0.1,0.2-0.1c0.3-0.1,0.4-0.1,0.6,0.2c0,0.1,0.1,0.2,0.2,0.1c0.4-0.1,0.5,0,0.5,0.4
	c-0.1,0.4-0.3,0.8,0.1,1.1c0.1,0.2,0.1,0.3,0.2,0.5c0.1,0.2,0,0.5,0.1,0.7c0,0.2,0,0.3-0.1,0.5c-0.4,0.5-0.4,1.1-0.1,1.7
	c0,0.1,0,0.2,0,0.2c0,0.3-0.1,0.5,0,0.8c0.1,0.3,0.2,0.5,0.1,0.8c0,0.1,0.1,0.2,0.2,0.2c0.2-0.1,0.5-0.2,0.7-0.3
	c0.6-0.3,0.9-0.9,1.3-1.4c0-0.1,0-0.2,0.1-0.2c0.4-0.2,0.6-0.5,0.5-0.9c0-0.1,0-0.1,0.1-0.1c0.2-0.2,0.3-0.4,0.6-0.5
	c0.2-0.2,0.4-0.3,0.4-0.7c0.2-0.3,0-0.7,0.1-1c0,0,0-0.1-0.1-0.1c0.1-0.4,0.4-0.7,0.6-1c0.2-0.2,0.4-0.4,0.6-0.6
	c0.2-0.2,0.4-0.4,0.4-0.7c0.1-0.3,0.4-0.6,0.3-0.9c-0.2,0.1-0.5,0.1-0.7,0.2c-0.3,0.1-0.4,0-0.3-0.3c0,0,0,0,0,0c0,0,0,0,0,0
	c0.4-0.1,0.8-0.3,1.2-0.5c0.1,0,0.1-0.2,0.2-0.2C105.1,27.1,105.1,27.1,105.1,26.7L105.1,26.7z M100,22.8
	C100,22.8,100,22.8,100,22.8C100,22.8,100,22.8,100,22.8z M99.5,22.5c0,0.1,0,0.1,0,0.1C99.5,22.6,99.5,22.6,99.5,22.5z M101.9,22.3
	C101.9,22.3,101.9,22.3,101.9,22.3C101.9,22.2,101.9,22.2,101.9,22.3C101.9,22.2,101.9,22.2,101.9,22.3
	C101.9,22.3,101.9,22.3,101.9,22.3z M99.2,18.9C99.3,18.9,99.3,18.9,99.2,18.9C99.3,18.9,99.3,18.9,99.2,18.9z"/>
<path class="st4" d="M95.7,19.8c-0.2,0,0,0.3-0.1,0.3c0.2,0.1,0,0.2,0,0.3c0.3-0.1,0.6,0,0.9-0.1c0.1,0,0.1-0.1,0.1-0.2
	c0-0.1,0-0.1,0-0.2c-0.2-0.1-0.3-0.3-0.5-0.5c-0.1-0.1-0.2-0.1-0.1-0.2C96,19,95.8,19,95.7,19c0-0.1,0.1-0.1,0.1-0.2
	c-0.1-0.1-0.1,0-0.2,0c-0.1,0-0.1,0-0.1,0.1c-0.1,0.1-0.1,0.1-0.2,0c0-0.1-0.1,0-0.1,0c0,0,0,0.2,0,0.1c0.2-0.1,0.2,0.1,0.2,0.2
	c0,0.1,0,0.1,0.1,0.2c0.2,0,0.2,0.2,0.4,0.2C95.8,19.7,95.8,19.8,95.7,19.8z"/>
<path class="st4" d="M95.4,19.4L95.4,19.4L95.4,19.4L95.4,19.4L95.4,19.4z"/>
<path class="st4" d="M103.6,31.9C103.6,31.9,103.6,32,103.6,31.9c-0.3,0.3-0.4,0.5-0.6,0.7c-0.2,0.1-0.3,0.3-0.3,0.5
	c0,0.1,0,0.2-0.1,0.3c-0.1,0.1-0.2,0.3-0.2,0.5c0,0.2,0.1,0.2,0.2,0.1c0.2-0.1,0.3-0.2,0.4-0.4c0.2-0.4,0.4-0.8,0.7-1.2
	c0.1-0.2,0.1-0.3,0.2-0.5C103.7,32,103.7,32,103.6,31.9z"/>
<path class="st4" d="M84.3,26.5c0-0.1,0-0.1-0.1-0.1c-0.1-0.1-0.3-0.1-0.3-0.2c0.3,0,0.3-0.2,0.2-0.4c0,0,0-0.1,0-0.1
	c0.1-0.3,0-0.2-0.2-0.1c0,0,0,0,0,0c0-0.1-0.1-0.1-0.2-0.1c-0.1,0,0,0.1-0.1,0.2c0,0.2,0,0.3,0.1,0.5c-0.1,0-0.2,0-0.2,0
	c-0.2-0.1-0.4,0-0.6,0.1c0,0-0.1,0.1-0.1,0.1c0.1,0.1,0.3,0.2,0.4,0.1c0.1-0.1,0.2-0.1,0.3,0c0.2,0.3,0.4,0.3,0.7,0.3
	C84.3,26.5,84.3,26.5,84.3,26.5L84.3,26.5z"/>
<path class="st4" d="M94.1,17.5c0-0.1-0.1-0.2-0.2-0.2c-0.1,0-0.1,0-0.2,0c-0.2,0-0.5,0.1-0.7,0c-0.1-0.1-0.2-0.1-0.3,0
	c-0.1,0.1,0.2,0.1,0.1,0.2c0.2,0.1,0.4,0.3,0.7,0.3c0.2,0,0.3-0.1,0.5-0.1C93.9,17.7,94.1,17.6,94.1,17.5z"/>
<path class="st4" d="M96.9,15.9c0.3,0.1,0.4,0.3,0.6,0.5c0.1,0,0.2,0.1,0.2,0c0.1-0.1,0.2,0,0.3,0c0.1,0.1,0.2,0.2,0.4,0.2
	c0-0.1-0.2-0.1-0.1-0.2l0,0c0.1,0,0.2,0.1,0.3,0c-0.3-0.2-0.6-0.3-0.9-0.4c-0.2-0.1-0.5-0.1-0.7-0.2c0,0-0.1-0.1-0.2,0
	C96.8,15.8,96.9,15.9,96.9,15.9z"/>
<path class="st4" d="M95,20.1c0.2,0,0.4,0,0.4-0.2c0.1-0.1,0.1-0.4,0-0.5c-0.1,0-0.2-0.1-0.3,0c-0.1,0.1-0.4,0.2-0.2,0.4
	c0,0,0,0,0,0.1C94.7,20,94.8,20.1,95,20.1z"/>
<path class="st4" d="M84.5,26.9c0.2,0.1,0.5-0.1,0.7-0.1c0.1,0,0.1,0,0.1-0.1c0-0.1,0-0.1-0.1-0.1c-0.2-0.1-0.3-0.3-0.5-0.2
	c-0.1,0-0.2,0-0.2,0.1c0,0.1,0,0.1-0.1,0.1c0,0-0.1,0-0.1,0.1C84.3,26.9,84.4,26.9,84.5,26.9z"/>
<path class="st4" d="M102,19.1c-0.1,0-0.1,0.1-0.1,0.1c0.1,0.1,0.2,0.3,0.4,0.3c0-0.1-0.1-0.2-0.1-0.2
	C102.1,19.2,102.1,19.1,102,19.1L102,19.1z"/>
<path class="st4" d="M87.9,40c-0.1,0-0.1,0-0.2,0.1c0,0.1,0.1,0.1,0.2,0.1c0.1,0,0.2,0,0.2-0.1C88.1,40,88,40,87.9,40z"/>
<path class="st4" d="M83.9,25.3C84,25.3,84,25.3,83.9,25.3c0.1-0.2,0-0.2-0.1-0.2c-0.1,0-0.1,0-0.1,0.1
	C83.7,25.3,83.8,25.3,83.9,25.3z"/>
<path class="st4" d="M83.9,26.8c-0.1,0-0.1,0-0.1,0.1c0,0.1,0.1,0.1,0.2,0.1c0,0,0.1,0,0.1-0.1C84,26.8,83.9,26.8,83.9,26.8
	L83.9,26.8z"/>
<path class="st4" d="M85.6,26.8c-0.1,0-0.1,0-0.1,0.1c0,0.1,0.1,0,0.1,0.1c0.1,0,0.1,0,0.1-0.1C85.7,26.7,85.6,26.8,85.6,26.8z"/>
<path class="st4" d="M101.4,19.1L101.4,19.1L101.4,19.1L101.4,19.1z"/>
<path class="st4" d="M101.3,19.1C101.4,19.1,101.4,19.1,101.3,19.1C101.4,19.1,101.4,19.1,101.3,19.1z"/>
<path class="st4" d="M102.4,19.6C102.4,19.6,102.4,19.6,102.4,19.6C102.4,19.6,102.4,19.6,102.4,19.6
	C102.4,19.6,102.4,19.6,102.4,19.6L102.4,19.6z"/>
<path class="st4" d="M102.3,19.5C102.3,19.5,102.3,19.5,102.3,19.5C102.3,19.5,102.3,19.5,102.3,19.5z"/>
</svg>
