<svg width="98" height="340" viewBox="0 0 98 340" fill="none" xmlns="http://www.w3.org/2000/svg">
<path d="M-37.1562 317.571L-19.1719 317.812L-19.0479 317.814L-18.9551 317.896L-10.1621 325.701L28.1201 326.217L31.5879 322.842C31.505 322.684 31.4399 322.512 31.3994 322.329C31.1528 321.213 31.8582 320.109 32.9746 319.863C34.091 319.616 35.1966 320.321 35.4434 321.437C35.6898 322.553 34.9842 323.657 33.8682 323.904C33.3507 324.018 32.8365 323.926 32.4082 323.685L28.6904 327.303L28.5908 327.4L28.4531 327.398L-8.81738 326.896L-5.07129 330.221L11.9307 330.449L12.0547 330.451L12.1475 330.533L17.2686 335.078C17.589 334.905 17.957 334.809 18.3467 334.815C19.5654 334.832 20.5418 335.835 20.5254 337.052C20.5087 338.269 19.5037 339.246 18.2861 339.23C17.0685 339.213 16.0912 338.211 16.1074 336.992C16.1112 336.717 16.1658 336.453 16.2617 336.211L11.4697 331.958L-5.53125 331.73L-5.65527 331.728L-5.74805 331.646L-19.6328 319.322L-37.1777 319.085L-37.5107 319.081L-37.5059 318.747L-37.4941 317.899L-37.4893 317.566L-37.1562 317.571ZM18.3369 335.481C18.1544 335.478 17.9788 335.509 17.8154 335.565L17.9746 335.705C18.0895 335.676 18.2106 335.661 18.335 335.662C19.084 335.673 19.6873 336.29 19.6768 337.04C19.6659 337.789 19.0469 338.391 18.2969 338.381C17.5477 338.37 16.9448 337.753 16.9551 337.003C16.9559 336.947 16.9604 336.891 16.9678 336.837L16.8076 336.695C16.7862 336.793 16.7749 336.896 16.7734 337.001C16.7622 337.851 17.4449 338.552 18.2949 338.564C19.1449 338.575 19.8467 337.892 19.8584 337.043C19.8699 336.194 19.1878 335.492 18.3369 335.481ZM18.8467 336.926L18.2822 337.56L18.1602 337.696C18.2073 337.706 18.2564 337.714 18.3066 337.715C18.6879 337.72 19.0039 337.413 19.0098 337.032C19.011 336.947 18.9939 336.866 18.9668 336.79L18.8467 336.926ZM17.8633 336.498C17.8177 336.538 17.7763 336.582 17.7422 336.632L18.0059 336.866L18.126 336.732L17.8633 336.498ZM17.2256 335.932C17.1828 335.975 17.143 336.02 17.1055 336.068L17.2422 336.189C17.2793 336.141 17.3184 336.095 17.3613 336.053L17.2256 335.932ZM-5.39844 331.064L11.6045 331.294L11.7285 331.295L11.8203 331.378L16.6064 335.625C16.6448 335.578 16.6856 335.534 16.7275 335.49L11.7969 331.115L-5.2041 330.886L-5.32812 330.884L-5.4209 330.802L-9.83691 326.882L-10.1143 326.878L-5.39844 331.064ZM-36.835 318.423L-19.499 318.657L-19.375 318.658L-19.2822 318.74L-10.9795 326.111L-10.9775 326.025L-10.9756 325.871L-19.3057 318.477L-36.833 318.24L-36.835 318.423ZM34.792 321.58C34.6247 320.824 33.8753 320.346 33.1182 320.513C32.361 320.68 31.8827 321.43 32.0498 322.186C32.0621 322.241 32.0783 322.295 32.0967 322.348L33.0078 321.462L33.2461 321.231L33.4785 321.469L33.834 321.832L34.0674 322.072L33.8281 322.304L32.916 323.191C33.1649 323.287 33.4435 323.314 33.7236 323.252C34.4808 323.085 34.9589 322.336 34.792 321.58ZM-37.0918 312.721L-11.7109 313.062L-11.5869 313.063L-11.4941 313.146L-2.62305 321.02L10.0342 321.19L19.0234 313.634L19.1182 313.554L19.2422 313.556L47.8389 313.941L47.9766 313.943L48.0732 314.041L51.2266 317.278C51.6497 317.016 52.1489 316.866 52.6826 316.873C54.1743 316.894 55.372 318.122 55.3516 319.614C55.331 321.105 54.1016 322.301 52.6094 322.281C51.1176 322.26 49.9199 321.032 49.9404 319.54C49.9478 319.008 50.111 318.513 50.3838 318.098L47.4736 315.111L19.54 314.735L11.833 321.214L18.8516 321.309L20.8672 319.613C20.7138 319.242 20.631 318.834 20.6367 318.408C20.6596 316.725 22.0489 315.374 23.7334 315.396C25.4182 315.418 26.7711 316.807 26.749 318.49C26.7266 320.175 25.337 321.526 23.6523 321.504C23.0677 321.496 22.5246 321.322 22.0635 321.03L19.6113 323.092L19.5166 323.172L19.3926 323.17L-3.21484 322.866L-3.33887 322.865L-3.43164 322.782L-12.3027 314.907L-37.1172 314.574L-37.4502 314.571L-37.4453 314.237L-37.4297 313.049L-37.4248 312.716L-37.0918 312.721ZM19.1855 321.899L19.0908 321.979L18.9668 321.977L11.0527 321.87L10.4434 322.382L19.2773 322.502L21.5312 320.606C21.4085 320.483 21.2978 320.349 21.1973 320.206L19.1855 321.899ZM-36.7754 313.911L-12.1689 314.242L-12.0449 314.244L-11.9521 314.326L-3.08105 322.2L9.62891 322.371L9.42969 322.135L9.21484 321.879L9.25391 321.846L-2.75586 321.685L-2.87988 321.684L-2.97266 321.601L-11.8447 313.726L-36.7676 313.391L-36.7754 313.911ZM52.666 318.048C52.46 318.045 52.2626 318.084 52.082 318.156L53.0684 319.167L53.3008 319.406L53.0615 319.638L52.6973 319.994L52.458 320.227L52.2256 319.988L51.2393 318.975C51.1622 319.154 51.119 319.351 51.1162 319.557C51.1049 320.399 51.7826 321.094 52.626 321.106C53.4687 321.117 54.1641 320.44 54.1758 319.598C54.1873 318.756 53.5094 318.06 52.666 318.048ZM23.7246 316.063C22.4074 316.045 21.3214 317.103 21.3037 318.418C21.3003 318.675 21.3379 318.923 21.4102 319.156L21.8555 318.782C21.8345 318.667 21.8236 318.547 21.8252 318.425C21.8388 317.395 22.6883 316.57 23.7178 316.583C24.7478 316.597 25.5737 317.446 25.5605 318.475C25.547 319.505 24.6975 320.33 23.668 320.317C23.4506 320.314 23.243 320.272 23.0498 320.2L22.6064 320.573C22.9238 320.735 23.281 320.832 23.6611 320.837C24.9783 320.854 26.0645 319.797 26.082 318.482C26.0993 317.166 25.0416 316.08 23.7246 316.063ZM21.708 319.777C21.8053 319.921 21.9191 320.054 22.0449 320.174L22.4463 319.837C22.3167 319.721 22.2033 319.587 22.1104 319.439L21.708 319.777ZM23.709 317.249C23.1164 317.242 22.6168 317.667 22.5117 318.23L23.0947 317.74L23.3496 317.527L23.5645 317.782L24.3301 318.69L24.5449 318.945L24.2891 319.159L23.707 319.649C24.3557 319.641 24.886 319.117 24.8945 318.466C24.9029 317.805 24.3707 317.258 23.709 317.249ZM22.627 319.004C22.7087 319.16 22.8248 319.295 22.9639 319.402L23.6045 318.864L23.2686 318.465L22.627 319.004ZM14.7031 308.351L37.0176 308.652L37.1416 308.653L37.2344 308.736L40.5635 311.69L58.2178 311.927C58.5124 310.512 59.7799 309.455 61.2783 309.475C62.9784 309.497 64.3438 310.898 64.3203 312.598C64.2967 314.297 62.8957 315.661 61.1953 315.638C59.6961 315.618 58.4584 314.526 58.2021 313.103L40.2334 312.862L40.1094 312.861L40.0166 312.778L36.6875 309.822L15.001 309.53L10.4492 313.359L10.3535 313.438L10.2295 313.437L-3.85742 313.246L-3.98145 313.245L-4.07422 313.162L-7.69531 309.949L-37.0498 309.555L-37.3828 309.55L-37.3779 309.217L-37.3711 308.708L-37.3662 308.375L-37.0332 308.379L-7.36426 308.779L-7.24023 308.78L-7.14746 308.863L-3.52832 312.075L9.93164 312.256L14.4844 308.429L14.5791 308.349L14.7031 308.351ZM61.2627 310.65C60.4163 310.638 59.6899 311.183 59.4307 311.944L59.5518 311.945C59.8054 311.248 60.479 310.753 61.2607 310.763C62.2498 310.776 63.0435 311.591 63.0312 312.579C63.0189 313.569 62.2017 314.362 61.2129 314.349C60.4299 314.338 59.7718 313.824 59.5371 313.12L59.4141 313.119C59.652 313.887 60.364 314.452 61.2109 314.463H61.2119C62.2639 314.477 63.1308 313.633 63.1445 312.582C63.1581 311.531 62.3149 310.664 61.2627 310.65ZM61.0527 313.141C61.1086 313.159 61.167 313.171 61.2285 313.172C61.2896 313.173 61.3483 313.162 61.4043 313.146L61.2295 313.144L61.0527 313.141ZM61.5742 312.306L61.5674 312.815L61.5635 313.076C61.7353 312.969 61.8516 312.78 61.8545 312.564C61.8574 312.347 61.7464 312.154 61.5771 312.041L61.5742 312.306ZM61.2451 311.938C61.1822 311.937 61.122 311.948 61.0645 311.965L61.2451 311.968L61.4258 311.97C61.3686 311.951 61.3082 311.939 61.2451 311.938ZM74.666 297.071C75.7407 297.071 76.6123 297.941 76.6123 299.016C76.6121 300.09 75.7406 300.961 74.666 300.961C73.8836 300.961 73.2106 300.499 72.9014 299.833L54.583 299.586L49.7852 303.621L49.6904 303.701L49.5664 303.699L10.7744 303.178L10.6504 303.177L10.5576 303.094L8.25879 301.055L-31.835 300.515L-32.168 300.51L-32.1631 300.177L-32.1494 299.159L-32.1445 298.826L-31.8115 298.831L8.78613 299.376L8.91016 299.378L9.00293 299.46L11.2998 301.5L49.085 302.008L53.8848 297.975L53.9795 297.895L54.1035 297.897L72.9238 298.149C73.2429 297.51 73.903 297.071 74.666 297.071ZM49.4189 302.599L49.3242 302.678L49.2002 302.677L11.167 302.166L11.043 302.164L10.9502 302.081L8.65137 300.041L-31.4873 299.501L-31.4932 299.852L8.39258 300.39L8.5166 300.392L8.60938 300.474L10.9072 302.513L49.4512 303.032L54.25 298.997L54.3447 298.917L54.4688 298.919L72.7266 299.163C72.7229 299.115 72.7197 299.066 72.7197 299.016C72.7197 298.947 72.7226 298.879 72.7295 298.813L54.2178 298.564L49.4189 302.599ZM-31.752 294.406L-6.34375 294.747L-6.21973 294.748L-6.12695 294.831L-2.68164 297.889L45.0898 298.532C45.3269 297.969 45.8851 297.575 46.5342 297.574C47.3984 297.575 48.0996 298.275 48.0996 299.139C48.0994 300.003 47.3983 300.703 46.5342 300.703C45.8706 300.703 45.3039 300.29 45.0762 299.707L-3.01074 299.061L-3.13477 299.059L-3.22754 298.977L-6.67383 295.917L-31.7676 295.58L-32.0996 295.576L-32.0957 295.243L-32.0898 294.735L-32.0859 294.401L-31.752 294.406ZM74.666 297.737C74.2889 297.737 73.9501 297.9 73.7158 298.159L74.6777 298.173L75.0107 298.178L75.0059 298.511L74.9922 299.529L74.9873 299.862L74.6543 299.858L73.6914 299.844C73.9262 300.119 74.2756 300.294 74.666 300.294C75.3729 300.294 75.9461 299.722 75.9463 299.016C75.9463 298.31 75.373 297.737 74.666 297.737ZM46.5342 298.24C46.2669 298.241 46.027 298.357 45.8623 298.542L46.543 298.552L46.876 298.556L46.8721 298.89L46.8652 299.399L46.8604 299.732L46.5273 299.727L45.8477 299.717C46.0126 299.912 46.2587 300.036 46.5342 300.036C47.0306 300.036 47.4324 299.634 47.4326 299.139C47.4326 298.643 47.0307 298.241 46.5342 298.24ZM73.4014 298.823C73.3918 298.886 73.3857 298.95 73.3857 299.016C73.3858 299.069 73.3901 299.122 73.3965 299.173L74.3291 299.186L74.335 298.835L73.4014 298.823ZM17.8057 289.381C18.6874 289.381 19.4023 290.096 19.4023 290.978C19.4021 291.859 18.6873 292.573 17.8057 292.574C17.124 292.573 16.5437 292.146 16.3145 291.545L2.54199 291.361L5.30859 293.816L53.9258 294.47L58.2354 290.847L58.3311 290.768L58.4551 290.769L97.3037 291.291L97.6377 291.295L97.6328 291.629L97.626 292.138L97.6211 292.472L97.2881 292.467L58.752 291.948L54.4434 295.572L54.3486 295.652L54.2246 295.651L4.97852 294.988L4.85449 294.986L4.76172 294.904L0.743164 291.336L-32.0391 290.896L-32.0225 289.721L1.04297 290.165L1.11035 290.09L1.19727 290.167L16.3281 290.37C16.5674 289.79 17.1388 289.381 17.8057 289.381ZM25.2656 281.496L39.8105 281.692L39.9316 281.694L40.0234 281.773L44.7471 285.847L97.3682 286.556L97.7012 286.561L97.6963 286.894L97.6807 288.081L97.6758 288.414L97.3428 288.409L44.1689 287.696L44.0479 287.694L43.9561 287.615L39.2305 283.538L25.8057 283.357L22.1016 286.47L25.7217 289.683L33.0645 289.782C33.475 288.542 34.655 287.653 36.0303 287.671C37.7274 287.694 39.0898 289.092 39.0674 290.789C39.0448 292.487 37.6449 293.847 35.9473 293.824C34.5734 293.806 33.4191 292.886 33.041 291.636L25.1309 291.531L25.0068 291.529L24.9141 291.447L20.3262 287.374L-31.6494 286.676L-31.9824 286.671L-31.9775 286.338L-31.9619 285.151L-31.957 284.818L-31.624 284.822L20.3516 285.521L25.0469 281.574L25.1416 281.494L25.2656 281.496ZM36.0215 288.338C35.0191 288.325 34.1498 288.927 33.7744 289.792L34.3555 289.8C34.688 289.23 35.3089 288.85 36.0146 288.86C37.057 288.874 37.8935 289.732 37.8789 290.775C37.8641 291.817 37.0061 292.652 35.9629 292.638C35.2574 292.628 34.6469 292.232 34.3301 291.654L33.751 291.646C34.1039 292.52 34.9558 293.144 35.9561 293.157C37.2865 293.175 38.3827 292.109 38.4004 290.781C38.418 289.452 37.3506 288.356 36.0215 288.338ZM36.0049 289.526C35.701 289.521 35.4209 289.629 35.2041 289.811L36.001 289.823L36.334 289.826L36.3301 290.16L36.3135 291.347L36.3096 291.681L35.9756 291.676L35.1797 291.665C35.3915 291.852 35.6684 291.968 35.9727 291.972C36.6473 291.981 37.2034 291.439 37.2129 290.765C37.2222 290.091 36.6805 289.535 36.0049 289.526ZM17.8057 290.047C17.5187 290.047 17.2617 290.177 17.0908 290.381L18.1465 290.396L18.1309 291.571L17.0762 291.556C17.2469 291.77 17.5103 291.907 17.8057 291.907C18.3196 291.907 18.7361 291.491 18.7363 290.978C18.7363 290.465 18.3197 290.047 17.8057 290.047ZM34.7969 290.472C34.7773 290.556 34.7659 290.643 34.7646 290.733C34.7634 290.822 34.772 290.909 34.7891 290.992L35.6514 291.004L35.6582 290.484L34.7969 290.472ZM33.5947 290.455C33.5844 290.541 33.5783 290.627 33.5771 290.715C33.576 290.803 33.5798 290.89 33.5879 290.976L34.1143 290.983C34.1037 290.898 34.0974 290.811 34.0986 290.723C34.0999 290.634 34.109 290.547 34.1221 290.462L33.5947 290.455ZM21.1816 287.242L25.2637 290.865L32.918 290.967C32.9119 290.881 32.909 290.794 32.9102 290.706C32.9113 290.619 32.9165 290.532 32.9248 290.447L25.5889 290.349L25.4648 290.347L25.3721 290.265L21.585 286.904L21.1816 287.242ZM21.2041 285.674L21.5977 286.023L25.4727 282.768L25.5674 282.688L25.6914 282.69L39.3613 282.873L39.4824 282.875L39.5742 282.954L44.2988 287.03L97.0176 287.739L97.0254 287.218L44.6182 286.513L44.4971 286.511L44.4043 286.432L39.6797 282.357L25.3799 282.163L21.2041 285.674ZM-31.3076 286.013L20.7773 286.713L21.0811 286.457L20.7842 286.194L-31.2998 285.492L-31.3076 286.013ZM5.21484 277.497L54.46 278.158L54.584 278.16L54.6768 278.242L58.8867 281.98L68.4473 282.108C68.6937 281.491 69.3 281.058 70.0039 281.068C70.9155 281.08 71.6463 281.829 71.6338 282.74C71.621 283.651 70.8697 284.382 69.959 284.369C69.2553 284.36 68.6598 283.909 68.4307 283.284L58.5576 283.152L58.4336 283.15L58.3408 283.068L54.1289 279.33L5.51074 278.675L2.87598 280.892L11.6865 281.01C12.0222 280 12.9829 279.274 14.1035 279.289C15.4873 279.308 16.5997 280.449 16.5801 281.832C16.5619 283.101 15.6002 284.137 14.373 284.285V284.312L14.0352 284.307C12.9158 284.292 11.9744 283.543 11.666 282.525L-31.918 281.939L-31.8975 280.424L1.07812 280.867L4.99609 277.575L5.09082 277.495L5.21484 277.497ZM14.0947 279.956C13.3485 279.946 12.6997 280.384 12.4014 281.02L12.6006 281.023C12.8837 280.49 13.4479 280.129 14.0918 280.138C15.0074 280.151 15.7429 280.905 15.7305 281.821C15.7179 282.736 14.9626 283.47 14.0469 283.458C13.4047 283.45 12.8514 283.076 12.582 282.537L12.3809 282.534C12.6598 283.17 13.2887 283.622 14.0264 283.639L14.0449 283.64C15.0605 283.654 15.8986 282.838 15.9131 281.823C15.9275 280.808 15.1109 279.97 14.0947 279.956ZM70.3184 282.467L70.3115 282.977L70.3096 283.059C70.3979 282.974 70.455 282.856 70.457 282.724C70.4588 282.591 70.4059 282.47 70.3193 282.382L70.3184 282.467ZM14.083 280.804C13.8373 280.801 13.6105 280.887 13.4346 281.033L14.4131 281.047L14.3926 282.562L13.418 282.548C13.5893 282.697 13.8117 282.789 14.0557 282.792C14.6036 282.8 15.0559 282.359 15.0635 281.812C15.071 281.265 14.631 280.812 14.083 280.804ZM13.0742 281.784C13.0738 281.815 13.0748 281.846 13.0771 281.876L13.7344 281.886L13.7373 281.703L13.0791 281.694C13.0759 281.723 13.0746 281.754 13.0742 281.784ZM12.2266 281.774C12.2261 281.804 12.2284 281.835 12.2295 281.865L12.4102 281.867C12.4089 281.837 12.4068 281.806 12.4072 281.776C12.4076 281.745 12.4101 281.715 12.4121 281.685L12.2314 281.683C12.2295 281.713 12.227 281.743 12.2266 281.774ZM1.88477 281.726L11.5625 281.856C11.5618 281.826 11.5591 281.795 11.5596 281.765C11.56 281.734 11.5639 281.704 11.5654 281.673L2.09766 281.546L1.88477 281.726ZM-31.2432 281.282L0.730469 281.711L0.673828 281.644L0.574219 281.526L-31.2402 281.099L-31.2432 281.282ZM49.2168 272.457C50.272 272.471 51.1305 273.287 51.2217 274.315L51.2295 274.523C51.2139 275.646 50.2867 276.548 49.1621 276.533C48.2421 276.521 47.4703 275.899 47.2285 275.058L-2.36523 274.39L-5.89062 277.355L-5.98535 277.435L-6.10938 277.433L-31.5195 277.091L-31.8525 277.087L-31.8477 276.753L-31.8408 276.245L-31.8359 275.911L-31.5029 275.916L-6.4082 276.254L-2.88184 273.289L-2.78613 273.209L-2.66211 273.211L47.2441 273.882C47.5082 273.047 48.2963 272.446 49.2168 272.457ZM8.03711 253.138C9.23896 253.154 10.2035 254.144 10.1885 255.345C10.1731 256.547 9.18072 257.51 7.97949 257.495H7.97852C7.54269 257.489 7.13871 257.354 6.80078 257.128L3.82812 259.683L7.7041 263.122L45.4375 263.63L48.8467 260.765L48.9414 260.685L49.0654 260.687L66.7568 260.924C67.0143 260.183 67.7229 259.655 68.5498 259.665C69.5827 259.679 70.4119 260.529 70.3975 261.561C70.3845 262.477 69.7115 263.232 68.8369 263.379V263.412L68.499 263.407C67.6716 263.397 66.9769 262.848 66.7402 262.1L49.3623 261.866L45.9551 264.731L45.8604 264.811L45.7363 264.809L15.1797 264.398L15.249 264.459L18.2871 267.157L38.5879 267.43C38.905 266.635 39.6864 266.076 40.5918 266.088C41.7646 266.104 42.7057 267.07 42.6904 268.242C42.6795 269.073 42.19 269.785 41.4893 270.125L54.7598 270.304L54.8838 270.306L54.9766 270.388L59.665 274.55L86.0713 274.905C86.3107 274.344 86.8706 273.954 87.5186 273.962C88.3744 273.974 89.0601 274.678 89.0488 275.533C89.0371 276.389 88.3329 277.073 87.4775 277.062C86.8295 277.053 86.2799 276.648 86.0557 276.08L59.335 275.721L59.2109 275.719L59.1182 275.637L54.4287 271.475L11.6162 270.899L9.26562 272.877L9.1709 272.957L9.04688 272.955L-31.457 272.411L-31.79 272.407L-31.7852 272.074L-31.7783 271.565L-31.7734 271.232L-31.4404 271.236L8.74805 271.776L11.1006 269.798L11.1963 269.718L11.3203 269.72L39.585 270.1C39.1163 269.856 38.751 269.444 38.5674 268.945L17.8271 268.666L17.7031 268.664L17.6104 268.582L14.5713 265.885L-15.2949 265.483L-18.2822 267.995L-18.377 268.075L-18.501 268.074L-31.3955 267.901L-31.7285 267.896L-31.7236 267.563L-31.7119 266.714L-31.707 266.381L-31.374 266.385L-18.9219 266.552L-15.9326 264.041L-15.8379 263.961L-15.7139 263.963L7.22559 264.27L7.15723 264.209L2.70898 260.261L-2.83008 260.186L-6.53418 263.302L-6.62988 263.382L-6.75391 263.38L-36.4229 262.982L-36.7559 262.977L-36.751 262.644L-36.7441 262.135L-36.7393 261.802L-36.4062 261.806L-7.05176 262.199L-3.3457 259.086L-3.25098 259.006L-3.12695 259.008L2.7207 259.086L6.03516 256.238C5.8997 255.949 5.82378 255.627 5.82812 255.287C5.84486 254.086 6.83539 253.123 8.03711 253.138ZM87.5098 274.628C87.2478 274.625 87.011 274.736 86.8467 274.914L87.5059 274.924L87.8389 274.929L87.835 275.262L87.8281 275.771L87.8232 276.105L87.4902 276.1L86.8301 276.09C86.9898 276.274 87.2238 276.392 87.4863 276.396C87.9745 276.402 88.3763 276.011 88.3828 275.524C88.3889 275.037 87.9976 274.635 87.5098 274.628ZM49.2012 273.633C48.9524 273.63 48.7264 273.733 48.5664 273.9L49.1973 273.908L49.5312 273.913L49.5264 274.246L49.5195 274.755L49.5146 275.088L49.1816 275.084L48.5518 275.075C48.7073 275.246 48.9303 275.355 49.1787 275.359C49.6545 275.365 50.0471 274.982 50.0537 274.508C50.0601 274.034 49.6765 273.64 49.2012 273.633ZM40.583 266.754C40.0556 266.747 39.5889 267.023 39.3262 267.44L39.5459 267.443C39.7833 267.131 40.1594 266.931 40.5801 266.937C41.2858 266.946 41.8521 267.526 41.8428 268.232C41.8333 268.937 41.2528 269.503 40.5469 269.493C40.1245 269.488 39.7533 269.277 39.5244 268.957L39.3057 268.954C39.5568 269.378 40.0154 269.667 40.543 269.674C41.3485 269.685 42.0129 269.038 42.0234 268.234C42.0338 267.43 41.3878 266.765 40.583 266.754ZM40.9033 267.795L40.8916 268.643L40.8896 268.731C41.0588 268.624 41.1728 268.438 41.1758 268.223C41.1786 268.009 41.0704 267.819 40.9043 267.707L40.9033 267.795ZM39.9512 268.206C39.9508 268.237 39.955 268.267 39.959 268.296L40.2295 268.3L40.2314 268.119L39.9619 268.115C39.957 268.145 39.9516 268.175 39.9512 268.206ZM39.1016 268.195C39.1012 268.225 39.1031 268.255 39.1045 268.284L39.2871 268.287C39.2854 268.258 39.2838 268.228 39.2842 268.198C39.2846 268.167 39.2875 268.137 39.29 268.107L39.1074 268.104C39.1052 268.134 39.102 268.164 39.1016 268.195ZM-18.5879 267.143L-18.6826 267.223L-18.8066 267.221L-31.0508 267.056L-31.0527 267.238L-18.6162 267.405L-15.6279 264.894L-15.5332 264.814L-15.4092 264.816L14.7051 265.22L14.8291 265.222L14.9219 265.304L17.96 268L38.4385 268.276C38.4376 268.246 38.4352 268.216 38.4355 268.186C38.436 268.155 38.4397 268.125 38.4414 268.095L18.1543 267.823L18.0303 267.821L17.9375 267.739L14.8975 265.04L-15.5996 264.63L-18.5879 267.143ZM68.541 260.331C68.0899 260.326 67.6933 260.569 67.4814 260.934L67.6943 260.937C67.8835 260.676 68.1923 260.509 68.5381 260.513H68.5391C69.103 260.522 69.5553 260.985 69.5479 261.55C69.5403 262.115 69.0748 262.567 68.5107 262.56C68.1647 262.555 67.8616 262.378 67.6797 262.113L67.4648 262.11C67.6635 262.474 68.0449 262.726 68.4873 262.74L68.5088 262.74C69.1732 262.75 69.7209 262.216 69.7305 261.552C69.7398 260.889 69.2062 260.34 68.541 260.331ZM68.8555 261.667C68.8712 261.628 68.8812 261.586 68.8818 261.541C68.8824 261.497 68.8738 261.455 68.8594 261.415L68.8555 261.667ZM-2.22461 249.408L24.2529 249.764L24.377 249.766L24.4697 249.848L27.3252 252.382C27.6662 252.213 28.0507 252.119 28.457 252.124C29.822 252.143 30.9179 253.268 30.8994 254.632C30.8805 255.996 29.7551 257.091 28.3906 257.073C27.0258 257.054 25.93 255.929 25.9482 254.565C25.952 254.285 26.0036 254.017 26.0928 253.768L23.6602 251.61L12.7705 251.463L20.3027 258.149L36.8027 258.37L40.9834 254.855C40.7371 254.41 40.5982 253.897 40.6055 253.353C40.6282 251.681 42.0059 250.342 43.6777 250.365C45.3495 250.387 46.6902 251.764 46.668 253.435C46.6453 255.105 45.2674 256.445 43.5957 256.423C42.8936 256.414 42.2512 256.163 41.7422 255.754L37.3203 259.472L37.2256 259.552L37.1016 259.55L19.9736 259.32L19.8496 259.318L19.7568 259.236L10.9717 251.439L-1.68457 251.269L-10.7627 258.903L-10.8574 258.982L-10.9814 258.981L-36.3633 258.64L-36.6963 258.635L-36.6914 258.302L-36.6758 257.115L-36.6709 256.782L-36.3379 256.785L-11.5225 257.118L-2.44336 249.487L-2.34863 249.407L-2.22461 249.408ZM-11.1885 257.709L-11.2832 257.788L-11.4072 257.787L-36.0137 257.456L-36.0215 257.977L-11.0967 258.312L-2.01758 250.68L-1.92285 250.6L-1.79883 250.602L10.21 250.763L10.1729 250.73L10.3945 250.48L10.6006 250.246L-2.11035 250.075L-11.1885 257.709ZM28.4482 252.791C28.2499 252.789 28.0584 252.817 27.8789 252.874L28.374 253.314C28.396 253.313 28.4182 253.311 28.4404 253.312C29.1504 253.321 29.7193 253.906 29.71 254.615C29.7003 255.326 29.1147 255.894 28.4053 255.885C27.7347 255.876 27.1904 255.353 27.1396 254.698L26.6484 254.261C26.6292 254.362 26.6167 254.467 26.6152 254.574C26.602 255.569 27.4023 256.392 28.3994 256.406C29.3965 256.419 30.2187 255.618 30.2324 254.622C30.2457 253.627 29.4454 252.805 28.4482 252.791ZM8.02246 254.313C7.46941 254.305 7.01256 254.751 7.00488 255.303C7.00445 255.336 7.00409 255.369 7.00684 255.402L7.87695 254.656L8.64355 255.546L7.77539 256.291C7.8459 256.308 7.91968 256.318 7.99512 256.319C8.54803 256.326 9.0052 255.882 9.0127 255.329C9.01996 254.778 8.57524 254.321 8.02246 254.313ZM43.6611 251.539C42.6384 251.526 41.7961 252.347 41.7812 253.368C41.7777 253.618 41.8243 253.857 41.9111 254.075L42.0693 253.942C42.0071 253.764 41.9729 253.572 41.9756 253.372C41.9881 252.455 42.742 251.722 43.6592 251.735C44.5764 251.747 45.3102 252.5 45.2979 253.417C45.2855 254.334 44.5316 255.067 43.6143 255.055C43.3271 255.051 43.0581 254.974 42.8242 254.843L42.6699 254.974C42.9448 255.142 43.2662 255.243 43.6113 255.247C44.6347 255.261 45.4786 254.44 45.4922 253.418C45.5053 252.397 44.6843 251.554 43.6611 251.539ZM28.3271 255.207C28.3557 255.212 28.3844 255.218 28.4141 255.218C28.7564 255.223 29.0392 254.948 29.0439 254.607C29.0448 254.545 29.0336 254.486 29.0176 254.43L28.3271 255.207ZM28.1758 254.03C28.0102 254.102 27.8832 254.244 27.8301 254.419L28.001 254.571L28.3467 254.181L28.1758 254.03ZM43.6504 252.401C43.101 252.393 42.6492 252.833 42.6416 253.381C42.6413 253.407 42.6429 253.434 42.6445 253.459L43.2588 252.944L43.5137 252.73L43.7275 252.985L44.0557 253.374L44.2705 253.629L44.0156 253.844L43.4004 254.36C43.4719 254.377 43.5463 254.388 43.623 254.389C44.1726 254.396 44.6244 253.957 44.6318 253.408C44.6392 252.86 44.1998 252.408 43.6504 252.401ZM11.9775 232.782C13.6044 232.804 14.911 234.146 14.8896 235.772C14.8681 237.398 13.5251 238.703 11.8984 238.682C11.2825 238.674 10.7126 238.476 10.2432 238.146L5.59668 242.052L5.50195 242.131L5.37793 242.13L-3.88379 242.005L-7.7207 245.23L35.7773 245.816C36.0223 245.173 36.6438 244.715 37.373 244.715C38.316 244.715 39.0817 245.479 39.082 246.422C39.082 247.365 38.3162 248.13 37.373 248.13C36.629 248.13 35.9969 247.654 35.7627 246.99L-9.0957 246.387L-18.0938 253.952L-18.1895 254.032L-18.3135 254.031L-36.2988 253.788L-36.6318 253.784L-36.627 253.45L-36.6152 252.603L-36.6104 252.27L-36.2773 252.275L-18.7324 252.509L-4.52148 240.563L-4.42676 240.484L-4.30273 240.485L4.95898 240.609L9.26953 236.986C9.08411 236.593 8.98024 236.155 8.98633 235.693C9.00791 234.066 10.3508 232.761 11.9775 232.782ZM27.2598 253.217C27.1267 253.329 27.0103 253.46 26.9141 253.606L27.3076 253.955C27.3958 253.803 27.5149 253.671 27.6553 253.567L27.2598 253.217ZM-18.3994 253.1L-18.4941 253.18L-18.6182 253.178L-35.9541 252.946L-35.9561 253.126L-18.4287 253.362L-9.90234 246.194L-9.89941 245.953L-18.3994 253.1ZM12.0088 250.786L23.7939 250.946L23.918 250.947L24.0107 251.03L26.4111 253.159C26.5128 253.018 26.6293 252.888 26.7578 252.771L24.1191 250.429L11.4121 250.257L12.0088 250.786ZM37.373 245.381C37.0201 245.381 36.708 245.557 36.5195 245.825L37.7148 245.842L37.6982 247.017L36.5059 247C36.6927 247.28 37.0115 247.463 37.373 247.463C37.9485 247.463 38.415 246.997 38.415 246.422C38.4147 245.848 37.9483 245.381 37.373 245.381ZM5.29297 241.199L5.19824 241.279L5.07422 241.278L-4.1875 241.153L-9.01855 245.213L-8.74023 245.216L-4.2168 241.415L-4.12207 241.335L-3.99805 241.337L5.2627 241.461L9.74121 237.696C9.70087 237.651 9.65962 237.606 9.62207 237.559L5.29297 241.199ZM11.9688 233.449C10.7093 233.433 9.67004 234.444 9.65332 235.701C9.64944 235.996 9.70315 236.277 9.80176 236.537L9.9502 236.413C9.87374 236.191 9.83165 235.953 9.83496 235.704C9.85067 234.545 10.8069 233.616 11.9668 233.631C13.1263 233.647 14.0564 234.602 14.041 235.761C14.0253 236.92 13.0699 237.849 11.9102 237.834C11.5525 237.829 11.2169 237.734 10.9238 237.573L10.7773 237.696C11.1093 237.892 11.4946 238.009 11.9072 238.015C13.1665 238.031 14.206 237.02 14.2227 235.763C14.2391 234.505 13.2276 233.466 11.9688 233.449ZM10.1338 237.128C10.171 237.176 10.2102 237.222 10.251 237.267L10.3896 237.151C10.3487 237.106 10.3095 237.06 10.2725 237.012L10.1338 237.128ZM11.957 234.297C11.1652 234.287 10.5128 234.922 10.502 235.713C10.5009 235.789 10.5071 235.864 10.5176 235.937L11.4502 235.154L11.7051 234.939L11.9189 235.194L12.4658 235.842L12.6807 236.098L12.4248 236.312L11.4912 237.096C11.626 237.14 11.7698 237.165 11.9189 237.167C12.711 237.178 13.3645 236.542 13.375 235.751C13.3852 234.961 12.749 234.308 11.957 234.297ZM10.7832 236.582C10.8193 236.631 10.8576 236.678 10.8994 236.722L11.7402 236.016L11.623 235.877L10.7832 236.582ZM-37.2158 201.18L-19.2305 201.421L-19.1064 201.423L-19.0137 201.505L-10.2207 209.311L28.0605 209.825L31.5293 206.451C31.4462 206.293 31.3794 206.122 31.3389 205.939C31.0922 204.823 31.7979 203.718 32.9141 203.472C34.0305 203.226 35.1362 203.93 35.3828 205.046C35.6292 206.162 34.9238 207.267 33.8076 207.513C33.2904 207.627 32.7768 207.535 32.3486 207.294L28.6309 210.911L28.5312 211.008L28.3936 211.006L-8.87695 210.504L-5.13184 213.828L11.8721 214.059L11.9961 214.061L12.0889 214.143L17.209 218.687C17.5294 218.514 17.8966 218.417 18.2861 218.422C19.5038 218.439 20.481 219.442 20.4648 220.659C20.4483 221.877 19.4435 222.854 18.2256 222.837C17.0079 222.821 16.0305 221.818 16.0469 220.6C16.0506 220.324 16.1072 220.062 16.2031 219.82L11.4111 215.567L-5.58984 215.339L-5.71387 215.337L-5.80664 215.255L-19.6924 202.93L-37.2363 202.694L-37.5693 202.69L-37.5645 202.356L-37.5537 201.509L-37.5498 201.175L-37.2158 201.18ZM18.2764 219.088C18.0941 219.086 17.919 219.116 17.7559 219.172L17.916 219.315C18.0305 219.285 18.1506 219.269 18.2744 219.271C19.0235 219.282 19.6266 219.899 19.6162 220.649C19.6056 221.398 18.9867 222 18.2363 221.99C17.4871 221.979 16.884 221.362 16.8945 220.612C16.8953 220.555 16.8998 220.5 16.9072 220.446L16.748 220.303C16.7267 220.402 16.7143 220.504 16.7129 220.609C16.7014 221.458 17.3843 222.159 18.2344 222.171C19.0847 222.183 19.7863 221.5 19.7979 220.651C19.8092 219.802 19.1265 219.1 18.2764 219.088ZM18.7871 220.533L18.2236 221.168L18.1006 221.306C18.1475 221.317 18.1961 221.323 18.2461 221.324C18.6277 221.329 18.9436 221.021 18.9492 220.64C18.9504 220.555 18.9335 220.474 18.9062 220.399L18.7871 220.533ZM17.8047 220.108C17.7587 220.147 17.716 220.191 17.6816 220.241L17.9463 220.476L18.0664 220.34L17.8047 220.108ZM17.165 219.54C17.1224 219.583 17.0833 219.629 17.0459 219.676L17.1816 219.797C17.2189 219.749 17.2586 219.704 17.3018 219.661L17.165 219.54ZM-5.45703 214.673L11.5449 214.903L11.6699 214.904L11.7627 214.987L16.5469 219.234C16.5852 219.187 16.626 219.142 16.668 219.099L11.7402 214.724L-5.2627 214.494L-5.38672 214.492L-5.47949 214.41L-9.89551 210.49L-10.1738 210.487L-5.45703 214.673ZM-36.8945 202.032L-19.5586 202.265L-19.4346 202.267L-19.3418 202.349L-11.0381 209.72L-11.0361 209.634L-11.0342 209.48L-19.3643 202.086L-36.8916 201.85L-36.8945 202.032ZM34.7314 205.19C34.5643 204.434 33.8157 203.956 33.0586 204.122C32.3013 204.289 31.8221 205.039 31.9893 205.795C32.0016 205.851 32.0177 205.905 32.0361 205.957L32.9492 205.071L33.1885 204.838L33.4209 205.077L33.7754 205.442L34.0078 205.681L33.7695 205.913L32.8564 206.8C33.1052 206.896 33.3842 206.923 33.6641 206.862C34.4209 206.694 34.8983 205.946 34.7314 205.19ZM-37.1514 196.329L-11.7705 196.671L-11.6465 196.672L-11.5537 196.755L-2.68262 204.628L9.97363 204.798L18.9639 197.241L19.0586 197.161L19.1826 197.163L47.7793 197.548L47.918 197.55L48.0137 197.649L51.168 200.887C51.591 200.625 52.0896 200.475 52.623 200.483C54.1148 200.503 55.3125 201.731 55.292 203.223C55.2713 204.714 54.042 205.91 52.5498 205.89C51.0583 205.869 49.8605 204.641 49.8809 203.15C49.8882 202.617 50.0521 202.122 50.3252 201.706L47.4141 198.718L19.4805 198.342L11.7715 204.823L18.792 204.917L20.8076 203.223C20.6537 202.851 20.5705 202.444 20.5762 202.017C20.5989 200.333 21.9884 198.982 23.6729 199.004C25.3578 199.027 26.7107 200.415 26.6885 202.099C26.666 203.783 25.2766 205.135 23.5918 205.113C23.0077 205.105 22.4657 204.93 22.0049 204.638L19.5518 206.7L19.457 206.781L19.333 206.779L-3.27441 206.475L-3.39844 206.473L-3.49121 206.391L-12.3623 198.517L-37.1768 198.183L-37.5098 198.178L-37.5049 197.845L-37.4893 196.657L-37.4844 196.324L-37.1514 196.329ZM19.126 205.507L19.0312 205.587L18.9072 205.585L10.9912 205.479L10.3818 205.99L19.2178 206.111L21.4727 204.214C21.3499 204.091 21.2382 203.958 21.1377 203.816L19.126 205.507ZM-36.835 197.52L-12.2285 197.852L-12.1045 197.854L-12.0117 197.936L-3.14062 205.809L9.56836 205.98L9.36914 205.743L9.1543 205.489L9.19434 205.454L-2.81543 205.293L-2.93945 205.292L-3.03223 205.209L-11.9043 197.335L-36.8271 196.999L-36.835 197.52ZM52.6064 201.657C52.4007 201.655 52.2038 201.693 52.0234 201.765L53.0078 202.776L53.2402 203.015L53.001 203.247L52.6357 203.602L52.3975 203.834L52.165 203.595L51.1807 202.584C51.1036 202.763 51.0595 202.96 51.0566 203.166C51.0454 204.008 51.7233 204.703 52.5664 204.715C53.4091 204.726 54.1044 204.049 54.1162 203.207C54.1277 202.365 53.4499 201.669 52.6064 201.657ZM23.6641 199.671C22.3469 199.654 21.2608 200.711 21.2432 202.027C21.2398 202.284 21.279 202.532 21.3516 202.765L21.7959 202.392C21.775 202.276 21.764 202.156 21.7656 202.034C21.7791 201.004 22.6287 200.179 23.6582 200.193C24.6884 200.206 25.5143 201.055 25.501 202.084C25.4875 203.114 24.638 203.939 23.6084 203.926C23.3906 203.923 23.1827 203.881 22.9893 203.81L22.5479 204.182C22.8647 204.344 23.2212 204.44 23.6006 204.446C24.9178 204.463 26.0039 203.406 26.0215 202.09C26.0389 200.774 24.9812 199.689 23.6641 199.671ZM21.6494 203.385C21.7468 203.53 21.8604 203.662 21.9863 203.782L22.3867 203.446C22.2573 203.329 22.1436 203.196 22.0508 203.048L21.6494 203.385ZM23.6494 200.859C23.0569 200.851 22.5581 201.276 22.4531 201.839L23.0361 201.35L23.292 201.136L23.5059 201.391L24.2705 202.299L24.4844 202.554L24.2295 202.769L23.6475 203.257C24.2964 203.25 24.8265 202.726 24.835 202.075C24.8435 201.414 24.3113 200.867 23.6494 200.859ZM22.5674 202.614C22.6491 202.77 22.7653 202.904 22.9043 203.011L23.5449 202.473L23.21 202.074L22.5674 202.614ZM14.6445 191.96L36.959 192.26L37.083 192.261L37.1758 192.344L40.5039 195.299L58.1582 195.535C58.4527 194.12 59.7211 193.064 61.2197 193.083C62.9207 193.106 64.2852 194.507 64.2617 196.206C64.2387 197.852 62.9229 199.184 61.2949 199.244L61.1367 199.246C59.6378 199.226 58.3993 198.135 58.1426 196.712L40.1748 196.47L40.0508 196.469L39.958 196.386L36.6279 193.431L14.9414 193.139L10.3887 196.967L10.2939 197.046L10.1699 197.045L-3.91699 196.856L-4.04102 196.855L-4.13379 196.772L-7.75391 193.558L-37.1084 193.163L-37.4414 193.158L-37.4365 192.825L-37.4297 192.317L-37.4248 191.984L-37.0918 191.988L-7.42383 192.387L-7.2998 192.388L-7.20703 192.471L-3.58691 195.684L9.87305 195.865L14.4258 192.038L14.5205 191.958L14.6445 191.96ZM61.2041 194.258C60.3577 194.246 59.6313 194.791 59.3721 195.552L59.4922 195.553C59.7459 194.856 60.4193 194.362 61.2012 194.371C62.1909 194.384 62.984 195.2 62.9717 196.188C62.9593 197.177 62.1421 197.971 61.1533 197.957C60.3702 197.947 59.7113 197.433 59.4766 196.729L59.3555 196.728C59.5935 197.496 60.3055 198.06 61.1523 198.072C62.2047 198.085 63.072 197.241 63.0859 196.191C63.0996 195.14 62.2562 194.273 61.2041 194.258ZM60.9951 196.75C61.0507 196.768 61.1088 196.781 61.1699 196.782C61.2308 196.782 61.2889 196.771 61.3447 196.755L61.1699 196.753L60.9951 196.75ZM61.5146 195.914L61.5078 196.424L61.5039 196.686C61.676 196.578 61.793 196.39 61.7959 196.173C61.7988 195.956 61.687 195.763 61.5176 195.651L61.5146 195.914ZM61.1865 195.547C61.1243 195.546 61.0647 195.557 61.0078 195.574L61.1855 195.576L61.3652 195.578C61.3085 195.56 61.249 195.548 61.1865 195.547ZM74.6064 180.679C75.6812 180.679 76.5527 181.55 76.5527 182.624C76.5524 183.699 75.681 184.57 74.6064 184.57C73.8244 184.569 73.152 184.107 72.8428 183.442L54.5234 183.196L49.7246 187.23L49.6299 187.31L49.5059 187.308L10.7148 186.786L10.5908 186.785L10.498 186.702L8.19922 184.663L-31.8945 184.124L-32.2275 184.119L-32.2227 183.786L-32.21 182.77L-32.2061 182.436L-31.8721 182.441L8.72559 182.986L8.84961 182.988L8.94141 183.07L11.2402 185.109L49.0254 185.617L53.8242 181.583L53.9189 181.503L54.043 181.505L72.8652 181.757C73.1842 181.118 73.8436 180.679 74.6064 180.679ZM49.3594 186.207L49.2646 186.287L49.1406 186.286L11.1074 185.775L10.9834 185.773L10.8906 185.691L8.59082 183.651L-31.5479 183.111L-31.5527 183.461L8.33203 183.998L8.45605 184L8.54883 184.082L10.8477 186.121L49.3906 186.64L54.1904 182.607L54.2852 182.527L54.4092 182.529L72.668 182.773C72.6643 182.724 72.6602 182.674 72.6602 182.624C72.6602 182.556 72.664 182.488 72.6709 182.421L54.1572 182.172L49.3594 186.207ZM-31.8115 178.014L-6.40332 178.355L-6.2793 178.356L-6.18652 178.439L-2.74121 181.496L45.0322 182.14C45.2696 181.578 45.8268 181.184 46.4756 181.184C47.3397 181.184 48.041 181.884 48.041 182.748C48.0407 183.612 47.3395 184.312 46.4756 184.313C45.8115 184.313 45.245 183.898 45.0176 183.315L-3.07129 182.669L-3.19531 182.667L-3.28809 182.585L-6.7334 179.526L-31.8281 179.189L-32.1611 179.185L-32.1562 178.851L-32.1494 178.342L-32.1445 178.009L-31.8115 178.014ZM74.6064 181.345C74.2295 181.345 73.8914 181.509 73.6572 181.768L74.6182 181.782L74.9512 181.786L74.9463 182.119L74.9326 183.137L74.9277 183.47L74.5947 183.466L73.6338 183.452C73.8685 183.727 74.2166 183.902 74.6064 183.903C75.3133 183.903 75.8864 183.33 75.8867 182.624C75.8867 181.918 75.3135 181.345 74.6064 181.345ZM46.4756 181.85C46.209 181.85 45.9694 181.966 45.8047 182.15L46.4824 182.159L46.8154 182.163L46.8115 182.497L46.8047 183.006L46.7998 183.339L46.4668 183.334L45.7871 183.324C45.9521 183.52 46.1992 183.646 46.4756 183.646C46.9718 183.645 47.3737 183.244 47.374 182.748C47.374 182.253 46.972 181.85 46.4756 181.85ZM73.3418 182.431C73.3322 182.494 73.3262 182.559 73.3262 182.624C73.3262 182.678 73.3306 182.73 73.3369 182.782L74.2695 182.794L74.2754 182.444L73.3418 182.431ZM17.7471 172.99C18.6288 172.99 19.3438 173.704 19.3438 174.586C19.3435 175.468 18.6286 176.181 17.7471 176.182C17.0653 176.182 16.4842 175.755 16.2549 175.154L2.48242 174.969L5.24902 177.425L53.8672 178.078L58.1768 174.455L58.2725 174.376L58.3965 174.377L97.2451 174.901L97.5791 174.905L97.5742 175.239L97.5674 175.746L97.5625 176.08L97.2295 176.075L58.6934 175.557L54.3848 179.18L54.29 179.26L54.166 179.259L4.91992 178.597L4.7959 178.595L4.70312 178.513L0.683594 174.945L-32.0977 174.504L-32.082 173.33L0.986328 173.774L1.05273 173.7L1.1377 173.776L16.2686 173.979C16.5077 173.398 17.08 172.99 17.7471 172.99ZM25.207 165.104L39.752 165.299L39.873 165.301L39.9648 165.38L44.6875 169.455L97.3086 170.164L97.6416 170.169L97.6367 170.502L97.6211 171.689L97.6162 172.022L97.2832 172.017L44.1094 171.303L43.9883 171.301L43.8965 171.222L39.1719 167.146L25.7471 166.964L22.043 170.078L25.6631 173.29L33.0059 173.39C33.4169 172.15 34.597 171.262 35.9717 171.281C37.6686 171.303 39.0312 172.702 39.0088 174.399C38.9861 176.095 37.5862 177.456 35.8887 177.434C34.5141 177.416 33.359 176.494 32.9814 175.243L25.0713 175.138L24.9463 175.136L24.8535 175.054L20.2676 170.982L-31.708 170.283L-32.041 170.28L-32.0361 169.946L-32.0205 168.758L-32.0156 168.425L-31.6826 168.429L20.293 169.128L24.9883 165.182L25.083 165.102L25.207 165.104ZM35.9629 171.948C34.9613 171.934 34.0927 172.535 33.7168 173.4L34.2959 173.407C34.6286 172.838 35.25 172.459 35.9551 172.469C36.9973 172.484 37.8339 173.341 37.8193 174.384C37.8045 175.426 36.9463 176.262 35.9033 176.247C35.1972 176.237 34.5861 175.84 34.2695 175.261L33.6914 175.253C34.0439 176.128 34.8965 176.754 35.8975 176.767C37.2276 176.784 38.3239 175.717 38.3418 174.39C38.3594 173.061 37.2918 171.965 35.9629 171.948ZM35.9453 173.135C35.6423 173.131 35.3621 173.238 35.1455 173.418L35.9424 173.43L36.2754 173.434L36.2715 173.768L36.2549 174.954L36.251 175.288L35.917 175.283L35.1182 175.273C35.3302 175.46 35.608 175.577 35.9131 175.581C36.5875 175.59 37.1437 175.048 37.1533 174.374C37.1627 173.701 36.6207 173.145 35.9453 173.135ZM17.7471 173.656C17.4601 173.656 17.2032 173.785 17.0322 173.99L18.0869 174.004L18.0713 175.179L17.0186 175.164C17.1893 175.378 17.452 175.516 17.7471 175.516C18.2609 175.515 18.6775 175.099 18.6777 174.586C18.6777 174.073 18.261 173.656 17.7471 173.656ZM34.7373 174.079C34.7175 174.164 34.7063 174.252 34.7051 174.342C34.7039 174.43 34.7117 174.517 34.7285 174.6L35.5928 174.612L35.5996 174.091L34.7373 174.079ZM33.5361 174.063C33.5257 174.149 33.5197 174.236 33.5186 174.324C33.5174 174.412 33.5203 174.498 33.5283 174.583L34.0547 174.59C34.0443 174.506 34.0379 174.42 34.0391 174.332C34.0403 174.243 34.0483 174.155 34.0615 174.07L33.5361 174.063ZM21.124 170.851L25.2041 174.472L32.8594 174.574C32.8534 174.489 32.8504 174.403 32.8516 174.316C32.8527 174.228 32.8578 174.14 32.8662 174.054L25.5303 173.956L25.4062 173.954L25.3135 173.872L21.5273 170.512L21.124 170.851ZM21.1455 169.282L21.5391 169.631L25.4141 166.375L25.5088 166.295L25.6328 166.297L39.3027 166.481L39.4238 166.483L39.5156 166.562L44.2393 170.637L96.958 171.346L96.9658 170.826L44.5586 170.121L44.4365 170.119L44.3447 170.04L39.6211 165.964L25.3213 165.771L21.1455 169.282ZM-31.3662 169.62L20.7188 170.322L21.0234 170.065L20.7256 169.801L20.4736 169.797H20.4082L-31.3584 169.1L-31.3662 169.62ZM5.15527 161.106L54.4004 161.768L54.5244 161.77L54.6172 161.852L58.8281 165.589L68.3877 165.717C68.6338 165.1 69.2401 164.666 69.9443 164.675C70.8559 164.688 71.5866 165.437 71.5742 166.348C71.5617 167.259 70.8104 167.989 69.8994 167.977C69.196 167.967 68.6012 167.517 68.3721 166.893L58.498 166.761L58.374 166.759L58.2812 166.677L54.0703 162.939L5.45215 162.284L2.81836 164.499L11.6279 164.617C11.9641 163.608 12.9241 162.884 14.0439 162.899C15.4279 162.917 16.5401 164.058 16.5205 165.442C16.5022 166.71 15.5407 167.747 14.3135 167.895V167.921L13.9756 167.916C12.8557 167.901 11.9143 167.151 11.6064 166.132L-31.9766 165.547L-31.9561 164.032L1.02051 164.475L4.93652 161.184L5.03125 161.104L5.15527 161.106ZM14.0352 163.566C13.2895 163.556 12.6403 163.993 12.3418 164.627L12.542 164.63C12.8253 164.098 13.3891 163.739 14.0322 163.747C14.9479 163.76 15.6833 164.514 15.6709 165.43C15.6582 166.345 14.9031 167.08 13.9873 167.068C13.3446 167.059 12.7915 166.684 12.5225 166.145L12.3213 166.142C12.5999 166.779 13.2286 167.231 13.9668 167.248L13.9854 167.249C15.001 167.264 15.8389 166.447 15.8535 165.432C15.8679 164.417 15.0515 163.579 14.0352 163.566ZM70.2588 166.076L70.252 166.585L70.25 166.669C70.339 166.584 70.3956 166.465 70.3975 166.332C70.3992 166.199 70.3466 166.078 70.2598 165.99L70.2588 166.076ZM14.0234 164.413C13.7789 164.41 13.5535 164.496 13.3779 164.641L14.3535 164.655L14.333 166.169L13.3564 166.156C13.528 166.305 13.7512 166.398 13.9961 166.402C14.5441 166.409 14.9962 165.968 15.0039 165.421C15.0114 164.874 14.5716 164.421 14.0234 164.413ZM13.0146 165.394C13.0142 165.424 13.0152 165.455 13.0176 165.485L13.6758 165.494L13.6777 165.312L13.0205 165.302C13.0173 165.332 13.0151 165.363 13.0146 165.394ZM12.167 165.383C12.1666 165.414 12.1689 165.444 12.1699 165.474L12.3506 165.476C12.3494 165.446 12.3472 165.416 12.3477 165.385C12.3481 165.354 12.3514 165.324 12.3535 165.293L12.1729 165.291C12.1709 165.322 12.1674 165.352 12.167 165.383ZM1.8252 165.334L11.5029 165.464C11.5023 165.434 11.4996 165.404 11.5 165.374C11.5004 165.343 11.5043 165.312 11.5059 165.282L2.03906 165.155L1.8252 165.334ZM-31.3018 164.89L0.669922 165.32L0.614258 165.253L0.513672 165.134L-31.2998 164.707L-31.3018 164.89ZM49.1562 156.067C50.2116 156.08 51.07 156.896 51.1611 157.924L51.1689 158.132C51.1534 159.256 50.2263 160.157 49.1016 160.143C48.1814 160.13 47.4105 159.508 47.1689 158.666L-2.42578 157.998L-5.95117 160.964L-6.0459 161.044L-6.16992 161.042L-31.5791 160.7L-31.9121 160.697L-31.9072 160.363L-31.9004 159.855L-31.8955 159.521L-31.5625 159.526L-6.46875 159.863L-2.94043 156.899L-2.8457 156.819L-2.72168 156.821L47.1855 157.49C47.4501 156.656 48.2363 156.055 49.1562 156.067ZM7.97656 136.746C9.17872 136.762 10.1431 137.752 10.1279 138.953C10.1126 140.155 9.1204 141.119 7.91895 141.104H7.91797C7.48254 141.098 7.07895 140.963 6.74121 140.738L3.76953 143.291L7.64453 146.731L45.3789 147.239L48.7871 144.374L48.8818 144.294L49.0059 144.296L66.6953 144.533C66.9523 143.792 67.6627 143.263 68.4902 143.274C69.5231 143.287 70.3523 144.137 70.3379 145.169C70.3248 146.085 69.6518 146.84 68.7773 146.988V147.021L68.4395 147.016C67.6124 147.005 66.9177 146.457 66.6807 145.709L49.3027 145.475L45.8965 148.34L45.8018 148.42L45.6777 148.418L15.1211 148.007L15.1895 148.068L18.2275 150.765L38.5293 151.037C38.8466 150.243 39.6279 149.685 40.5332 149.697C41.7061 149.712 42.6472 150.679 42.6318 151.851C42.6209 152.682 42.1308 153.393 41.4297 153.734L54.7002 153.912L54.8242 153.914L54.917 153.996L59.6055 158.158L86.0098 158.514C86.2488 157.953 86.8096 157.562 87.458 157.571C88.314 157.582 88.9997 158.286 88.9883 159.142C88.9766 159.998 88.2724 160.681 87.417 160.67C86.7695 160.661 86.2196 160.257 85.9951 159.69L59.2764 159.33L59.1523 159.328L59.0596 159.246L54.3701 155.084L11.5576 154.508L9.20605 156.486L9.11133 156.566L8.9873 156.564L-31.5156 156.02L-31.8486 156.015L-31.8438 155.682L-31.8369 155.173L-31.832 154.84L-31.499 154.844L8.68848 155.384L11.041 153.407L11.1367 153.327L11.2607 153.329L39.5273 153.708C39.0581 153.465 38.6916 153.053 38.5078 152.553L17.7676 152.275L17.6436 152.273L17.5508 152.191L14.5107 149.492L-15.3555 149.09L-18.3428 151.604L-18.4375 151.684L-18.5615 151.682L-31.4551 151.508L-31.7881 151.503L-31.7832 151.17L-31.7725 150.323L-31.7686 149.99L-31.4346 149.993L-18.9814 150.16L-15.9922 147.649L-15.8975 147.569L-15.7734 147.571L7.16504 147.878L7.09863 147.819L2.65039 143.87L-2.88965 143.795L-6.59375 146.91L-6.68945 146.99L-6.81348 146.989L-36.4814 146.59L-36.8145 146.585L-36.8096 146.252L-36.8027 145.743L-36.7979 145.41L-36.4648 145.414L-7.11035 145.809L-3.4043 142.695L-3.30957 142.615L-3.18555 142.616L2.66211 142.695L5.97559 139.847C5.83977 139.558 5.76323 139.236 5.76758 138.896C5.78318 137.694 6.77519 136.731 7.97656 136.746ZM87.4492 158.237C87.1869 158.233 86.9504 158.345 86.7861 158.524L87.4463 158.533L87.7793 158.538L87.7754 158.871L87.7686 159.38L87.7637 159.714L87.4307 159.709L86.7715 159.699C86.9311 159.883 87.1641 160.001 87.4258 160.004C87.914 160.011 88.3157 159.619 88.3223 159.132C88.3285 158.645 87.9371 158.243 87.4492 158.237ZM49.1406 157.241C48.892 157.238 48.6667 157.341 48.5068 157.508L49.1367 157.517L49.4697 157.522L49.4658 157.854L49.46 158.363L49.4561 158.697L49.1221 158.693L48.4922 158.684C48.6477 158.854 48.87 158.964 49.1182 158.967C49.5941 158.973 49.9865 158.591 49.9932 158.116C49.9996 157.642 49.6161 157.248 49.1406 157.241ZM40.5244 150.363C39.9971 150.356 39.5304 150.631 39.2676 151.047L39.4873 151.05C39.7248 150.739 40.1009 150.54 40.5215 150.545C41.2272 150.555 41.7937 151.134 41.7842 151.84C41.7747 152.546 41.1941 153.111 40.4883 153.102C40.0657 153.096 39.6938 152.885 39.4648 152.566L39.2471 152.563C39.4983 152.987 39.9568 153.275 40.4844 153.282C41.2898 153.293 41.9542 152.646 41.9648 151.842C41.9753 151.038 41.3292 150.373 40.5244 150.363ZM40.8438 151.404L40.8311 152.251L40.8291 152.339C40.9989 152.232 41.1142 152.046 41.1172 151.831C41.1201 151.617 41.011 151.427 40.8447 151.316L40.8438 151.404ZM39.8926 151.815C39.8922 151.845 39.8964 151.875 39.9004 151.905L40.1689 151.908L40.1719 151.727L39.9023 151.723C39.8974 151.753 39.893 151.783 39.8926 151.815ZM39.043 151.803C39.0426 151.833 39.0445 151.863 39.0459 151.893L39.2285 151.896C39.2268 151.866 39.2252 151.836 39.2256 151.806C39.226 151.775 39.2289 151.744 39.2314 151.714L39.0488 151.711C39.0465 151.742 39.0434 151.772 39.043 151.803ZM-18.6475 150.751L-18.7422 150.831L-18.8662 150.829L-31.1104 150.664L-31.1133 150.845L-18.6777 151.013L-15.6885 148.501L-15.5938 148.421L-15.4697 148.423L14.6445 148.827L14.7686 148.829L14.8613 148.911L17.9004 151.609L38.3799 151.884C38.379 151.854 38.3766 151.824 38.377 151.794C38.3774 151.763 38.3801 151.733 38.3818 151.702L18.0947 151.431L17.9707 151.429L17.8779 151.347L14.8379 148.649L-15.6592 148.238L-18.6475 150.751ZM68.4814 143.94C68.0295 143.934 67.6315 144.178 67.4199 144.543L67.6338 144.546C67.8229 144.285 68.1325 144.118 68.4785 144.122H68.4795C69.0433 144.131 69.4957 144.594 69.4883 145.159C69.4806 145.725 69.0151 146.176 68.4512 146.169C68.1049 146.165 67.8011 145.988 67.6191 145.722L67.4053 145.719C67.6041 146.083 67.9857 146.335 68.4277 146.348L68.4492 146.349C69.1135 146.358 69.6612 145.824 69.6709 145.16C69.6803 144.498 69.1465 143.948 68.4814 143.94ZM68.7969 145.27C68.811 145.232 68.8217 145.193 68.8223 145.151C68.8228 145.107 68.8146 145.065 68.8008 145.027L68.7969 145.27ZM-2.28516 133.017L24.1924 133.373L24.3164 133.375L24.4092 133.457L27.2637 135.991C27.605 135.822 27.9906 135.727 28.3975 135.733C29.7621 135.751 30.8582 136.876 30.8398 138.24C30.8211 139.605 29.6955 140.699 28.3311 140.681C26.9661 140.662 25.8702 139.538 25.8887 138.173C25.8925 137.894 25.9434 137.627 26.0322 137.378L23.6006 135.219L12.7109 135.072L20.2432 141.757L36.7432 141.98L40.9248 138.463C40.6783 138.018 40.5386 137.506 40.5459 136.961C40.5684 135.29 41.9463 133.951 43.6182 133.973C45.2902 133.995 46.6308 135.372 46.6084 137.043C46.5858 138.715 45.208 140.054 43.5361 140.032C42.834 140.022 42.1917 139.772 41.6826 139.363L37.2598 143.08L37.165 143.16L37.041 143.158L19.9131 142.929L19.7891 142.927L19.6963 142.845L10.9121 135.047L-1.74512 134.877L-10.8232 142.511L-10.918 142.59L-11.042 142.589L-36.4238 142.248L-36.7568 142.243L-36.752 141.91L-36.7363 140.723L-36.7314 140.39L-36.3984 140.394L-11.583 140.728L-2.50391 133.095L-2.40918 133.015L-2.28516 133.017ZM-11.249 141.319L-11.3438 141.398L-11.4678 141.397L-36.0742 141.065L-36.082 141.585L-11.1572 141.92L-2.07812 134.288L-1.9834 134.208L-1.85938 134.21L10.1504 134.371L10.1113 134.337L10.334 134.088L10.541 133.855L-2.1709 133.684L-11.249 141.319ZM28.3887 136.4C28.1901 136.397 27.998 136.427 27.8184 136.484L28.3125 136.922C28.3353 136.921 28.3587 136.92 28.3818 136.92C29.0916 136.93 29.6606 137.515 29.6514 138.224C29.6419 138.934 29.0561 139.503 28.3467 139.493C27.6769 139.484 27.1329 138.963 27.0811 138.309L26.5879 137.87C26.5687 137.972 26.5571 138.075 26.5557 138.182C26.5422 139.178 27.3425 140 28.3398 140.014C29.3369 140.027 30.1594 139.226 30.1729 138.231C30.186 137.235 29.3856 136.413 28.3887 136.4ZM7.96191 137.921C7.4088 137.914 6.95187 138.359 6.94434 138.911C6.94389 138.945 6.94439 138.979 6.94727 139.012L7.81934 138.264L8.58496 139.155L7.71777 139.899C7.78763 139.915 7.85991 139.926 7.93457 139.927C8.4877 139.934 8.94465 139.49 8.95215 138.938C8.95955 138.386 8.51499 137.929 7.96191 137.921ZM43.6016 135.149C42.5788 135.136 41.7364 135.956 41.7217 136.978C41.7184 137.227 41.7658 137.465 41.8525 137.684L42.0098 137.551C41.9475 137.373 41.9133 137.181 41.916 136.982C41.9284 136.065 42.6824 135.332 43.5996 135.344C44.5169 135.356 45.2506 136.109 45.2383 137.027C45.2258 137.944 44.4719 138.677 43.5547 138.664C43.2673 138.66 42.9977 138.584 42.7637 138.452L42.6104 138.582C42.8853 138.751 43.2064 138.852 43.5518 138.857C44.5753 138.87 45.4191 138.049 45.4326 137.028C45.4459 136.006 44.625 135.163 43.6016 135.149ZM28.2666 138.817C28.2956 138.821 28.3253 138.826 28.3555 138.826C28.6978 138.831 28.9808 138.556 28.9854 138.215C28.9861 138.154 28.9741 138.095 28.958 138.038L28.2666 138.817ZM28.1152 137.639C27.9499 137.712 27.8233 137.855 27.7705 138.03L27.9404 138.18L28.2861 137.791L28.1152 137.639ZM43.5908 136.01C43.0413 136.003 42.5895 136.442 42.582 136.99C42.5817 137.016 42.5833 137.042 42.585 137.068L43.1982 136.553L43.4531 136.338L43.667 136.594L43.9951 136.984L44.21 137.239L43.9551 137.453L43.3408 137.968C43.4126 137.986 43.4875 137.997 43.5645 137.998C44.1137 138.005 44.5646 137.566 44.5723 137.018C44.5797 136.469 44.1404 136.017 43.5908 136.01ZM11.917 116.392C13.5441 116.413 14.8505 117.755 14.8291 119.381C14.8075 121.008 13.4646 122.313 11.8379 122.291C11.2222 122.283 10.6529 122.085 10.1836 121.755L5.53809 125.661L5.44336 125.74L5.31934 125.74L-3.94238 125.615L-7.77832 128.838L35.7188 129.423C35.9641 128.781 36.585 128.325 37.3135 128.324C38.2567 128.324 39.0223 129.088 39.0225 130.032C39.0225 130.975 38.2568 131.74 37.3135 131.74C36.569 131.739 35.9379 131.262 35.7041 130.598L-9.1543 129.995L-18.1533 137.562L-18.249 137.642L-18.373 137.64L-36.3574 137.398L-36.6904 137.394L-36.6855 137.061L-36.6748 136.212L-36.6709 135.878L-36.3369 135.883L-18.792 136.119L-4.58105 124.172L-4.48633 124.093L-4.3623 124.094L4.89941 124.218L9.20898 120.595C9.02358 120.202 8.9197 119.764 8.92578 119.302C8.94727 117.676 10.2903 116.371 11.917 116.392ZM27.1992 136.826C27.0662 136.939 26.9497 137.069 26.8535 137.215L27.248 137.565C27.3359 137.413 27.4549 137.282 27.5947 137.177L27.1992 136.826ZM-18.458 136.709L-18.5527 136.789L-18.6768 136.787L-36.0127 136.554L-36.0156 136.736L-18.4873 136.971L-9.96289 129.805L-9.95996 129.564L-18.458 136.709ZM11.9492 134.396L23.7344 134.555L23.8584 134.556L23.9512 134.639L26.3506 136.769C26.4521 136.627 26.569 136.498 26.6973 136.381L24.0586 134.038L11.3525 133.866L11.9492 134.396ZM37.3135 128.99C36.9612 128.991 36.6495 129.165 36.4609 129.433L37.6543 129.449L37.6387 130.624L36.4453 130.608C36.632 130.888 36.9512 131.072 37.3135 131.073C37.8891 131.073 38.3555 130.606 38.3555 130.032C38.3553 129.457 37.889 128.99 37.3135 128.99ZM5.2334 124.809L5.13867 124.888L5.01465 124.887L-4.24805 124.762L-9.07715 128.822L-8.79688 128.824L-4.27539 125.025L-4.18066 124.945L-4.05664 124.947L5.2041 125.071L9.68164 121.306C9.64095 121.261 9.60036 121.215 9.5625 121.167L5.2334 124.809ZM11.9082 117.059C10.6488 117.042 9.6094 118.053 9.59277 119.311C9.58891 119.605 9.64261 119.887 9.74121 120.147L9.89062 120.023C9.81411 119.8 9.77111 119.562 9.77441 119.314C9.79005 118.154 10.7464 117.225 11.9062 117.24C13.066 117.256 13.9959 118.211 13.9805 119.37C13.9647 120.53 13.0094 121.459 11.8496 121.444C11.4927 121.439 11.1579 121.344 10.8652 121.183L10.7188 121.306C11.0503 121.502 11.4347 121.619 11.8467 121.624C13.1061 121.641 14.1454 120.63 14.1621 119.372C14.1787 118.114 13.1673 117.076 11.9082 117.059ZM10.0732 120.738C10.1108 120.786 10.1511 120.832 10.1924 120.877L10.3301 120.761C10.2888 120.716 10.2492 120.67 10.2119 120.621L10.0732 120.738ZM11.8965 117.907C11.1047 117.896 10.4522 118.532 10.4414 119.323C10.4404 119.398 10.4466 119.472 10.457 119.545L11.3906 118.762L11.6455 118.547L11.8594 118.802L12.4072 119.451L12.6221 119.707L12.3662 119.921L11.4316 120.705C11.5662 120.749 11.7095 120.775 11.8584 120.777C12.6506 120.787 13.3039 120.152 13.3145 119.361C13.3248 118.57 12.6887 117.917 11.8965 117.907ZM10.7236 120.192C10.7599 120.241 10.7978 120.288 10.8398 120.332L11.6816 119.626L11.5635 119.486L10.7236 120.192ZM-37.2158 84.7883L-19.2305 85.0296L-19.1064 85.0315L-19.0137 85.1135L-10.2207 92.9192L28.0605 93.4348L31.5283 90.0608C31.4449 89.9018 31.3785 89.7299 31.3379 89.5462C31.0915 88.4302 31.797 87.3258 32.9131 87.0794C34.0295 86.8331 35.1352 87.5385 35.3818 88.6546C35.628 89.7704 34.9228 90.875 33.8066 91.1214C33.29 91.2354 32.7765 91.1435 32.3486 90.9036L28.6309 94.5208L28.5312 94.6174L28.3936 94.6155L-8.87598 94.1135L-5.12988 97.4387L11.8721 97.6673L11.9961 97.6692L12.0889 97.7512L17.208 102.296C17.5286 102.123 17.8963 102.026 18.2861 102.032C19.505 102.048 20.4812 103.052 20.4648 104.269C20.4483 105.487 19.4435 106.463 18.2256 106.447C17.0079 106.43 16.0305 105.428 16.0469 104.209C16.0506 103.934 16.1064 103.671 16.2021 103.429L11.4111 99.176L-5.58984 98.9475L-5.71387 98.9456L-5.80664 98.8635L-19.6924 86.5393L-37.2363 86.303L-37.5693 86.2991L-37.5645 85.9651L-37.5537 85.1174L-37.5498 84.7835L-37.2158 84.7883ZM18.2764 102.698C18.0941 102.695 17.919 102.725 17.7559 102.782L17.915 102.923C18.0299 102.893 18.1502 102.877 18.2744 102.879C19.0236 102.89 19.6267 103.507 19.6162 104.257C19.6056 105.007 18.9867 105.609 18.2363 105.598C17.4871 105.587 16.884 104.97 16.8945 104.22C16.8953 104.164 16.8998 104.108 16.9072 104.054L16.748 103.912C16.7267 104.011 16.7143 104.113 16.7129 104.218C16.7014 105.068 17.3843 105.769 18.2344 105.781C19.0847 105.792 19.7863 105.109 19.7979 104.26C19.8093 103.411 19.1275 102.709 18.2764 102.698ZM18.7871 104.143L18.2236 104.778L18.1016 104.914C18.1482 104.925 18.1964 104.931 18.2461 104.932C18.6277 104.937 18.9436 104.63 18.9492 104.248C18.9504 104.163 18.9335 104.083 18.9062 104.007L18.7871 104.143ZM17.8037 103.716C17.7579 103.756 17.7159 103.8 17.6816 103.85L17.9463 104.085L18.0664 103.949L17.8037 103.716ZM17.165 103.15C17.1224 103.192 17.0833 103.238 17.0459 103.285L17.1816 103.407C17.2188 103.359 17.2586 103.313 17.3018 103.271L17.165 103.15ZM-5.45703 98.2815L11.5459 98.512L11.6699 98.513L11.7627 98.596L16.5469 102.843C16.5854 102.796 16.6258 102.751 16.668 102.707L11.7402 98.3323L-5.2627 98.1038L-5.38672 98.1018L-5.47949 98.0198L-9.89551 94.0999L-10.1729 94.096L-5.45703 98.2815ZM-36.8945 85.6409L-19.5586 85.8743L-19.4346 85.8762L-19.3418 85.9583L-11.0381 93.3284L-11.0361 93.2424L-11.0342 93.0891L-19.3643 85.6946L-36.8916 85.4583L-36.8945 85.6409ZM34.7305 88.7981C34.5634 88.0421 33.8147 87.563 33.0576 87.7298C32.3004 87.8968 31.8214 88.6465 31.9883 89.4026C32.0008 89.4592 32.0173 89.5144 32.0361 89.5676L32.9492 88.6799L33.1885 88.4475L33.4209 88.6868L33.7754 89.051L34.0078 89.2903L33.7695 89.5227L32.8574 90.4085C33.1057 90.5039 33.3838 90.5316 33.6631 90.47C34.4199 90.3027 34.8972 89.554 34.7305 88.7981ZM-37.1514 79.9387L-11.7705 80.2796L-11.6465 80.2805L-11.5537 80.3635L-2.68262 88.2376L9.97266 88.4075L18.9639 80.8508L19.0586 80.7708L19.1826 80.7727L47.7793 81.1575L47.918 81.1594L48.0137 81.2581L51.167 84.4954C51.5902 84.2334 52.0893 84.0829 52.623 84.0901C54.1146 84.1106 55.3123 85.3388 55.292 86.8303C55.2715 88.3216 54.0421 89.5179 52.5498 89.4973C51.0582 89.4766 49.8603 88.2487 49.8809 86.7571C49.8883 86.2244 50.0514 85.7301 50.3242 85.3147L47.4141 82.3274L19.4805 81.9514L11.7715 88.4319L18.792 88.5266L20.8066 86.8313C20.653 86.4602 20.5705 86.0526 20.5762 85.6262C20.5989 83.9422 21.9883 82.5915 23.6729 82.6135C25.3579 82.636 26.7108 84.0241 26.6885 85.7083C26.6659 87.3925 25.2765 88.7441 23.5918 88.7219C23.0075 88.7141 22.4648 88.5391 22.0039 88.2473L19.5518 90.3098L19.457 90.3899L19.333 90.388L-3.27441 90.0842L-3.39844 90.0823L-3.49121 90.0003L-12.3623 82.1253L-37.1768 81.7923L-37.5098 81.7874L-37.5049 81.4544L-37.4893 80.2669L-37.4844 79.9339L-37.1514 79.9387ZM19.126 89.1165L19.0312 89.1965L18.9072 89.1946L10.9912 89.0882L10.3818 89.5999L19.2178 89.72L21.4727 87.8235C21.3497 87.7004 21.2384 87.5665 21.1377 87.4241L19.126 89.1165ZM-36.835 81.1292L-12.2285 81.4602L-12.1045 81.4622L-12.0117 81.5442L-3.14062 89.4182L9.56934 89.5891L9.36914 89.3518L9.1543 89.096L9.19141 89.0637L-2.81543 88.9026L-2.93945 88.9016L-3.03223 88.8186L-11.9043 80.9436L-36.8271 80.6087L-36.835 81.1292ZM52.6064 85.2649C52.4003 85.2622 52.2031 85.3013 52.0225 85.3733L53.0078 86.385L53.2402 86.6243L53.001 86.8567L52.6357 87.2112L52.3975 87.4436L52.165 87.2044L51.1807 86.1936C51.104 86.3721 51.0595 86.5679 51.0566 86.7737C51.0453 87.6153 51.7232 88.3108 52.5664 88.3225C53.4092 88.3338 54.1045 87.6566 54.1162 86.8147C54.1275 85.973 53.4498 85.2764 52.6064 85.2649ZM23.6641 83.2805C22.3469 83.2633 21.2607 84.3205 21.2432 85.636C21.2398 85.8931 21.2789 86.141 21.3516 86.3743L21.7959 86.0003C21.7749 85.8844 21.764 85.7649 21.7656 85.6428C21.779 84.6128 22.6287 83.7878 23.6582 83.801C24.6884 83.8145 25.5144 84.6632 25.501 85.6926C25.4874 86.7226 24.6379 87.5478 23.6084 87.5344C23.391 87.5316 23.1835 87.4893 22.9902 87.4182L22.5469 87.7913C22.8639 87.9538 23.2209 88.0498 23.6006 88.0549C24.9178 88.0723 26.0039 87.015 26.0215 85.6995C26.0389 84.3837 24.9813 83.2981 23.6641 83.2805ZM21.6484 86.9944C21.7458 87.1392 21.8595 87.2717 21.9854 87.3919L22.3867 87.0549C22.2571 86.9384 22.1437 86.8047 22.0508 86.6565L21.6484 86.9944ZM23.6494 84.4671C23.0568 84.4595 22.558 84.8847 22.4531 85.4475L23.0361 84.9583L23.292 84.7444L23.5059 84.9993L24.2705 85.9075L24.4844 86.1624L24.2295 86.3772L23.6475 86.8655C24.2964 86.8579 24.8264 86.3346 24.835 85.6839C24.8436 85.0224 24.3114 84.4757 23.6494 84.4671ZM22.5674 86.2219C22.6491 86.3779 22.7653 86.5129 22.9043 86.6194L23.5449 86.0813L23.21 85.6829L22.5674 86.2219ZM14.6445 75.5676L36.959 75.8684L37.083 75.8694L37.1758 75.9524L40.5039 78.9065L58.1582 79.1438C58.4529 77.7289 59.7213 76.6719 61.2197 76.6917C62.9195 76.7143 64.285 78.1155 64.2617 79.8147C64.2389 81.4606 62.923 82.7925 61.2949 82.8528L61.1367 82.8548C59.6373 82.8349 58.3986 81.7428 58.1426 80.3196L40.1748 80.0784L40.0508 80.0774L39.958 79.9944L36.6279 77.0383L14.9414 76.7464L10.3896 80.5755L10.2939 80.6546L10.1699 80.6536L-3.91699 80.4632L-4.04102 80.4622L-4.13379 80.3792L-7.75391 77.1653L-37.1084 76.7717L-37.4414 76.7669L-37.4365 76.4339L-37.4297 75.9251L-37.4248 75.5921L-37.0918 75.596L-7.42383 75.9954L-7.2998 75.9964L-7.20703 76.0794L-3.58691 79.2923L9.87305 79.4729L14.4258 75.6458L14.5205 75.5657L14.6445 75.5676ZM61.2041 77.8665C60.358 77.8548 59.6326 78.4 59.373 79.1604L59.4922 79.1614C59.746 78.4648 60.4195 77.9711 61.2012 77.9807C62.1909 77.9931 62.984 78.8092 62.9717 79.7971C62.9592 80.7862 62.142 81.5801 61.1533 81.5667C60.37 81.5559 59.7112 81.0414 59.4766 80.3372L59.3555 80.3362C59.5933 81.1043 60.3052 81.6689 61.1523 81.6799C62.2048 81.6934 63.0722 80.8494 63.0859 79.7991C63.0994 78.7484 62.2561 77.8813 61.2041 77.8665ZM60.9941 80.3577C61.0501 80.3754 61.1084 80.3891 61.1699 80.3899C61.2312 80.3907 61.2895 80.3786 61.3457 80.3626L61.1699 80.3606L60.9941 80.3577ZM61.5146 79.5227L61.5078 80.0315L61.5039 80.2942C61.676 80.1865 61.7929 79.998 61.7959 79.7815C61.7988 79.5643 61.6869 79.3716 61.5176 79.259L61.5146 79.5227ZM61.1865 79.1555C61.124 79.1547 61.064 79.1652 61.0068 79.1819L61.1855 79.1848L61.3652 79.1868C61.3085 79.1686 61.249 79.1564 61.1865 79.1555ZM74.6064 64.2874C75.6811 64.2874 76.5525 65.1583 76.5527 66.2327C76.5526 67.3072 75.6811 68.178 74.6064 68.178C73.8244 68.1778 73.152 67.7162 72.8428 67.051L54.5234 66.804L49.7246 70.8391L49.6299 70.9192L49.5059 70.9173L10.7148 70.3958L10.5908 70.3948L10.498 70.3118L8.19922 68.2727L-31.8945 67.7337L-32.2275 67.7288L-32.2227 67.3958L-32.21 66.3772L-32.2061 66.0442L-31.8721 66.0491L8.72559 66.594L8.84961 66.596L8.94238 66.678L11.2402 68.718L49.0254 69.2258L53.8242 65.1926L53.9189 65.1126L54.043 65.1145L72.8652 65.3665C73.1842 64.7274 73.8435 64.2875 74.6064 64.2874ZM49.3594 69.8157L49.2646 69.8958L49.1406 69.8948L11.1074 69.384L10.9834 69.3821L10.8906 69.3001L8.59082 67.259L-31.5479 66.719L-31.5527 67.0706L8.33203 67.6077L8.45605 67.6096L8.54883 67.6917L10.8477 69.7307L49.3906 70.2493L54.1904 66.2151L54.2852 66.135L54.4092 66.137L72.668 66.3811C72.6643 66.3322 72.6602 66.2825 72.6602 66.2327C72.6602 66.1644 72.664 66.097 72.6709 66.0305L54.1572 65.7815L49.3594 69.8157ZM-31.8115 61.6223L-6.40332 61.9641L-6.2793 61.9651L-6.18652 62.0481L-2.74121 65.1057L45.0322 65.7483C45.2696 65.186 45.8268 64.7913 46.4756 64.7913C47.3396 64.7916 48.0409 65.4917 48.041 66.3557C48.0409 67.2198 47.3397 67.9199 46.4756 67.9202C45.8119 67.9202 45.2453 67.5071 45.0176 66.9241L-3.07129 66.2776L-3.19531 66.2757L-3.28809 66.1936L-6.7334 63.134L-31.8281 62.7971L-32.1611 62.7932L-32.1562 62.4592L-32.1494 61.9505L-32.1445 61.6174L-31.8115 61.6223ZM74.6064 64.9534C74.2292 64.9535 73.8905 65.1176 73.6562 65.3772L74.6182 65.3909L74.9512 65.3958L74.9463 65.7288L74.9326 66.7464L74.9277 67.0794L74.5947 67.0755L73.6338 67.0618C73.8685 67.3364 74.2166 67.5109 74.6064 67.511C75.3134 67.511 75.8866 66.9385 75.8867 66.2327C75.8865 65.527 75.3133 64.9534 74.6064 64.9534ZM46.4756 65.4573C46.2085 65.4573 45.9685 65.5742 45.8037 65.759L46.4824 65.7688L46.8154 65.7727L46.8115 66.1067L46.8047 66.6155L46.7998 66.9485L46.4668 66.9436L45.7881 66.9339C45.9531 67.129 46.1997 67.2532 46.4756 67.2532C46.9719 67.2529 47.3739 66.8511 47.374 66.3557C47.3739 65.8604 46.9719 65.4576 46.4756 65.4573ZM73.3418 66.0403C73.3323 66.1031 73.3262 66.1673 73.3262 66.2327C73.3262 66.2861 73.3305 66.3392 73.3369 66.3909L74.2695 66.4036L74.2754 66.053L73.3418 66.0403ZM17.7471 56.5989C18.6288 56.5993 19.3438 57.3138 19.3438 58.1956C19.3433 59.077 18.6285 59.7909 17.7471 59.7913C17.065 59.7913 16.483 59.3635 16.2539 58.762L2.48242 58.5774L5.24902 61.0335L53.8672 61.6868L58.1768 58.0637L58.2725 57.9846L58.3965 57.9856L97.2451 58.5081L97.5791 58.512L97.5742 58.846L97.5674 59.3548L97.5625 59.6887L97.2295 59.6839L58.6934 59.1653L54.3848 62.7893L54.29 62.8684L54.166 62.8674L4.91992 62.2044L4.7959 62.2024L4.70312 62.1204L0.683594 58.553L-32.0977 58.1126L-32.082 56.9378L0.985352 57.3821L1.05273 57.3069L1.13965 57.384L16.2686 57.5872C16.5079 57.0068 17.0803 56.5989 17.7471 56.5989ZM25.207 48.7132L39.752 48.9085L39.873 48.9104L39.9648 48.9895L44.6875 53.0647L97.3086 53.7727L97.6416 53.7776L97.6367 54.1106L97.6211 55.2981L97.6162 55.6311L97.2832 55.6262L44.1094 54.9124L43.9883 54.9104L43.8965 54.8313L39.1719 50.7551L25.7471 50.5735L22.043 53.6878L25.6631 56.8997L33.0059 56.9993C33.4166 55.7589 34.5966 54.8698 35.9717 54.888C37.6685 54.9107 39.031 56.3093 39.0088 58.0061C38.9862 59.7024 37.5863 61.0634 35.8887 61.0413C34.5147 61.0231 33.3604 60.1031 32.9824 58.8528L25.0713 58.7473L24.9463 58.7454L24.8535 58.6633L20.2676 54.5911L-31.708 53.8928L-32.041 53.888L-32.0361 53.5549L-32.0205 52.3674L-32.0156 52.0344L-31.6826 52.0383L20.293 52.7376L24.9883 48.7913L25.083 48.7112L25.207 48.7132ZM35.9629 55.5549C34.9607 55.5417 34.0913 56.1437 33.7158 57.009L34.2959 57.0169C34.6285 56.4472 35.2496 56.0666 35.9551 56.0764C36.9971 56.0914 37.8337 56.9487 37.8193 57.9915C37.8046 59.0337 36.9452 59.8691 35.9033 59.8548C35.1978 59.8448 34.5873 59.4487 34.2705 58.8704L33.6914 58.8626C34.0441 59.7372 34.897 60.361 35.8975 60.3743C37.2277 60.3916 38.3241 59.3247 38.3418 57.9973C38.3591 56.6688 37.2917 55.5728 35.9629 55.5549ZM35.9453 56.7424C35.6414 56.7383 35.3604 56.846 35.1436 57.0276L35.9424 57.0393L36.2754 57.0432L36.2715 57.3772L36.2549 58.5637L36.251 58.8977L35.917 58.8928L35.1191 58.8821C35.3311 59.0692 35.6086 59.1845 35.9131 59.1887C36.5867 59.1977 37.1439 58.6559 37.1533 57.9817C37.1624 57.3084 36.6206 56.7521 35.9453 56.7424ZM17.7471 57.2649C17.4603 57.2649 17.2032 57.3941 17.0322 57.5979L18.0879 57.6126L18.0723 58.7874L17.0176 58.7727C17.1883 58.9871 17.4516 59.1253 17.7471 59.1253C18.2608 59.1249 18.6773 58.7083 18.6777 58.1956C18.6777 57.6825 18.261 57.2653 17.7471 57.2649ZM34.7373 57.6887C34.7177 57.7727 34.7064 57.8598 34.7051 57.9495C34.7039 58.0384 34.7125 58.1254 34.7295 58.2092L35.5928 58.221L35.5996 57.7005L34.7373 57.6887ZM33.5361 57.6721C33.5258 57.7574 33.5197 57.8441 33.5186 57.9319C33.5174 58.0198 33.5212 58.107 33.5293 58.1926L34.0547 58.1995C34.0442 58.1145 34.0378 58.0277 34.0391 57.9397C34.0403 57.8511 34.0485 57.7642 34.0615 57.679L33.5361 57.6721ZM21.124 54.4602L25.2041 58.0813L32.8594 58.1839C32.8533 58.0979 32.8504 58.0108 32.8516 57.9231C32.8527 57.8356 32.8579 57.749 32.8662 57.6633L25.5303 57.5657L25.4062 57.5637L25.3135 57.4817L21.5273 54.1214L21.124 54.4602ZM21.1455 52.8909L21.5391 53.2405L25.4141 49.9846L25.5088 49.9046L25.6328 49.9065L39.3027 50.0901L39.4238 50.0921L39.5156 50.1712L44.2393 54.2464L96.958 54.9553L96.9658 54.4348L44.5586 53.7307L44.4365 53.7288L44.3447 53.6497L39.6211 49.5735L25.3213 49.3801L21.1455 52.8909ZM-31.3662 53.2298L20.7188 53.9309L21.0234 53.6741L20.7256 53.4104L-31.3584 52.7092L-31.3662 53.2298ZM5.15527 44.7151L54.4004 45.3762L54.5244 45.3782L54.6172 45.4602L58.8281 49.1985L68.3867 49.3264C68.6327 48.7089 69.2399 48.2749 69.9443 48.2844C70.856 48.297 71.5867 49.0462 71.5742 49.9573C71.5617 50.868 70.8104 51.5986 69.8994 51.5862C69.196 51.5764 68.6013 51.1263 68.3721 50.5022L58.498 50.3694L58.374 50.3674L58.2812 50.2854L54.0703 46.5481L5.45215 45.8928L2.81836 48.1087L11.6279 48.2268C11.9638 47.2167 12.9237 46.4913 14.0439 46.5061C15.4278 46.5246 16.5399 47.6654 16.5205 49.0491C16.5007 50.4318 15.3602 51.5433 13.9756 51.5237C12.8562 51.5084 11.9146 50.7598 11.6064 49.7415L-31.9766 49.1555L-31.9561 47.6409L1.01953 48.0842L4.93652 44.7932L5.03125 44.7132L5.15527 44.7151ZM14.0352 47.1731C13.2891 47.1633 12.6401 47.6014 12.3418 48.2366L12.541 48.2395C12.8241 47.7068 13.3885 47.3461 14.0322 47.3548C14.9478 47.3673 15.6831 48.1217 15.6709 49.0374C15.6584 49.953 14.9032 50.6874 13.9873 50.6751C13.345 50.6662 12.7917 50.2926 12.5225 49.7542L12.3223 49.7512C12.6035 50.3931 13.2398 50.8476 13.9854 50.8577C15.0009 50.872 15.8391 50.0549 15.8535 49.0393C15.8677 48.0249 15.0514 47.1867 14.0352 47.1731ZM70.2588 49.6858L70.252 50.1946L70.25 50.2786C70.339 50.1933 70.3956 50.0745 70.3975 49.9417C70.3992 49.8087 70.3466 49.6875 70.2598 49.5999L70.2588 49.6858ZM14.0234 48.0208C13.7781 48.0175 13.5518 48.1045 13.376 48.2503L14.3545 48.2639L14.334 49.7786L13.3584 49.7649C13.5297 49.9139 13.752 50.0056 13.9961 50.009C14.5442 50.0165 14.9963 49.5758 15.0039 49.0286C15.0112 48.4818 14.5714 48.0285 14.0234 48.0208ZM13.0146 49.0012C13.0142 49.0323 13.0152 49.0636 13.0176 49.094L13.6758 49.1038L13.6787 48.9212L13.0205 48.9114C13.0174 48.941 13.0151 48.9709 13.0146 49.0012ZM12.167 48.9905C12.1666 49.0215 12.1688 49.0526 12.1699 49.0833L12.3506 49.0852C12.3493 49.0546 12.3472 49.0234 12.3477 48.9924C12.3481 48.9623 12.3515 48.9324 12.3535 48.9026L12.1729 48.9007C12.171 48.9305 12.1674 48.9603 12.167 48.9905ZM1.8252 48.9436L11.5029 49.0735C11.5023 49.0431 11.4996 49.0123 11.5 48.9817C11.5004 48.9513 11.5034 48.921 11.5049 48.8909L2.03906 48.7639L1.8252 48.9436ZM-31.3018 48.4983L0.669922 48.928L0.614258 48.8616L0.514648 48.7434L-31.2988 48.3157L-31.3018 48.4983ZM49.1562 39.6751C50.2116 39.6885 51.07 40.5042 51.1611 41.5325L51.1689 41.7405C51.1532 42.864 50.2262 43.7656 49.1016 43.7512C48.1815 43.7384 47.4106 43.1164 47.1689 42.2747L-2.42578 41.6067L-5.95117 44.5715L-6.0459 44.6516L-6.16992 44.6497L-31.5791 44.3079L-31.9121 44.304L-31.9072 43.97L-31.9004 43.4622L-31.8955 43.1282L-31.5625 43.1331L-6.46875 43.471L-2.94141 40.5061L-2.8457 40.426L-2.72168 40.428L47.1846 41.0989C47.4489 40.2645 48.2361 39.6635 49.1562 39.6751ZM7.97656 20.3557C9.17874 20.3712 10.1431 21.3617 10.1279 22.5628C10.1125 23.7647 9.12033 24.7284 7.91895 24.7132H7.91797C7.48239 24.7071 7.07902 24.5715 6.74121 24.346L3.76953 26.8997L7.64453 30.3391L45.3789 30.8469L48.7871 27.9817L48.8818 27.9016L49.0059 27.9036L66.6963 28.1409C66.9539 27.3999 67.6633 26.8725 68.4902 26.8831C69.5231 26.8965 70.3523 27.7468 70.3379 28.7786C70.324 29.7448 69.5759 30.5354 68.6309 30.6184L68.4395 30.6253C67.6117 30.6144 66.9162 30.0654 66.6797 29.3167L49.3037 29.0833L45.8965 31.9475L45.8018 32.0276L45.6777 32.0257L15.1201 31.6145L15.1895 31.676L18.2275 34.3733L38.5293 34.6467C38.8466 33.8522 39.6278 33.294 40.5332 33.3059C41.7061 33.3216 42.6472 34.288 42.6318 35.4602C42.6208 36.2913 42.1302 37.0029 41.4287 37.343L54.7002 37.5217L54.8242 37.5237L54.917 37.6057L59.6055 41.7678L86.0107 42.1223C86.25 41.5615 86.81 41.1716 87.458 41.1799C88.3141 41.1914 88.9998 41.8955 88.9883 42.7512C88.9765 43.6069 88.2724 44.2908 87.417 44.2796C86.7692 44.2707 86.2194 43.8655 85.9951 43.2981L59.2764 42.9387L59.1523 42.9368L59.0596 42.8548L54.3701 38.6926L11.5576 38.1165L9.20605 40.095L9.11133 40.1751L8.9873 40.1731L-31.5156 39.6292L-31.8486 39.6243L-31.8438 39.2913L-31.8369 38.7825L-31.832 38.4495L-31.499 38.4534L8.68848 38.9934L11.041 37.0159L11.1367 36.9358L11.2607 36.9378L39.5264 37.3176C39.0572 37.0738 38.6914 36.6615 38.5078 36.1614L17.7676 35.8831L17.6436 35.8811L17.5508 35.7991L14.5107 33.1018L-15.3555 32.6995L-18.3428 35.2122L-18.4375 35.2923L-18.5615 35.2903L-31.4551 35.1174L-31.7881 35.1126L-31.7832 34.7796L-31.7725 33.9309L-31.7686 33.5979L-31.4346 33.6018L-18.9814 33.7688L-15.9922 31.2581L-15.8975 31.178L-15.7734 31.1799L7.16699 31.4866L7.09863 31.426L2.65039 27.4778L-2.88965 27.4026L-6.59375 30.5188L-6.68945 30.5989L-6.81348 30.5969L-36.4814 30.1985L-36.8145 30.1936L-36.8096 29.8606L-36.8027 29.3518L-36.7979 29.0188L-36.4648 29.0227L-7.11035 29.4163L-3.4043 26.303L-3.30957 26.2229L-3.18555 26.2249L2.66211 26.303L5.97461 23.4563C5.83887 23.1675 5.76326 22.8451 5.76758 22.5051C5.78315 21.3032 6.77517 20.3404 7.97656 20.3557ZM87.4492 41.846C87.1871 41.8427 86.9504 41.9535 86.7861 42.1321L87.4463 42.1419L87.7793 42.1467L87.7754 42.4798L87.7686 42.9885L87.7637 43.3225L87.4307 43.3176L86.7715 43.3079C86.9311 43.4913 87.1639 43.6099 87.4258 43.6135C87.914 43.6199 88.3157 43.2285 88.3223 42.7415C88.3286 42.2542 87.9372 41.8525 87.4492 41.846ZM49.1406 40.8508C48.8924 40.8475 48.6677 40.9504 48.5078 41.1165L49.1367 41.1253L49.4697 41.1301L49.4658 41.4622L49.46 41.971L49.4561 42.3049L49.1221 42.301L48.4912 42.2923C48.6468 42.4632 48.8695 42.573 49.1182 42.5764C49.594 42.5827 49.9864 42.1998 49.9932 41.7258C49.9996 41.2518 49.6161 40.8573 49.1406 40.8508ZM40.5244 33.9719C39.9971 33.965 39.5304 34.2402 39.2676 34.6565L39.4873 34.6594C39.7248 34.3481 40.1009 34.149 40.5215 34.1546C41.2272 34.164 41.7937 34.7433 41.7842 35.4495C41.7745 36.155 41.194 36.7204 40.4883 36.7112C40.0655 36.7055 39.6938 36.4938 39.4648 36.1741L39.2471 36.1712C39.4982 36.5954 39.9566 36.8848 40.4844 36.8919C41.2897 36.9024 41.9541 36.2552 41.9648 35.4514C41.9753 34.6474 41.3292 33.9828 40.5244 33.9719ZM40.8438 35.013L40.8311 35.8596L40.8291 35.9485C40.9989 35.8417 41.1141 35.6558 41.1172 35.4407C41.1201 35.2264 41.0109 35.0366 40.8447 34.9251L40.8438 35.013ZM39.8926 35.4241C39.8922 35.4543 39.8955 35.4838 39.8994 35.513L40.1689 35.5169L40.1719 35.3362L39.9023 35.3323C39.8974 35.3622 39.893 35.3929 39.8926 35.4241ZM39.043 35.4124C39.0426 35.4422 39.0445 35.4718 39.0459 35.5012L39.2285 35.5042C39.2269 35.4748 39.2252 35.4452 39.2256 35.4153C39.226 35.3845 39.2289 35.3537 39.2314 35.3235L39.0488 35.3206C39.0465 35.3509 39.0434 35.3816 39.043 35.4124ZM-18.6475 34.3596L-18.7422 34.4397L-18.8662 34.4378L-31.1104 34.2727L-31.1133 34.4544L-18.6777 34.6214L-15.6885 32.1106L-15.5938 32.0305L-15.4697 32.0325L14.6445 32.4368L14.7686 32.4387L14.8613 32.5208L17.9004 35.2171L38.3799 35.4924C38.379 35.4629 38.3766 35.4334 38.377 35.4036C38.3774 35.3729 38.3801 35.3421 38.3818 35.3118L18.0947 35.0393L17.9707 35.0374L17.8779 34.9553L14.8379 32.2571L-15.6592 31.8469L-18.6475 34.3596ZM68.4814 27.5491C68.0302 27.5434 67.6328 27.7863 67.4209 28.1507L67.6348 28.1536C67.824 27.8932 68.1329 27.7262 68.4785 27.7307H68.4795C69.0433 27.7398 69.4957 28.2026 69.4883 28.7678C69.4805 29.3329 69.015 29.7847 68.4512 29.7776C68.1047 29.7731 67.801 29.5954 67.6191 29.3294L67.4043 29.3264C67.6059 29.6975 67.9967 29.9533 68.4482 29.9592H68.4492C69.1131 29.9683 69.6611 29.4333 69.6709 28.7698C69.6803 28.1069 69.1465 27.5578 68.4814 27.5491ZM68.7969 28.8782C68.8111 28.8407 68.8216 28.8012 68.8223 28.759C68.8228 28.716 68.8144 28.6745 68.8008 28.636L68.7969 28.8782ZM-2.28516 16.6262L24.1924 16.9817L24.3164 16.9837L24.4092 17.0657L27.2637 19.5999C27.605 19.4299 27.9906 19.3356 28.3975 19.3411C29.7622 19.3598 30.8583 20.4845 30.8398 21.8489C30.8211 23.213 29.6955 24.3073 28.3311 24.2893C26.9661 24.2708 25.8702 23.1461 25.8887 21.7815C25.8925 21.5027 25.9434 21.2357 26.0322 20.9866L23.6006 18.8274L12.7119 18.6809L20.2432 25.3655L36.7441 25.5872L40.9248 22.0715C40.6786 21.6264 40.5386 21.1148 40.5459 20.5706C40.5684 18.8992 41.9463 17.5599 43.6182 17.5823C45.2902 17.6048 46.6309 18.9813 46.6084 20.6526C46.5857 22.3239 45.2079 23.6633 43.5361 23.6409C42.8336 23.6314 42.1908 23.3804 41.6816 22.971L37.2598 26.6887L37.165 26.7688L37.041 26.7669L19.9131 26.5364L19.7891 26.5344L19.6963 26.4524L10.9121 18.6565L-1.74512 18.4866L-10.8232 26.1204L-10.918 26.1995L-11.042 26.1985L-36.4238 25.8577L-36.7568 25.8528L-36.752 25.5198L-36.7363 24.3323L-36.7314 23.9993L-36.3984 24.0032L-11.583 24.3362L-2.50391 16.7044L-2.40918 16.6243L-2.28516 16.6262ZM-11.249 24.927L-11.3438 25.0061L-11.4678 25.0051L-36.0742 24.6741L-36.082 25.1946L-11.1572 25.5296L-2.07812 17.8977L-1.9834 17.8176L-1.85938 17.8196L10.1514 17.9807L10.1123 17.9456L10.334 17.6965L10.54 17.4641L-2.1709 17.2932L-11.249 24.927ZM28.3887 20.0081C28.1901 20.0054 27.998 20.0351 27.8184 20.0921L28.3125 20.5305C28.3353 20.5296 28.3587 20.5283 28.3818 20.5286C29.0916 20.5384 29.6607 21.1229 29.6514 21.8323C29.6419 22.5424 29.0561 23.111 28.3467 23.1018C27.677 23.0929 27.133 22.5718 27.0811 21.9173L26.5879 21.4788C26.5687 21.58 26.5571 21.6839 26.5557 21.7903C26.5422 22.7863 27.3425 23.6088 28.3398 23.6223C29.3369 23.6355 30.1594 22.8349 30.1729 21.8391C30.1861 20.8435 29.3856 20.0218 28.3887 20.0081ZM7.96191 21.5305C7.40878 21.5231 6.95184 21.9685 6.94434 22.5208C6.9439 22.5543 6.94444 22.5876 6.94727 22.6204L7.81934 21.8723L8.58496 22.763L7.7168 23.5081C7.78692 23.5247 7.8596 23.5354 7.93457 23.5364C8.48764 23.5439 8.94455 23.0994 8.95215 22.5471C8.95959 21.9952 8.51502 21.5383 7.96191 21.5305ZM43.6016 18.7571C42.5788 18.7439 41.7363 19.5644 41.7217 20.5862C41.7184 20.8355 41.7658 21.0737 41.8525 21.2923L42.0098 21.1585C41.9477 20.9805 41.9134 20.7895 41.916 20.5901C41.9284 19.6729 42.6823 18.9401 43.5996 18.9524C44.5167 18.9649 45.2505 19.7171 45.2383 20.634C45.2259 21.5512 44.4719 22.284 43.5547 22.2717C43.2675 22.2679 42.9986 22.1911 42.7646 22.0598L42.6104 22.1907C42.8852 22.3594 43.2064 22.4605 43.5518 22.4651C44.5752 22.4787 45.419 21.6577 45.4326 20.636C45.4459 19.6143 44.625 18.7715 43.6016 18.7571ZM28.2676 22.4241C28.2963 22.4286 28.3256 22.4344 28.3555 22.4348C28.6978 22.4391 28.9808 22.1644 28.9854 21.8235C28.9862 21.7619 28.9741 21.7032 28.958 21.6467L28.2676 22.4241ZM28.1152 21.2473C27.9499 21.3201 27.8232 21.463 27.7705 21.638L27.9404 21.7883L28.2861 21.3987L28.1152 21.2473ZM43.5898 19.6184C43.0404 19.6113 42.5894 20.0504 42.582 20.5989C42.5817 20.6249 42.5833 20.6505 42.585 20.676L43.1982 20.1614L43.4521 19.9475L43.667 20.2014L43.9951 20.5901L44.2109 20.846L43.9551 21.0608L43.3398 21.5764C43.4117 21.594 43.4864 21.6047 43.5635 21.6057C44.1131 21.6131 44.5649 21.1738 44.5723 20.6253C44.5796 20.0767 44.1394 19.6258 43.5898 19.6184ZM11.917 0.000259399C13.5441 0.0217989 14.8505 1.36334 14.8291 2.98952C14.8074 4.61585 13.4646 5.92108 11.8379 5.89967C11.2222 5.89152 10.6528 5.69357 10.1836 5.36354L5.53809 9.26979L5.44336 9.34889L5.31934 9.34792L-3.94238 9.22292L-7.77734 12.4456L35.7188 13.0315C35.9641 12.3893 36.5849 11.933 37.3135 11.9329C38.2568 11.9329 39.0224 12.6967 39.0225 13.6399C39.0225 14.5832 38.2568 15.3479 37.3135 15.3479C36.5691 15.3477 35.9379 14.8707 35.7041 14.2063L-9.15234 13.6028L-18.1533 21.1702L-18.249 21.2503L-18.373 21.2483L-36.3574 21.0061L-36.6904 21.0022L-36.6855 20.6692L-36.6748 19.8215L-36.6709 19.4876L-36.3369 19.4924L-18.792 19.7278L-4.58105 7.78053L-4.48633 7.70143L-4.3623 7.70241L4.89941 7.82741L9.20996 4.20338C9.02442 3.8108 8.91974 3.37287 8.92578 2.91042C8.94727 1.28392 10.2903 -0.021043 11.917 0.000259399ZM27.1992 20.4348C27.0662 20.547 26.9497 20.6778 26.8535 20.8235L27.248 21.1731C27.3359 21.0211 27.4549 20.8899 27.5947 20.7854L27.1992 20.4348ZM-18.458 20.3176L-18.5527 20.3977L-18.6768 20.3958L-36.0127 20.1633L-36.0156 20.344L-18.4883 20.5794L-9.96191 13.4124L-9.95898 13.1712L-18.458 20.3176ZM11.9502 18.0042L23.7344 18.1633L23.8584 18.1643L23.9512 18.2473L26.3506 20.3772C26.4522 20.2355 26.5688 20.1057 26.6973 19.9885L24.0586 17.6467L11.3535 17.4749L11.9502 18.0042ZM37.3135 12.5989C36.9611 12.599 36.6495 12.7738 36.4609 13.0413L37.6553 13.0579L37.6387 14.2327L36.4453 14.2161C36.632 14.4962 36.9513 14.6808 37.3135 14.6809C37.8891 14.6809 38.3555 14.2145 38.3555 13.6399C38.3554 13.0654 37.8891 12.5989 37.3135 12.5989ZM5.2334 8.41823L5.13867 8.49831L5.01465 8.49635L-4.24805 8.37038L-9.07617 12.429L-8.79688 12.4319L-4.27539 8.63307L-4.18066 8.55299L-4.05664 8.55495L5.2041 8.67897L9.68164 4.91335C9.64142 4.86846 9.60092 4.82391 9.56348 4.77663L5.2334 8.41823ZM11.9082 0.667252C10.6488 0.650782 9.6094 1.66168 9.59277 2.9192C9.58893 3.21384 9.64327 3.49585 9.74219 3.75612L9.89062 3.63112C9.81408 3.40872 9.77114 3.17058 9.77441 2.92213C9.79005 1.76267 10.7464 0.833556 11.9062 0.848892C13.066 0.864573 13.9959 1.81917 13.9805 2.97878C13.9646 4.13808 13.0094 5.06745 11.8496 5.05202C11.4927 5.04718 11.1578 4.95254 10.8652 4.79128L10.7188 4.91335C11.0504 5.10965 11.4346 5.22721 11.8467 5.23268C13.106 5.24925 14.1452 4.23809 14.1621 2.98073C14.1787 1.72283 13.1673 0.683942 11.9082 0.667252ZM10.0742 4.34694C10.1114 4.39478 10.1506 4.44089 10.1914 4.48561L10.3301 4.3694C10.2891 4.32481 10.2499 4.27872 10.2129 4.23073L10.0742 4.34694ZM11.8965 1.51491C11.1047 1.50471 10.4522 2.14021 10.4414 2.93092C10.4404 3.00694 10.4465 3.08154 10.457 3.15456L11.3906 2.37135L11.6445 2.15651L11.8594 2.41139L12.4062 3.05983L12.6221 3.31471L12.3662 3.52956L11.4316 4.31374C11.5662 4.35778 11.7095 4.38298 11.8584 4.38503C12.6505 4.39557 13.3037 3.75998 13.3145 2.96901C13.3248 2.17815 12.6887 1.52545 11.8965 1.51491ZM10.7236 3.80104C10.7598 3.8498 10.798 3.89691 10.8398 3.94069L11.6816 3.23366L11.5645 3.09499L10.7236 3.80104Z" fill="#D6D6D6"/>
</svg>
