<svg width="102" height="340" viewBox="0 0 102 340" fill="none" xmlns="http://www.w3.org/2000/svg">
<path d="M135.196 317.899L135.207 318.746L135.211 319.08L134.878 319.084L117.333 319.321L103.449 331.645L103.356 331.727L103.232 331.729L86.2295 331.957L81.4385 336.209C81.5347 336.452 81.592 336.715 81.5957 336.99C81.6118 338.208 80.6345 339.211 79.417 339.228C78.1992 339.244 77.1945 338.268 77.1777 337.05C77.1614 335.833 78.1386 334.829 79.3564 334.813C79.7454 334.808 80.1124 334.904 80.4326 335.076L85.5527 330.532L85.6455 330.45L85.7695 330.449L102.771 330.22L106.517 326.895L69.249 327.397L69.1104 327.399L69.0117 327.302L65.2988 323.69C64.871 323.929 64.3584 324.021 63.8418 323.907C62.7254 323.661 62.0199 322.557 62.2666 321.441C62.5135 320.325 63.6183 319.62 64.7344 319.866C65.8506 320.113 66.556 321.217 66.3096 322.333C66.2689 322.517 66.2027 322.689 66.1191 322.848L69.5801 326.216L107.861 325.7L116.656 317.895L116.749 317.813L116.873 317.811L134.858 317.57L135.191 317.565L135.196 317.899ZM79.3652 335.479C78.5152 335.49 77.8322 336.192 77.8438 337.041C77.8555 337.89 78.5572 338.573 79.4072 338.562C80.2571 338.55 80.94 337.848 80.9287 336.999C80.9273 336.895 80.914 336.792 80.8926 336.694L80.7314 336.837C80.7388 336.891 80.7453 336.946 80.7461 337.002C80.7564 337.752 80.1542 338.369 79.4053 338.38C78.6551 338.391 78.0362 337.789 78.0254 337.039C78.0149 336.289 78.6179 335.672 79.3672 335.661C79.4907 335.66 79.6104 335.675 79.7246 335.704L79.8848 335.563C79.7218 335.507 79.5472 335.476 79.3652 335.479ZM78.7334 336.789C78.7064 336.865 78.6912 336.946 78.6924 337.031C78.6983 337.412 79.014 337.72 79.3955 337.714C79.4453 337.713 79.4934 337.705 79.54 337.695L79.4189 337.559L78.8545 336.925L78.7334 336.789ZM79.5742 336.731L79.6943 336.865L79.958 336.631C79.9236 336.581 79.8819 336.537 79.8359 336.497L79.5742 336.731ZM80.3389 336.051C80.3818 336.093 80.4209 336.139 80.458 336.187L80.5947 336.066C80.5573 336.018 80.5172 335.973 80.4746 335.931L80.3389 336.051ZM107.537 326.881L103.122 330.801L103.029 330.883L102.905 330.885L85.9033 331.114L80.9727 335.489C81.0145 335.532 81.0555 335.576 81.0938 335.622L85.8799 331.377L85.9727 331.294L86.0967 331.293L103.099 331.063L107.813 326.877L107.537 326.881ZM117.006 318.476L108.676 325.869L108.679 326.024L108.68 326.109L116.983 318.74L117.076 318.657L117.2 318.656L134.535 318.422L134.533 318.24L117.006 318.476ZM64.5908 320.518C63.8337 320.351 63.0844 320.828 62.917 321.584C62.7499 322.34 63.2281 323.09 63.9854 323.257C64.2647 323.319 64.5427 323.292 64.791 323.197L63.873 322.303L63.6338 322.071L63.8672 321.831L64.2217 321.468L64.4541 321.23L64.6934 321.461L65.6104 322.353C65.6289 322.3 65.6458 322.246 65.6582 322.19C65.8251 321.434 65.3479 320.685 64.5908 320.518ZM135.13 313.048L135.146 314.236L135.15 314.57L134.817 314.574L110.003 314.907L101.133 322.782L101.04 322.864L100.916 322.865L78.3076 323.169L78.1836 323.171L78.0889 323.091L75.6357 321.029C75.1749 321.32 74.6329 321.495 74.0488 321.503C72.3641 321.525 70.9746 320.174 70.9521 318.49C70.93 316.806 72.283 315.417 73.9678 315.395C75.6523 315.373 77.0416 316.724 77.0645 318.407C77.0701 318.834 76.9868 319.241 76.833 319.613L78.8486 321.308L85.8682 321.213L78.1611 314.734L50.2266 315.11L47.3164 318.096C47.5897 318.512 47.7534 319.006 47.7607 319.539C47.7812 321.031 46.5835 322.259 45.0918 322.28C43.5997 322.3 42.3702 321.104 42.3496 319.613C42.3291 318.121 43.5269 316.893 45.0186 316.872C45.5519 316.865 46.0506 317.015 46.4736 317.277L49.6279 314.04L49.7246 313.942L49.8623 313.94L78.459 313.555L78.583 313.553L78.6777 313.633L87.666 321.189L100.323 321.019L109.194 313.145L109.287 313.062L109.411 313.061L134.793 312.72L135.126 312.715L135.13 313.048ZM76.5029 320.205C76.4021 320.348 76.2912 320.482 76.168 320.606L78.4229 322.501L87.2578 322.381L86.6484 321.869L78.7344 321.976L78.6104 321.978L78.5156 321.898L76.5029 320.205ZM109.544 313.725L100.674 321.6L100.581 321.683L100.457 321.684L88.4463 321.845L88.4863 321.878L88.2715 322.134L88.0713 322.37L100.782 322.199L109.653 314.325L109.746 314.243L109.87 314.241L134.475 313.91L134.468 313.39L109.544 313.725ZM45.0352 318.047C44.1918 318.059 43.5139 318.755 43.5254 319.597C43.5371 320.439 44.2325 321.116 45.0752 321.105C45.9186 321.093 46.5963 320.398 46.585 319.556C46.5821 319.349 46.5381 319.153 46.4609 318.974L45.4756 319.987L45.2432 320.226L45.0049 319.993L44.6396 319.637L44.4004 319.405L44.6338 319.166L45.6182 318.155C45.4378 318.083 45.2408 318.044 45.0352 318.047ZM73.9766 316.062C72.6596 316.079 71.6019 317.165 71.6191 318.481C71.6367 319.796 72.7229 320.853 74.04 320.836C74.4194 320.831 74.776 320.735 75.0928 320.573L74.6504 320.2C74.4575 320.271 74.2501 320.313 74.0332 320.316C73.0038 320.329 72.1541 319.504 72.1406 318.474C72.1274 317.445 72.9534 316.596 73.9834 316.582C75.0129 316.569 75.8624 317.394 75.876 318.424C75.8776 318.546 75.8657 318.666 75.8447 318.782L76.2891 319.156C76.3617 318.922 76.4008 318.674 76.3975 318.417C76.3797 317.102 75.2937 316.044 73.9766 316.062ZM75.5898 319.438C75.4968 319.586 75.3836 319.72 75.2539 319.836L75.6543 320.173C75.7803 320.053 75.8938 319.921 75.9912 319.776L75.5898 319.438ZM73.9922 317.248C73.3305 317.257 72.7982 317.804 72.8066 318.465C72.8151 319.115 73.3444 319.638 73.9922 319.647L73.4111 319.158L73.1562 318.944L73.3711 318.689L74.1357 317.781L74.3506 317.526L74.6055 317.74L75.1885 318.23C75.0837 317.667 74.585 317.241 73.9922 317.248ZM74.0957 318.863L74.7363 319.401C74.8752 319.294 74.9905 319.16 75.0723 319.004L74.4307 318.464L74.0957 318.863ZM83.2168 308.428L87.7686 312.255L101.228 312.074L104.849 308.862L104.941 308.779L105.065 308.778L134.734 308.378L135.067 308.374L135.072 308.707L135.079 309.216L135.084 309.549L134.75 309.554L105.396 309.948L101.774 313.161L101.682 313.244L101.558 313.245L87.4707 313.436L87.3467 313.437L87.252 313.358L82.6992 309.529L61.0137 309.821L57.6836 312.777L57.5908 312.86L57.4668 312.861L39.498 313.102C39.2419 314.525 38.0051 315.617 36.5059 315.637C34.805 315.659 33.4034 314.296 33.3809 312.597C33.3584 310.898 34.7227 309.496 36.4229 309.474C37.9212 309.454 39.1878 310.511 39.4824 311.926L57.1367 311.689L60.4668 308.735L60.5596 308.652L60.6836 308.651L82.9971 308.35L83.1211 308.348L83.2168 308.428ZM36.4385 310.649C35.3864 310.662 34.5422 311.531 34.5566 312.581C34.5714 313.632 35.4384 314.477 36.4902 314.462C37.337 314.45 38.0469 313.886 38.2852 313.118L38.166 313.119C37.9317 313.824 37.2729 314.337 36.4893 314.348C35.4991 314.361 34.6844 313.568 34.6709 312.578C34.6576 311.59 35.4509 310.776 36.4404 310.762C37.2233 310.751 37.8956 311.246 38.1494 311.944L38.2695 311.943C38.0101 311.182 37.285 310.638 36.4385 310.649ZM36.4717 313.143L36.2949 313.145C36.3516 313.161 36.4108 313.172 36.4727 313.171C36.5328 313.17 36.5897 313.157 36.6445 313.14L36.4717 313.143ZM36.124 312.039C35.9547 312.152 35.8438 312.346 35.8467 312.563C35.8496 312.78 35.9657 312.968 36.1367 313.075L36.1338 312.814L36.1279 312.305L36.124 312.039ZM36.4561 311.937C36.3925 311.938 36.3319 311.95 36.2744 311.969L36.4561 311.967L36.6357 311.964C36.5785 311.947 36.5187 311.936 36.4561 311.937ZM23.0352 297.07C23.798 297.07 24.4573 297.509 24.7764 298.148L43.5977 297.896L43.7217 297.894L43.8164 297.974L48.6152 302.007L86.4004 301.499L88.6982 299.459L88.791 299.377L88.915 299.375L129.513 298.83L129.846 298.825L129.851 299.158L129.864 300.176L129.869 300.509L129.536 300.514L89.4414 301.054L87.1436 303.093L87.0508 303.176L86.9268 303.177L48.1348 303.699L48.0107 303.7L47.916 303.62L43.1172 299.585L24.7988 299.832C24.4895 300.498 23.8174 300.96 23.0352 300.96C21.9606 300.96 21.089 300.089 21.0889 299.015C21.0889 297.94 21.9605 297.07 23.0352 297.07ZM24.9707 298.812C24.9776 298.879 24.9814 298.946 24.9814 299.015C24.9814 299.065 24.9773 299.114 24.9736 299.162L43.2324 298.918L43.3564 298.916L43.4512 298.996L48.249 303.031L86.793 302.512L89.0918 300.473L89.1846 300.391L89.3086 300.389L129.193 299.851L129.188 299.5L89.0488 300.04L86.751 302.08L86.6582 302.163L86.5342 302.165L48.501 302.676L48.377 302.677L48.2822 302.598L43.4824 298.563L24.9707 298.812ZM129.792 294.733L129.799 295.241L129.804 295.575L129.47 295.579L104.375 295.916L100.929 298.976L100.836 299.058L100.712 299.06L52.624 299.706C52.3961 300.289 51.8303 300.702 51.167 300.702C50.3029 300.702 49.6018 300.002 49.6016 299.138C49.6016 298.274 50.3028 297.574 51.167 297.574C51.8159 297.574 52.3731 297.968 52.6104 298.531L100.382 297.888L103.829 294.83L103.922 294.747L104.046 294.746L129.454 294.405L129.787 294.4L129.792 294.733ZM23.0352 297.736C22.3282 297.736 21.7549 298.309 21.7549 299.015C21.7551 299.721 22.3283 300.293 23.0352 300.293C23.4253 300.293 23.774 300.118 24.0088 299.843L23.0469 299.857L22.7139 299.861L22.709 299.528L22.6953 298.51L22.6904 298.177L23.0234 298.172L23.9844 298.158C23.7501 297.899 23.412 297.736 23.0352 297.736ZM51.167 298.24C50.6705 298.24 50.2676 298.642 50.2676 299.138C50.2678 299.633 50.6707 300.035 51.167 300.035C51.4423 300.035 51.6878 299.911 51.8525 299.716L51.1748 299.726L50.8418 299.731L50.8369 299.398L50.8301 298.889L50.8252 298.555L51.1582 298.551L51.8379 298.541C51.6734 298.356 51.434 298.24 51.167 298.24ZM23.3652 298.834L23.3711 299.185L24.3047 299.172C24.311 299.121 24.3154 299.068 24.3154 299.015C24.3154 298.949 24.3094 298.885 24.2998 298.822L23.3652 298.834ZM79.8955 289.38C80.5608 289.38 81.1309 289.787 81.3711 290.365L96.5068 290.162L96.5898 290.089L96.6533 290.16L129.725 289.716L129.741 290.891L96.9609 291.331L92.9385 294.903L92.8457 294.985L92.7217 294.987L43.4766 295.65L43.3525 295.651L43.2578 295.571L38.9473 291.947L0.413086 292.466L0.0791016 292.471L0.0751953 292.137L0.0683594 291.628L0.0634766 291.294L0.396484 291.29L39.2461 290.768L39.3701 290.767L39.4648 290.846L43.7734 294.469L92.3916 293.815L95.1621 291.356L81.3877 291.54C81.1594 292.143 80.5786 292.572 79.8955 292.573C79.0138 292.572 78.2991 291.858 78.2988 290.977C78.2989 290.095 79.0137 289.38 79.8955 289.38ZM72.6553 281.574L77.3477 285.519L129.324 284.821L129.657 284.816L129.658 284.817L129.663 285.15L129.679 286.337L129.684 286.67L129.351 286.675L77.373 287.372L72.7871 291.445L72.6943 291.527L72.5703 291.529L64.6602 291.634C64.2975 292.837 63.2178 293.734 61.9131 293.819L61.7549 293.824C60.1111 293.846 58.7458 292.57 58.6406 290.948L58.6348 290.789C58.6123 289.093 59.9739 287.695 61.6719 287.671C63.0466 287.652 64.2233 288.541 64.6348 289.781L71.9775 289.681L75.5977 286.468L71.8945 283.356L58.4697 283.537L53.7451 287.614L53.6533 287.693L53.5322 287.695L0.358398 288.408L0.0253906 288.413L0.0205078 288.08L0.00488281 286.893L0 286.56L0.333008 286.555L52.9531 285.846L57.6777 281.772L57.7695 281.693L57.8906 281.691L72.4355 281.495L72.5596 281.493L72.6553 281.574ZM61.6807 288.338C60.3504 288.357 59.2842 289.453 59.3018 290.781C59.3205 292.109 60.4168 293.175 61.7461 293.157C62.7478 293.143 63.599 292.518 63.9512 291.644L63.3701 291.652C63.0533 292.23 62.4438 292.628 61.7373 292.637C60.6948 292.65 59.8371 291.815 59.8223 290.774V290.773C59.8091 289.731 60.6441 288.872 61.6875 288.859C62.3928 288.85 63.0124 289.229 63.3447 289.798L63.9248 289.79C63.5486 288.926 62.6817 288.324 61.6807 288.338ZM61.6953 289.525C61.021 289.534 60.4799 290.09 60.4883 290.764C60.4978 291.437 61.0542 291.98 61.7295 291.971C62.0336 291.967 62.3098 291.851 62.5215 291.663L61.7246 291.674L61.3916 291.679L61.3867 291.345L61.3711 290.158L61.3662 289.824L61.6992 289.821L62.4941 289.809C62.2775 289.629 61.9986 289.521 61.6953 289.525ZM79.8955 290.046C79.3815 290.046 78.9649 290.464 78.9648 290.977C78.9651 291.49 79.3816 291.906 79.8955 291.907C80.1924 291.906 80.4564 291.767 80.627 291.551L79.5713 291.566L79.5557 290.391L80.6064 290.376C80.4356 290.175 80.1805 290.046 79.8955 290.046ZM62.041 290.482L62.0488 291.002L62.9111 290.99C62.9281 290.907 62.9376 290.82 62.9365 290.732L62.9287 290.607C62.9233 290.56 62.9138 290.515 62.9033 290.47L62.041 290.482ZM63.5781 290.46C63.5913 290.546 63.6013 290.633 63.6025 290.722V290.723C63.6036 290.81 63.5964 290.896 63.5859 290.981L64.1143 290.974C64.1222 290.889 64.1262 290.802 64.125 290.715C64.1238 290.627 64.117 290.539 64.1064 290.453L63.5781 290.46ZM72.3291 290.263L72.2363 290.345L72.1123 290.347L64.7764 290.445C64.7849 290.531 64.7908 290.618 64.792 290.706C64.7932 290.793 64.7892 290.88 64.7832 290.965L72.4355 290.863L76.5166 287.24L76.1143 286.903L72.3291 290.263ZM58.0205 282.356L53.2969 286.431L53.2051 286.51L53.083 286.512L0.674805 287.217L0.682617 287.738L53.4023 287.029L58.127 282.953L58.2188 282.874L58.3398 282.872L72.0098 282.689L72.1338 282.687L72.2285 282.767L76.1016 286.022L76.4951 285.672L72.3203 282.162L58.0205 282.356ZM77.2344 286.188L77.1094 286.189L76.916 286.192L76.6172 286.455L76.9229 286.712L129.007 286.011L128.999 285.491L77.2344 286.188ZM92.7051 277.574L96.6172 280.863L129.601 280.419L129.621 281.934L86.0361 282.52C85.7288 283.54 84.7874 284.292 83.666 284.307C82.2822 284.325 81.1406 283.216 81.1221 281.832V281.828C81.1054 280.446 82.2155 279.308 83.5986 279.289C84.717 279.275 85.6768 279.997 86.0137 281.005L94.8184 280.887L92.1885 278.674L43.5703 279.329L39.3594 283.067L39.2666 283.149L39.1426 283.151L29.2695 283.283C29.0404 283.908 28.4462 284.36 27.7422 284.368C26.8894 284.379 26.1736 283.739 26.0781 282.907L26.0674 282.74C26.0549 281.829 26.7863 281.078 27.6973 281.067C28.3996 281.058 29.006 281.49 29.2529 282.107L38.8125 281.979L43.0244 278.241L43.1172 278.159L43.2412 278.157L92.4854 277.496L92.6094 277.494L92.7051 277.574ZM83.6074 279.956C82.5914 279.97 81.7756 280.807 81.7891 281.823V281.824L81.8008 282.012C81.908 282.937 82.7044 283.654 83.6572 283.641C84.4043 283.631 85.0409 283.174 85.3213 282.53L85.1201 282.532C84.8517 283.073 84.2988 283.448 83.6553 283.457C82.7393 283.47 81.9832 282.735 81.9707 281.82C81.9583 280.904 82.6945 280.149 83.6104 280.137C84.2523 280.128 84.8141 280.487 85.0977 281.018L85.2979 281.015C84.9987 280.382 84.3518 279.947 83.6074 279.956ZM27.3809 282.381C27.294 282.469 27.2414 282.591 27.2432 282.724C27.2452 282.856 27.3019 282.975 27.3906 283.06L27.3896 282.976L27.3828 282.466L27.3809 282.381ZM83.6191 280.803C83.0708 280.81 82.6302 281.264 82.6377 281.811C82.6453 282.358 83.0984 282.799 83.6465 282.791C83.8922 282.788 84.1155 282.694 84.2871 282.543L83.3105 282.557L83.29 281.042L84.2617 281.029C84.0867 280.885 83.8625 280.8 83.6191 280.803ZM83.9648 281.699L83.9678 281.882L84.623 281.872C84.6253 281.843 84.6274 281.813 84.627 281.783C84.6265 281.752 84.6235 281.721 84.6201 281.69L83.9648 281.699ZM85.2871 281.681C85.2893 281.712 85.2935 281.743 85.2939 281.775C85.2944 281.805 85.2912 281.834 85.29 281.864L85.4717 281.862C85.4727 281.832 85.476 281.803 85.4756 281.774C85.4752 281.742 85.4708 281.71 85.4688 281.679L85.2871 281.681ZM86.1357 281.669C86.1374 281.701 86.1422 281.733 86.1426 281.765C86.143 281.794 86.1393 281.823 86.1387 281.852L95.8125 281.722L95.5986 281.542L86.1357 281.669ZM97.1279 281.522L97.0273 281.643L96.9727 281.707L128.945 281.278L128.942 281.095L97.1279 281.522ZM48.4854 272.456C49.4061 272.444 50.1928 273.046 50.457 273.881L100.364 273.21L100.488 273.208L100.583 273.288L104.108 276.253L129.205 275.915L129.538 275.91L129.543 276.244L129.55 276.752L129.555 277.086L129.221 277.09L103.812 277.432L103.688 277.434L103.594 277.354L100.065 274.389L50.4727 275.057C50.2308 275.898 49.4607 276.52 48.541 276.532C47.4158 276.548 46.4892 275.646 46.4736 274.522C46.4583 273.398 47.3607 272.472 48.4854 272.456ZM89.665 253.137C90.8673 253.122 91.8583 254.084 91.874 255.286C91.8787 255.626 91.8021 255.947 91.667 256.236L94.9834 259.085L100.828 259.007L100.952 259.005L101.047 259.085L104.752 262.199L134.107 261.805L134.44 261.801L134.445 262.134L134.452 262.643L134.456 262.976L134.123 262.981L104.454 263.379L104.33 263.381L104.235 263.301L100.529 260.185L94.9912 260.26L90.543 264.208L90.4736 264.269L113.416 263.962L113.54 263.96L113.635 264.04L116.622 266.551L129.076 266.384L129.409 266.38L129.413 266.713L129.426 267.562L129.431 267.895L129.097 267.9L116.203 268.073L116.079 268.074L115.984 267.994L112.996 265.482L83.1299 265.884L80.0908 268.581L79.998 268.663L79.874 268.665L59.1328 268.944C58.949 269.443 58.5842 269.855 58.1152 270.099L86.3828 269.719L86.5068 269.717L86.6016 269.797L88.9521 271.775L129.143 271.235L129.476 271.231L129.48 271.564L129.487 272.073L129.491 272.406L129.158 272.41L88.6562 272.954L88.5322 272.956L88.4365 272.876L86.084 270.898L43.2725 271.474L38.583 275.636L38.4902 275.718L38.3662 275.72L11.6445 276.079C11.4202 276.647 10.8715 277.052 10.2236 277.061C9.36824 277.072 8.66407 276.388 8.65234 275.532C8.6411 274.676 9.32691 273.973 10.1826 273.961C10.8305 273.953 11.3894 274.343 11.6289 274.904L38.0352 274.549L42.7256 270.387L42.8184 270.305L42.9424 270.303L56.2109 270.124C55.5106 269.784 55.0217 269.072 55.0107 268.241C54.9955 267.069 55.9364 266.103 57.1094 266.087C58.0147 266.075 58.7951 266.634 59.1123 267.429L79.4131 267.156L82.4531 264.458L82.5215 264.397L51.9648 264.808L51.8408 264.81L51.7451 264.73L48.3379 261.865L30.9619 262.099C30.7247 262.847 30.0292 263.395 29.2031 263.407C28.1708 263.421 27.3193 262.592 27.3047 261.561V261.557C27.2929 260.526 28.1205 259.678 29.1514 259.664C29.9775 259.654 30.6873 260.182 30.9453 260.923L48.6348 260.686L48.7588 260.684L48.8535 260.764L52.2617 263.629L89.9951 263.121L93.874 259.68L90.9023 257.126C90.5638 257.353 90.1595 257.488 89.7227 257.494C88.5194 257.511 87.5304 256.547 87.5137 255.345C87.4973 254.143 88.4619 253.152 89.665 253.137ZM10.1914 274.627C9.7034 274.634 9.31224 275.035 9.31836 275.523C9.32489 276.01 9.72665 276.401 10.2148 276.395C10.4772 276.391 10.7104 276.273 10.8701 276.089L10.2119 276.099L9.87793 276.104L9.87402 275.77L9.86719 275.261L9.8623 274.928L10.1953 274.923L10.8535 274.913C10.6892 274.735 10.4532 274.624 10.1914 274.627ZM48.502 273.631C48.0259 273.638 47.644 274.031 47.6504 274.506V274.515C47.6617 274.986 48.0511 275.363 48.5244 275.357C48.772 275.353 48.993 275.244 49.1484 275.074L48.5205 275.083L48.1875 275.087L48.1826 274.754L48.1758 274.245L48.1709 273.912L48.5039 273.907L49.1367 273.899C48.9768 273.732 48.7512 273.628 48.502 273.631ZM57.1182 266.753C56.3133 266.764 55.6664 267.429 55.6768 268.233C55.6873 269.037 56.3527 269.684 57.1582 269.673C57.6853 269.666 58.1416 269.377 58.3926 268.953L58.1758 268.956C57.9466 269.275 57.5758 269.487 57.1543 269.492C56.4493 269.502 55.8679 268.935 55.8584 268.231C55.849 267.526 56.4164 266.945 57.1211 266.936C57.5415 266.93 57.9169 267.131 58.1543 267.442L58.373 267.439C58.1106 267.022 57.6454 266.746 57.1182 266.753ZM56.7969 267.706C56.6309 267.818 56.5226 268.008 56.5254 268.222C56.5283 268.435 56.6421 268.621 56.8105 268.729L56.8096 268.642L56.7988 267.794L56.7969 267.706ZM57.4688 268.118L57.4717 268.299L57.7412 268.295C57.7452 268.266 57.7504 268.236 57.75 268.205C57.7496 268.174 57.7432 268.144 57.7383 268.115L57.4688 268.118ZM58.4102 268.106C58.4127 268.136 58.4166 268.166 58.417 268.197C58.4174 268.227 58.4148 268.257 58.4131 268.286L58.5947 268.283C58.5961 268.254 58.599 268.224 58.5986 268.194C58.5982 268.163 58.5941 268.133 58.5918 268.103L58.4102 268.106ZM82.8027 265.039L79.7637 267.738L79.6709 267.82L79.5469 267.822L59.2588 268.094C59.2605 268.124 59.2652 268.154 59.2656 268.185C59.266 268.215 59.2626 268.245 59.2617 268.275L79.7402 267.999L82.7803 265.303L82.873 265.221L82.9971 265.219L113.111 264.815L113.235 264.813L113.331 264.893L116.317 267.404L128.754 267.237L128.751 267.055L116.508 267.22L116.384 267.222L116.289 267.142L113.301 264.629L82.8027 265.039ZM29.1602 260.33C28.4963 260.339 27.9622 260.887 27.9707 261.551V261.552L27.9795 261.675C28.0502 262.28 28.5713 262.749 29.1934 262.74C29.644 262.734 30.0334 262.479 30.2354 262.109L30.0205 262.112C29.8388 262.377 29.5364 262.554 29.1904 262.559C28.6262 262.566 28.1599 262.115 28.1523 261.549C28.1449 260.985 28.5977 260.52 29.1631 260.512C29.5086 260.508 29.8169 260.675 30.0059 260.936L30.2188 260.933C30.0066 260.569 29.6105 260.324 29.1602 260.33ZM28.8408 261.414C28.8266 261.454 28.8188 261.496 28.8193 261.54C28.8199 261.584 28.8298 261.625 28.8447 261.663L28.8408 261.414ZM100.146 249.486L109.225 257.117L134.04 256.784L134.373 256.781L134.378 257.114L134.394 258.301L134.398 258.634L134.064 258.639L108.684 258.98L108.56 258.981L108.465 258.902L99.3848 251.268L86.7285 251.438L77.9463 259.235L77.8535 259.317L77.7295 259.319L60.5996 259.549L60.4756 259.551L60.3809 259.471L55.958 255.753C55.4492 256.162 54.808 256.413 54.1064 256.422C52.4356 256.445 51.0568 255.104 51.0342 253.434C51.0119 251.764 52.3534 250.386 54.0244 250.364C55.6951 250.341 57.074 251.682 57.0967 253.352C57.104 253.896 56.9635 254.408 56.7168 254.854L60.8975 258.369L77.3984 258.148L84.9297 251.462L74.041 251.609L71.6084 253.767C71.6976 254.016 71.7501 254.283 71.7539 254.563C71.7724 255.927 70.6765 257.052 69.3115 257.071C67.9469 257.089 66.8214 255.994 66.8027 254.63C66.7845 253.266 67.8804 252.141 69.2451 252.122C69.6513 252.117 70.036 252.212 70.377 252.381L73.2334 249.847L73.3262 249.765L73.4502 249.763L99.9277 249.407L100.052 249.406L100.146 249.486ZM87.0996 250.245L87.3066 250.479L87.5283 250.729L87.4902 250.762L99.5 250.601L99.624 250.599L99.7197 250.679L108.798 258.311L133.722 257.976L133.715 257.455L109.11 257.786L108.986 257.787L108.892 257.708L99.8125 250.074L87.0996 250.245ZM69.2539 252.789C68.257 252.803 67.4567 253.625 67.4697 254.62C67.4832 255.616 68.3055 256.417 69.3027 256.404C70.3 256.39 71.1004 255.568 71.0869 254.572C71.0854 254.465 71.0719 254.361 71.0527 254.26L70.5605 254.698C70.5092 255.353 69.966 255.874 69.2959 255.883C68.5863 255.892 68.0007 255.324 67.9912 254.614C67.9821 253.904 68.5509 253.319 69.2607 253.31C69.2829 253.31 69.3052 253.312 69.3271 253.313L69.8213 252.873C69.6423 252.817 69.4515 252.787 69.2539 252.789ZM89.6797 254.312C89.1265 254.319 88.6822 254.776 88.6895 255.328C88.697 255.881 89.1539 256.325 89.707 256.318C89.783 256.317 89.8567 256.306 89.9277 256.289L89.0557 255.54L89.8223 254.651L90.6934 255.399C90.696 255.367 90.6977 255.335 90.6973 255.302C90.6896 254.75 90.2327 254.304 89.6797 254.312ZM54.04 251.538C53.0172 251.552 52.1968 252.396 52.21 253.417C52.2235 254.439 53.0673 255.26 54.0908 255.246C54.4354 255.242 54.7557 255.141 55.0303 254.973L54.8721 254.84C54.6393 254.97 54.3721 255.046 54.0869 255.05C53.1698 255.062 52.4166 254.329 52.4043 253.412C52.3921 252.495 53.1257 251.742 54.043 251.73C54.96 251.718 55.713 252.451 55.7256 253.367C55.7283 253.569 55.693 253.761 55.6299 253.941L55.7891 254.074C55.8761 253.856 55.9242 253.617 55.9209 253.367C55.9071 252.346 55.0633 251.525 54.04 251.538ZM68.6826 254.429C68.6667 254.485 68.6565 254.544 68.6572 254.605C68.6618 254.946 68.9447 255.221 69.2871 255.216C69.3167 255.216 69.3456 255.211 69.374 255.206L68.6826 254.429ZM69.3545 254.18L69.7002 254.57L69.8701 254.418C69.8168 254.243 69.6904 254.101 69.5244 254.029L69.3545 254.18ZM54.0518 252.396C53.5022 252.403 53.063 252.855 53.0703 253.404C53.0777 253.952 53.5286 254.391 54.0781 254.384C54.1531 254.383 54.2259 254.372 54.2959 254.356L53.6855 253.843L53.4307 253.628L53.6455 253.373L53.9736 252.984L54.1875 252.729L54.4434 252.943L55.0566 253.458C55.0585 253.431 55.0599 253.405 55.0596 253.377C55.0522 252.829 54.6013 252.388 54.0518 252.396ZM85.7246 232.782C87.3522 232.761 88.6942 234.065 88.7158 235.693C88.7219 236.155 88.6168 236.592 88.4316 236.985L92.7412 240.608L102.003 240.484L102.127 240.483L102.222 240.562L116.432 252.508L133.979 252.274L134.312 252.269L134.316 252.603L134.328 253.45L134.332 253.783L133.999 253.787L116.014 254.03L115.89 254.032L115.795 253.951L106.791 246.382L61.9395 246.985C61.7063 247.651 61.0739 248.129 60.3281 248.129C59.3849 248.129 58.6201 247.364 58.6201 246.421C58.6204 245.478 59.3851 244.714 60.3281 244.714C61.0555 244.714 61.6753 245.169 61.9219 245.81L105.415 245.225L101.584 242.004L92.3223 242.129L92.1982 242.13L92.1035 242.051L87.458 238.146C86.9889 238.476 86.4197 238.674 85.8037 238.682C84.177 238.703 82.8341 237.399 82.8125 235.772C82.7912 234.146 84.0964 232.804 85.7246 232.782ZM70.0459 253.566C70.1862 253.67 70.3044 253.802 70.3926 253.954L70.7871 253.605C70.6905 253.459 70.574 253.327 70.4404 253.215L70.0459 253.566ZM107.604 246.195L116.128 253.361L133.656 253.125L133.654 252.945L116.318 253.177L116.194 253.179L116.1 253.099L107.602 245.954L107.604 246.195ZM73.583 250.428L70.9424 252.77C71.0712 252.887 71.1882 253.017 71.29 253.158L73.6914 251.029L73.7842 250.946L73.9082 250.945L85.6914 250.785L86.2881 250.256L73.583 250.428ZM60.3281 245.38C59.7528 245.38 59.2865 245.847 59.2861 246.421C59.2861 246.996 59.7526 247.462 60.3281 247.462C60.6916 247.462 61.0108 247.276 61.1973 246.994L60.0039 247.011L59.9883 245.836L61.1768 245.82C60.9879 245.554 60.6788 245.38 60.3281 245.38ZM88.0781 237.559C88.0407 237.606 88.0002 237.651 87.96 237.696L92.4365 241.46L101.699 241.336L101.823 241.334L101.918 241.414L106.435 245.211L106.713 245.208L101.888 241.152L92.627 241.277L92.5029 241.278L92.4072 241.199L88.0781 237.559ZM85.7334 233.449C84.4734 233.466 83.463 234.505 83.4795 235.763C83.4962 237.021 84.5354 238.031 85.7949 238.015C86.2074 238.009 86.5922 237.893 86.9238 237.697L86.7764 237.573C86.484 237.734 86.1496 237.828 85.793 237.833C84.6342 237.849 83.6768 236.92 83.6611 235.76C83.6458 234.601 84.5776 233.646 85.7363 233.63C86.8949 233.615 87.8515 234.544 87.8672 235.703C87.8705 235.952 87.8266 236.19 87.75 236.412L87.8984 236.537C87.9971 236.277 88.0527 235.996 88.0488 235.701C88.0321 234.443 86.9936 233.433 85.7334 233.449ZM87.4277 237.013C87.3908 237.061 87.3514 237.106 87.3105 237.151L87.4492 237.267C87.4899 237.222 87.5293 237.177 87.5664 237.129L87.4277 237.013ZM85.7451 234.296C84.9542 234.307 84.3179 234.961 84.3281 235.75C84.3387 236.541 84.992 237.177 85.7832 237.166C85.9318 237.164 86.0746 237.139 86.209 237.095L85.2754 236.311L85.0205 236.097L85.2354 235.841L85.7812 235.193L85.9961 234.938L86.251 235.153L87.1836 235.937C87.1942 235.863 87.2022 235.789 87.2012 235.712C87.1903 234.922 86.5361 234.286 85.7451 234.296ZM85.96 236.015L86.8008 236.722C86.8427 236.678 86.8808 236.631 86.917 236.582L86.0762 235.876L85.96 236.015ZM135.256 201.508L135.267 202.355L135.271 202.689L134.938 202.693L117.394 202.929L103.509 215.254L103.416 215.336L103.292 215.338L86.29 215.566L81.498 219.82C81.5939 220.062 81.6505 220.324 81.6543 220.599C81.6707 221.816 80.6934 222.82 79.4756 222.836C78.2577 222.853 77.2528 221.876 77.2363 220.658C77.2201 219.441 78.1973 218.438 79.415 218.421C79.804 218.416 80.1709 218.513 80.4912 218.686L85.6123 214.142L85.7051 214.06L85.8291 214.058L102.833 213.827L106.577 210.503L69.3086 211.005L69.1699 211.007L69.0713 210.91L65.3574 207.298C64.9298 207.537 64.4174 207.63 63.9014 207.516C62.7851 207.269 62.0797 206.165 62.3262 205.049C62.573 203.933 63.6786 203.229 64.7949 203.475C65.9109 203.721 66.6162 204.825 66.3701 205.941C66.3294 206.125 66.2624 206.297 66.1787 206.456L69.6406 209.824L107.922 209.31L116.717 201.504L116.81 201.422L116.934 201.42L134.918 201.179L135.251 201.174L135.256 201.508ZM79.4238 219.087C78.5739 219.099 77.891 219.801 77.9023 220.65C77.9138 221.499 78.6157 222.181 79.4658 222.17C80.3161 222.159 80.9988 221.457 80.9873 220.608C80.9859 220.503 80.9735 220.401 80.9521 220.303L80.793 220.445C80.8004 220.499 80.8058 220.554 80.8066 220.611C80.8172 221.361 80.2141 221.978 79.4648 221.989C78.7145 221.999 78.0956 221.397 78.085 220.648C78.0746 219.898 78.6776 219.281 79.4268 219.27C79.5503 219.268 79.6699 219.284 79.7842 219.314L79.9443 219.172C79.7811 219.116 79.6061 219.085 79.4238 219.087ZM78.7939 220.397C78.7666 220.473 78.7508 220.554 78.752 220.639C78.7576 221.02 79.0734 221.328 79.4551 221.323C79.5047 221.322 79.553 221.316 79.5996 221.305L79.4775 221.167L78.915 220.532L78.7939 220.397ZM79.6338 220.339L79.7549 220.475L80.0186 220.24C79.984 220.19 79.9418 220.146 79.8955 220.106L79.6338 220.339ZM80.3984 219.659C80.4418 219.702 80.4812 219.748 80.5186 219.796L80.6543 219.676C80.6166 219.628 80.5771 219.582 80.5342 219.539L80.3984 219.659ZM107.597 210.49L103.182 214.409L103.089 214.491L102.965 214.493L85.9609 214.723L81.0322 219.097C81.0744 219.141 81.1148 219.186 81.1533 219.233L85.9404 214.986L86.0332 214.903L86.1572 214.902L103.158 214.672L107.874 210.486L107.597 210.49ZM117.066 202.085L108.735 209.479L108.738 209.633L108.739 209.718L117.044 202.348L117.137 202.266L117.261 202.264L134.595 202.031L134.593 201.849L117.066 202.085ZM64.6504 204.125C63.8934 203.958 63.1438 204.437 62.9766 205.193C62.8096 205.949 63.2879 206.698 64.0449 206.865C64.3239 206.927 64.6016 206.899 64.8496 206.804L63.9326 205.912L63.6934 205.68L63.9258 205.441L64.2812 205.076L64.5137 204.837L64.7529 205.07L65.6699 205.962C65.6888 205.909 65.7062 205.854 65.7188 205.797C65.8854 205.041 65.4074 204.292 64.6504 204.125ZM135.189 196.657L135.206 197.844L135.21 198.177L134.877 198.182L110.062 198.516L101.191 206.39L101.099 206.472L100.975 206.474L78.3672 206.778L78.2432 206.78L78.1484 206.699L75.6953 204.638C75.2346 204.929 74.6932 205.105 74.1094 205.113C72.4246 205.135 71.0352 203.783 71.0127 202.099C70.9905 200.415 72.3433 199.027 74.0283 199.004C75.7128 198.982 77.1022 200.333 77.125 202.017C77.1307 202.443 77.0473 202.851 76.8936 203.222L78.9082 204.916L85.9297 204.822L78.2207 198.341L50.2861 198.717L47.375 201.704C47.6483 202.12 47.8129 202.614 47.8203 203.148C47.8407 204.639 46.6428 205.867 45.1514 205.888C43.6592 205.908 42.4299 204.712 42.4092 203.221C42.3887 201.729 43.5864 200.501 45.0781 200.481C45.6116 200.473 46.1102 200.623 46.5332 200.885L49.6875 197.648L49.7842 197.549L49.9219 197.547L78.5186 197.162L78.6426 197.16L78.7373 197.24L87.7266 204.797L100.383 204.627L109.254 196.754L109.347 196.671L109.471 196.67L134.853 196.328L135.186 196.324L135.189 196.657ZM76.5625 203.815C76.4617 203.957 76.3508 204.092 76.2275 204.215L78.4814 206.11L87.3193 205.99L86.71 205.478L78.7939 205.584L78.6699 205.586L78.5752 205.506L76.5625 203.815ZM109.604 197.334L100.733 205.208L100.641 205.291L100.517 205.292L88.5068 205.453L88.5479 205.488L88.332 205.742L88.1318 205.979L100.841 205.808L109.712 197.935L109.805 197.853L109.929 197.851L134.534 197.519L134.527 196.998L109.604 197.334ZM45.0947 201.657C44.2513 201.668 43.5735 202.364 43.585 203.206C43.5968 204.048 44.2921 204.725 45.1348 204.714C45.9779 204.702 46.6557 204.007 46.6445 203.165C46.6417 202.959 46.5967 202.762 46.5195 202.583L45.5361 203.594L45.3037 203.833L45.0654 203.601L44.7002 203.246L44.4609 203.014L44.6934 202.775L45.6768 201.764C45.4966 201.692 45.3002 201.654 45.0947 201.657ZM74.0371 199.671C72.7199 199.689 71.6623 200.774 71.6797 202.09C71.6972 203.406 72.7833 204.463 74.1006 204.446C74.48 204.44 74.8365 204.344 75.1533 204.182L74.71 203.81C74.5173 203.88 74.3104 203.922 74.0938 203.925C73.0642 203.938 72.2147 203.113 72.2012 202.083C72.1878 201.054 73.0137 200.205 74.0439 200.192C75.0735 200.178 75.9231 201.003 75.9365 202.033C75.9381 202.156 75.9264 202.276 75.9053 202.392L76.3486 202.765C76.4213 202.532 76.4614 202.284 76.458 202.027C76.4404 200.711 75.3542 199.654 74.0371 199.671ZM75.6494 203.048C75.5564 203.196 75.4431 203.329 75.3135 203.446L75.7139 203.782C75.84 203.662 75.9542 203.53 76.0518 203.385L75.6494 203.048ZM74.0527 200.858C73.3908 200.866 72.8587 201.413 72.8672 202.074C72.8757 202.724 73.4042 203.247 74.0518 203.256L73.4707 202.768L73.2158 202.553L73.4307 202.298L74.1953 201.39L74.4102 201.135L74.665 201.349L75.249 201.84C75.1447 201.277 74.6459 200.85 74.0527 200.858ZM74.1553 202.472L74.7959 203.01C74.935 202.904 75.0509 202.769 75.1328 202.614L74.4902 202.074L74.1553 202.472ZM83.2773 192.037L87.8291 195.864L101.287 195.683L104.909 192.47L105.002 192.387L105.126 192.386L134.794 191.987L135.127 191.983L135.132 192.316L135.139 192.824L135.144 193.157L134.81 193.162L105.455 193.557L101.835 196.771L101.742 196.854L101.618 196.855L87.5312 197.044L87.4072 197.045L87.3125 196.966L82.7598 193.138L61.0732 193.43L57.7432 196.385L57.6504 196.468L57.5264 196.469L39.5566 196.711C39.2998 198.134 38.0633 199.226 36.5645 199.245C34.8649 199.268 33.4621 197.905 33.4395 196.205C33.417 194.506 34.7813 193.105 36.4814 193.082C37.98 193.063 39.2464 194.119 39.541 195.534L57.1963 195.298L60.5273 192.343L60.6201 192.26L60.7441 192.259L83.0586 191.959L83.1826 191.957L83.2773 192.037ZM36.4971 194.257C35.4451 194.271 34.6008 195.139 34.6152 196.19C34.6302 197.241 35.4971 198.085 36.5488 198.071C37.3956 198.059 38.1053 197.494 38.3438 196.727L38.2246 196.728C37.9903 197.432 37.3309 197.946 36.5469 197.956H36.5459C35.5577 197.969 34.7431 197.177 34.7295 196.188C34.7162 195.199 35.5096 194.385 36.499 194.371C37.2824 194.361 37.9542 194.855 38.208 195.552L38.3281 195.551C38.0687 194.791 37.3438 194.246 36.4971 194.257ZM36.5322 196.752L36.3535 196.754C36.4099 196.77 36.4687 196.781 36.5303 196.781C36.5907 196.78 36.6481 196.766 36.7031 196.749L36.5322 196.752ZM36.1836 195.65C36.0143 195.762 35.9024 195.955 35.9053 196.172C35.9082 196.39 36.0251 196.579 36.1973 196.687L36.1943 196.423L36.1875 195.913L36.1836 195.65ZM36.5146 195.546C36.4519 195.547 36.3919 195.559 36.335 195.577L36.5156 195.575L36.6924 195.573C36.6358 195.556 36.5764 195.545 36.5146 195.546ZM23.0947 180.678C23.8575 180.678 24.5159 181.117 24.835 181.756L43.6582 181.504L43.7822 181.502L43.877 181.582L48.6748 185.616L86.46 185.108L88.7588 183.069L88.8516 182.987L88.9756 182.985L129.573 182.44L129.907 182.435L129.911 182.769L129.924 183.785L129.929 184.118L129.596 184.123L89.501 184.662L87.2031 186.701L87.1104 186.784L86.9863 186.785L48.1953 187.307L48.0713 187.309L47.9766 187.229L43.1768 183.195L24.8574 183.441C24.5481 184.106 23.8767 184.569 23.0947 184.569C22.0201 184.569 21.1487 183.698 21.1484 182.623C21.1484 181.549 22.0199 180.678 23.0947 180.678ZM25.0293 182.42C25.0362 182.487 25.041 182.555 25.041 182.623C25.041 182.673 25.0359 182.723 25.0322 182.772L43.292 182.528L43.416 182.526L43.5107 182.606L48.3096 186.639L86.8525 186.12L89.1523 184.081L89.2451 183.999L89.3691 183.997L129.253 183.46L129.248 183.11L89.1094 183.65L86.8105 185.69L86.7178 185.772L86.5938 185.774L48.5605 186.285L48.4365 186.286L48.3418 186.206L43.543 182.171L25.0293 182.42ZM129.852 178.341L129.858 178.85L129.862 179.184L129.529 179.188L104.436 179.525L100.989 182.584L100.896 182.666L100.772 182.668L52.6836 183.314C52.4561 183.897 51.8904 184.312 51.2266 184.312C50.3624 184.312 49.6615 183.611 49.6611 182.747C49.6611 181.883 50.3622 181.183 51.2266 181.183C51.8747 181.183 52.4313 181.576 52.6689 182.138L100.441 181.495L103.889 178.438L103.981 178.355L104.105 178.354L129.514 178.013L129.847 178.008L129.852 178.341ZM23.0947 181.344C22.3876 181.344 21.8145 181.917 21.8145 182.623C21.8147 183.329 22.3878 183.902 23.0947 183.902C23.4844 183.902 23.8316 183.726 24.0664 183.451L23.1064 183.465L22.7725 183.469L22.7686 183.136L22.7559 182.118L22.751 181.785L23.084 181.781L24.043 181.767C23.8087 181.508 23.4714 181.344 23.0947 181.344ZM51.2266 181.849C50.7299 181.849 50.3271 182.252 50.3271 182.747C50.3275 183.243 50.7301 183.645 51.2266 183.645C51.5026 183.645 51.7484 183.519 51.9131 183.324L51.2354 183.333L50.9014 183.338L50.8975 183.005L50.8906 182.496L50.8857 182.162L51.2188 182.158L51.8955 182.149C51.7311 181.965 51.4927 181.849 51.2266 181.849ZM23.4258 182.443L23.4307 182.793L24.3633 182.781C24.3696 182.729 24.375 182.677 24.375 182.623C24.375 182.558 24.368 182.493 24.3584 182.43L23.4258 182.443ZM79.9541 172.989C80.6199 172.989 81.1907 173.396 81.4307 173.975L96.5674 173.772L96.6504 173.699L96.7139 173.77L129.784 173.325L129.8 174.5L97.0195 174.941L92.998 178.512L92.9053 178.594L92.7812 178.596L43.5371 179.258L43.4131 179.259L43.3184 179.18L39.0068 175.556L0.472656 176.074L0.138672 176.079L0.134766 175.745L0.128906 175.237L0.125 174.904L0.457031 174.9L39.3057 174.376L39.4297 174.375L39.5244 174.454L43.833 178.077L92.4512 177.424L95.2227 174.965L81.4463 175.15C81.2177 175.752 80.6368 176.181 79.9541 176.181C79.0726 176.181 78.3577 175.467 78.3574 174.585C78.3574 173.703 79.0724 172.989 79.9541 172.989ZM72.7148 165.181L77.4072 169.127L129.384 168.428L129.718 168.424L129.722 168.757L129.737 169.945L129.742 170.279L129.409 170.282L77.4326 170.981L72.8477 175.053L72.7549 175.135L72.6309 175.137L64.7197 175.242C64.3571 176.445 63.2772 177.343 61.9727 177.427L61.8145 177.433C60.1176 177.455 58.7181 176.095 58.6943 174.398C58.6719 172.701 60.0335 171.303 61.7314 171.28L61.8896 171.282C63.1948 171.331 64.2975 172.198 64.6934 173.389L72.0381 173.289L75.6572 170.077L71.9531 166.963L58.5283 167.145L53.8047 171.221L53.7129 171.3L53.5918 171.302L0.417969 172.016L0.0849609 172.021L0.0800781 171.688L0.0644531 170.501L0.0595703 170.168L0.392578 170.163L53.0127 169.454L57.7363 165.379L57.8281 165.3L57.9492 165.298L72.4951 165.103L72.6191 165.101L72.7148 165.181ZM61.7402 171.947C60.41 171.965 59.3438 173.061 59.3613 174.389C59.3802 175.717 60.4765 176.783 61.8057 176.766C62.8071 176.752 63.6576 176.127 64.0098 175.252L63.4297 175.26C63.1128 175.838 62.5037 176.235 61.7988 176.245H61.7979C60.7554 176.259 59.8977 175.423 59.8828 174.382V174.381C59.8696 173.339 60.7064 172.482 61.748 172.467C62.4529 172.458 63.0729 172.838 63.4053 173.407L63.9844 173.399C63.6081 172.534 62.7407 171.934 61.7402 171.947ZM61.7559 173.133C61.0819 173.143 60.5405 173.699 60.5488 174.372C60.5584 175.045 61.1141 175.586 61.7891 175.577C62.092 175.573 62.3675 175.458 62.5791 175.272L61.7852 175.282L61.4521 175.287L61.4473 174.953L61.4316 173.767L61.4268 173.433L61.7598 173.429L62.5557 173.417C62.339 173.237 62.0596 173.129 61.7559 173.133ZM79.9541 173.655C79.4401 173.655 79.0234 174.072 79.0234 174.585C79.0237 175.098 79.4403 175.515 79.9541 175.515C80.2502 175.515 80.5129 175.376 80.6836 175.16L79.6299 175.175L79.6143 174L80.666 173.986C80.4951 173.783 80.2396 173.655 79.9541 173.655ZM62.1016 174.09L62.1094 174.611L62.9707 174.599C62.9879 174.515 62.9982 174.428 62.9971 174.339C62.9959 174.25 62.9834 174.162 62.9639 174.078L62.1016 174.09ZM63.6387 174.069C63.6518 174.154 63.6619 174.242 63.6631 174.331C63.6642 174.419 63.656 174.505 63.6455 174.589L64.1729 174.582C64.1808 174.497 64.1858 174.411 64.1846 174.324C64.1833 174.235 64.1756 174.148 64.165 174.062L63.6387 174.069ZM72.3896 173.871L72.2969 173.953L72.1729 173.955L64.834 174.053C64.8425 174.139 64.8503 174.227 64.8516 174.315C64.8528 174.402 64.8487 174.488 64.8428 174.574L72.4961 174.471L76.5762 170.85L76.1738 170.511L72.3896 173.871ZM58.0791 165.963L53.3564 170.039L53.2646 170.118L53.1426 170.12L0.734375 170.825L0.742188 171.345L53.4609 170.636L58.1855 166.561L58.2773 166.482L58.3984 166.48L72.0684 166.296L72.1924 166.294L72.2871 166.374L76.1602 169.63L76.5547 169.281L72.3799 165.77L58.0791 165.963ZM77.293 169.796H77.2266L76.9756 169.8L76.6768 170.065L76.9814 170.321L129.066 169.619L129.059 169.099L77.293 169.796ZM92.7656 161.183L96.6787 164.473L129.659 164.03L129.68 165.544L86.0947 166.13C85.7866 167.149 84.8462 167.9 83.7256 167.915C82.3418 167.934 81.2003 166.823 81.1816 165.44C81.1634 164.057 82.2742 162.916 83.6582 162.898C84.7773 162.883 85.7369 163.606 86.0732 164.615L94.8809 164.497L92.248 162.283L43.6299 162.938L39.4199 166.676L39.3271 166.758L39.2031 166.76L29.3301 166.892C29.101 167.516 28.5066 167.967 27.8027 167.976C26.9497 167.986 26.234 167.346 26.1387 166.515L26.1279 166.347C26.1156 165.436 26.8468 164.686 27.7578 164.674C28.4605 164.665 29.0669 165.099 29.3135 165.716L38.8721 165.588L43.084 161.851L43.1768 161.769L43.3008 161.767L92.5459 161.105L92.6699 161.103L92.7656 161.183ZM83.667 163.565C82.651 163.578 81.8352 164.416 81.8486 165.431C81.8623 166.446 82.7007 167.263 83.7168 167.249C84.463 167.239 85.0989 166.783 85.3799 166.14L85.1787 166.143C84.9101 166.682 84.357 167.058 83.7139 167.067C82.798 167.079 82.042 166.345 82.0293 165.429C82.0169 164.513 82.7532 163.759 83.6689 163.746C84.3115 163.738 84.8738 164.097 85.1572 164.628L85.3594 164.625C85.0607 163.991 84.4124 163.555 83.667 163.565ZM27.4414 165.99C27.358 166.074 27.3064 166.189 27.3037 166.315V166.331C27.3056 166.464 27.3621 166.583 27.4512 166.668L27.4502 166.584L27.4434 166.075L27.4414 165.99ZM83.6777 164.412C83.1295 164.42 82.6888 164.873 82.6963 165.42C82.704 165.967 83.1571 166.408 83.7051 166.401C83.9502 166.397 84.1732 166.304 84.3447 166.154L83.3701 166.167L83.3496 164.653L84.3213 164.639C84.1461 164.495 83.9216 164.409 83.6777 164.412ZM84.0244 165.309L84.0264 165.491L84.6816 165.482C84.6839 165.452 84.6859 165.423 84.6855 165.393C84.6851 165.361 84.682 165.33 84.6787 165.299L84.0244 165.309ZM85.3457 165.29C85.3479 165.321 85.3521 165.353 85.3525 165.384C85.3529 165.414 85.3498 165.443 85.3486 165.473L85.5312 165.471C85.5323 165.441 85.5355 165.412 85.5352 165.382C85.5347 165.351 85.5313 165.319 85.5293 165.288L85.3457 165.29ZM86.1953 165.279C86.1969 165.31 86.2017 165.342 86.2021 165.373C86.2025 165.403 86.1989 165.432 86.1982 165.461L95.874 165.331L95.6602 165.152L86.1953 165.279ZM97.1885 165.131L97.0869 165.252L97.0322 165.317L129.004 164.887L129.002 164.704L97.1885 165.131ZM48.5439 156.066C49.4646 156.053 50.2511 156.655 50.5156 157.49L100.424 156.82L100.548 156.818L100.643 156.898L104.168 159.862L129.264 159.525L129.597 159.52L129.602 159.854L129.608 160.362L129.613 160.696L129.279 160.699L103.871 161.041L103.747 161.043L103.652 160.963L100.125 157.997L50.5322 158.665C50.2905 159.507 49.5197 160.129 48.5996 160.142C47.4755 160.157 46.5478 159.256 46.5322 158.131C46.5168 157.007 47.4194 156.081 48.5439 156.066ZM89.7246 136.746C90.9269 136.731 91.918 137.693 91.9336 138.896C91.9379 139.235 91.8623 139.556 91.7275 139.844L95.043 142.694L100.889 142.615L101.013 142.614L101.107 142.694L104.812 145.808L134.167 145.413L134.5 145.409L134.504 145.742L134.512 146.251L134.516 146.584L134.183 146.589L104.515 146.988L104.391 146.99L104.296 146.909L100.59 143.794L95.0508 143.869L90.6025 147.818L90.5352 147.877L113.476 147.57L113.6 147.568L113.694 147.648L116.681 150.159L129.136 149.992L129.469 149.989L129.474 150.322L129.484 151.169L129.488 151.502L129.155 151.507L116.263 151.681L116.139 151.683L116.044 151.603L113.055 149.089L83.1895 149.491L80.1494 152.19L80.0566 152.272L79.9326 152.274L59.1924 152.552C59.0088 153.052 58.6437 153.463 58.1748 153.707L86.4414 153.328L86.5654 153.326L86.6602 153.407L89.0117 155.383L129.201 154.843L129.534 154.839L129.539 155.172L129.546 155.681L129.55 156.014L129.217 156.019L88.7148 156.563L88.5908 156.565L88.4951 156.485L86.1426 154.507L43.3311 155.083L38.6416 159.245L38.5488 159.327L38.4248 159.329L11.7051 159.689C11.4806 160.256 10.9308 160.661 10.2832 160.669C9.42799 160.68 8.72362 159.996 8.71191 159.141C8.70054 158.285 9.38641 157.581 10.2422 157.57C10.8907 157.561 11.4513 157.952 11.6904 158.513L38.0947 158.157L42.7852 153.995L42.8779 153.913L43.002 153.911L56.2686 153.733C55.569 153.392 55.0803 152.681 55.0693 151.851C55.054 150.679 55.9951 149.712 57.168 149.697C58.0728 149.685 58.8533 150.243 59.1709 151.036L79.4717 150.764L82.5127 148.067L82.5801 148.006L52.0234 148.417L51.8994 148.419L51.8047 148.339L48.3984 145.474L31.0205 145.708C30.7832 146.456 30.0885 147.004 29.2627 147.016C28.2304 147.03 27.379 146.201 27.3643 145.17V145.166C27.3525 144.135 28.1799 143.287 29.2109 143.274C30.0369 143.263 30.7459 143.792 31.0039 144.532L48.6953 144.295L48.8193 144.293L48.9141 144.373L52.3213 147.238L90.0557 146.73L93.9336 143.288L90.9619 140.736C90.6236 140.962 90.2191 141.098 89.7822 141.104C88.5792 141.12 87.59 140.156 87.5732 138.954C87.5568 137.753 88.5216 136.762 89.7246 136.746ZM10.251 158.236C9.76327 158.242 9.37171 158.644 9.37793 159.131C9.38446 159.618 9.78639 160.009 10.2744 160.003C10.5363 160 10.769 159.881 10.9287 159.699L10.2715 159.708L9.9375 159.713L9.93359 159.379L9.92676 158.87L9.92188 158.537L10.2549 158.532L10.9141 158.523C10.7497 158.344 10.5132 158.232 10.251 158.236ZM48.5615 157.24C48.0855 157.247 47.7035 157.64 47.71 158.115V158.124C47.7213 158.595 48.1107 158.972 48.584 158.966C48.8323 158.963 49.0544 158.853 49.21 158.683L48.5801 158.692L48.2471 158.696L48.2422 158.363L48.2354 157.854L48.2305 157.521L48.5635 157.516L49.1953 157.507C49.0354 157.341 48.8103 157.237 48.5615 157.24ZM57.1768 150.363C56.3719 150.373 55.7249 151.038 55.7354 151.842C55.7459 152.646 56.4113 153.293 57.2168 153.282C57.7444 153.275 58.2012 152.986 58.4521 152.562L58.2344 152.565C58.0051 152.883 57.6351 153.094 57.2139 153.1C56.509 153.109 55.9275 152.544 55.918 151.839C55.9085 151.134 56.476 150.554 57.1807 150.544C57.601 150.539 57.9764 150.738 58.2139 151.049L58.4307 151.046C58.1679 150.631 57.7033 150.356 57.1768 150.363ZM56.8555 151.315C56.69 151.427 56.5821 151.617 56.585 151.83C56.5879 152.044 56.7018 152.23 56.8701 152.337L56.8691 152.25L56.8574 151.403L56.8555 151.315ZM57.5283 151.726L57.5303 151.907L57.8008 151.904C57.8048 151.874 57.81 151.844 57.8096 151.814C57.8091 151.782 57.8039 151.752 57.7988 151.722L57.5283 151.726ZM58.4697 151.713C58.4723 151.744 58.4761 151.774 58.4766 151.805C58.477 151.835 58.4743 151.865 58.4727 151.895L58.6533 151.892C58.6547 151.862 58.6576 151.833 58.6572 151.803C58.6568 151.772 58.6527 151.741 58.6504 151.71L58.4697 151.713ZM82.8623 148.648L79.8223 151.346L79.7295 151.428L79.6055 151.43L59.3184 151.701C59.3201 151.732 59.3238 151.763 59.3242 151.794C59.3246 151.824 59.3211 151.854 59.3203 151.883L79.7988 151.608L82.8398 148.91L82.9326 148.828L83.0566 148.826L113.17 148.422L113.294 148.42L113.39 148.5L116.377 151.012L128.812 150.844L128.811 150.663L116.566 150.828L116.442 150.83L116.348 150.75L113.36 148.237L82.8623 148.648ZM29.2197 143.94C28.5558 143.948 28.0217 144.496 28.0303 145.16V145.161L28.0391 145.284C28.1099 145.89 28.6308 146.359 29.2529 146.35C29.7035 146.343 30.0931 146.088 30.2949 145.718L30.0801 145.721C29.8984 145.986 29.5964 146.163 29.251 146.167C28.6867 146.175 28.2205 145.723 28.2129 145.157C28.2055 144.593 28.6582 144.128 29.2236 144.12C29.5695 144.116 29.8776 144.284 30.0664 144.545L30.2783 144.542C30.0663 144.178 29.6701 143.934 29.2197 143.94ZM28.9014 145.023C28.8871 145.062 28.8793 145.104 28.8799 145.149C28.8805 145.192 28.8894 145.233 28.9043 145.272L28.9014 145.023ZM100.205 133.094L109.283 140.727L134.1 140.393L134.433 140.389L134.438 140.722L134.453 141.909L134.458 142.242L134.124 142.247L108.743 142.588L108.619 142.589L108.524 142.51L99.4443 134.876L86.7881 135.046L78.0049 142.844L77.9121 142.926L77.7881 142.928L60.6602 143.157L60.5361 143.159L60.4414 143.079L56.0176 139.362C55.5086 139.77 54.8668 140.021 54.165 140.031C52.4942 140.053 51.1154 138.713 51.0928 137.042C51.0704 135.372 52.412 133.994 54.083 133.972C55.7539 133.95 57.1327 135.29 57.1553 136.96C57.1626 137.505 57.0222 138.017 56.7754 138.462L60.957 141.979L77.459 141.756L84.9902 135.071L74.0996 135.218L71.667 137.376C71.7562 137.626 71.8097 137.893 71.8135 138.172C71.8319 139.537 70.7359 140.661 69.3711 140.68C68.0063 140.698 66.881 139.604 66.8623 138.24C66.844 136.875 67.9398 135.75 69.3047 135.732C69.7107 135.726 70.0948 135.821 70.4355 135.99L73.292 133.456L73.3848 133.374L73.5088 133.372L99.9863 133.016L100.11 133.014L100.205 133.094ZM87.1602 133.854L87.3672 134.087L87.5889 134.336L87.5488 134.37L99.5596 134.209L99.6836 134.207L99.7793 134.287L108.857 141.919L133.781 141.584L133.774 141.064L109.169 141.396L109.045 141.397L108.95 141.318L99.8711 133.683L87.1602 133.854ZM69.3135 136.399C68.3164 136.412 67.5161 137.234 67.5293 138.23C67.5428 139.226 68.365 140.026 69.3623 140.013C70.3595 139.999 71.16 139.177 71.1465 138.181C71.145 138.074 71.1315 137.971 71.1123 137.869L70.6201 138.307C70.5688 138.962 70.0254 139.483 69.3555 139.492C68.6459 139.502 68.0602 138.933 68.0508 138.223C68.0416 137.513 68.6103 136.929 69.3203 136.919C69.3429 136.919 69.3654 136.92 69.3877 136.921L69.8809 136.483C69.7019 136.426 69.5112 136.396 69.3135 136.399ZM89.7393 137.921C89.1862 137.929 88.7416 138.386 88.749 138.938C88.7565 139.49 89.2137 139.934 89.7666 139.927C89.8425 139.926 89.9164 139.915 89.9873 139.898L89.1152 139.149L89.8818 138.258L90.7539 139.007C90.7565 138.976 90.7573 138.944 90.7568 138.911C90.7493 138.359 90.2924 137.914 89.7393 137.921ZM54.0986 135.147C53.0758 135.16 52.2553 136.004 52.2686 137.026C52.2821 138.047 53.1259 138.868 54.1494 138.855C54.494 138.85 54.8143 138.749 55.0889 138.581L54.9336 138.45C54.7006 138.58 54.433 138.657 54.1475 138.66C53.2302 138.673 52.4763 137.94 52.4639 137.023C52.4515 136.106 53.1852 135.352 54.1025 135.34C55.0198 135.328 55.7737 136.061 55.7861 136.978C55.7888 137.178 55.7532 137.37 55.6904 137.549L55.8477 137.682C55.9345 137.463 55.9828 137.225 55.9795 136.976C55.9658 135.954 55.1221 135.133 54.0986 135.147ZM68.7422 138.037C68.7261 138.094 68.716 138.153 68.7168 138.214C68.7213 138.555 69.0042 138.83 69.3467 138.825C69.3763 138.825 69.4051 138.82 69.4336 138.816L68.7422 138.037ZM69.4141 137.79L69.7598 138.179L69.9287 138.028C69.8756 137.853 69.7503 137.71 69.585 137.638L69.4141 137.79ZM54.1113 136.006C53.5618 136.014 53.1225 136.465 53.1299 137.014C53.1375 137.562 53.5892 138.002 54.1387 137.994C54.2137 137.993 54.2864 137.983 54.3564 137.966L53.7461 137.452L53.4912 137.238L53.7061 136.983L54.0342 136.593L54.248 136.337L54.5039 136.552L55.1162 137.067C55.118 137.04 55.1205 137.013 55.1201 136.987C55.1126 136.438 54.6609 135.999 54.1113 136.006ZM85.7842 116.391C87.412 116.37 88.7539 117.674 88.7754 119.301C88.7815 119.764 88.6766 120.201 88.4912 120.594L92.8018 124.217L102.063 124.093L102.188 124.092L102.282 124.171L116.492 136.118L134.039 135.882L134.372 135.877L134.376 136.211L134.388 137.06L134.392 137.393L134.059 137.397L116.074 137.639L115.95 137.641L115.855 137.561L106.85 129.99L61.999 130.594C61.7659 131.26 61.1325 131.739 60.3867 131.739C59.4436 131.738 58.6787 130.974 58.6787 130.031C58.6789 129.088 59.4438 128.324 60.3867 128.324C61.1142 128.324 61.735 128.779 61.9814 129.419L105.476 128.834L101.644 125.614L92.3818 125.739L92.2578 125.74L92.1631 125.66L87.5176 121.754C87.0484 122.084 86.4793 122.282 85.8633 122.29C84.2366 122.312 82.8937 121.008 82.8721 119.38C82.8506 117.754 84.1559 116.412 85.7842 116.391ZM70.1055 137.175C70.2457 137.28 70.364 137.412 70.4521 137.564L70.8467 137.213C70.7502 137.067 70.6334 136.937 70.5 136.824L70.1055 137.175ZM107.663 129.804L116.188 136.97L133.716 136.735L133.714 136.553L116.378 136.786L116.254 136.788L116.159 136.708L107.66 129.563L107.663 129.804ZM73.6416 134.037L71.002 136.379C71.1306 136.496 71.2469 136.626 71.3486 136.768L73.75 134.638L73.8428 134.555L73.9668 134.554L85.752 134.395L86.3486 133.865L73.6416 134.037ZM60.3867 128.99C59.8115 128.99 59.3449 129.456 59.3447 130.031C59.3447 130.605 59.8114 131.071 60.3867 131.072C60.7501 131.072 61.0694 130.885 61.2559 130.604L60.0625 130.62L60.0469 129.446L61.2363 129.429C61.0475 129.164 60.7375 128.99 60.3867 128.99ZM88.1387 121.167C88.1008 121.215 88.0592 121.26 88.0186 121.305L92.4961 125.07L101.759 124.946L101.883 124.944L101.978 125.024L106.494 128.821L106.773 128.818L101.948 124.761L92.6875 124.886L92.5635 124.887L92.4678 124.808L88.1387 121.167ZM85.793 117.058C84.5329 117.074 83.5225 118.113 83.5391 119.371C83.5558 120.63 84.595 121.64 85.8545 121.623C86.2667 121.618 86.6509 121.501 86.9824 121.305L86.8359 121.181C86.5433 121.342 86.2087 121.438 85.8516 121.443C84.6928 121.458 83.7355 120.529 83.7197 119.369C83.7043 118.211 84.635 117.255 85.7949 117.24C86.9538 117.224 87.9101 118.154 87.9258 119.313C87.9291 119.561 87.8859 119.799 87.8096 120.021L87.959 120.146C88.0575 119.886 88.1123 119.604 88.1084 119.31C88.0918 118.051 87.0534 117.041 85.793 117.058ZM87.4873 120.62C87.4501 120.669 87.4103 120.714 87.3691 120.759L87.5088 120.876C87.5498 120.831 87.5896 120.786 87.627 120.738L87.4873 120.62ZM85.8037 117.906C85.0118 117.916 84.3764 118.57 84.3867 119.36C84.3973 120.15 85.0506 120.786 85.8418 120.776C85.9907 120.774 86.1339 120.748 86.2686 120.704L85.3359 119.92L85.0811 119.706L85.2959 119.451L85.8418 118.801L86.0557 118.546L86.3115 118.761L87.2432 119.544C87.2536 119.471 87.2608 119.397 87.2598 119.322C87.249 118.532 86.5948 117.895 85.8037 117.906ZM86.0195 119.624L86.8594 120.33C86.9015 120.286 86.9403 120.24 86.9766 120.191L86.1367 119.485L86.0195 119.624ZM135.256 85.1165L135.267 85.9641L135.271 86.2981L134.938 86.302L117.394 86.5383L103.509 98.8626L103.416 98.9446L103.292 98.9465L86.29 99.1751L81.498 103.428C81.5939 103.67 81.6506 103.932 81.6543 104.207C81.6707 105.425 80.6934 106.428 79.4756 106.445C78.2577 106.461 77.2528 105.485 77.2363 104.267C77.22 103.049 78.1972 102.046 79.415 102.03C79.8046 102.024 80.1716 102.122 80.4922 102.295L85.6123 97.7503L85.7051 97.6682L85.8291 97.6663L102.831 97.4378L106.576 94.1126L69.3086 94.6145L69.1699 94.6165L69.0713 94.5198L65.3564 90.9065C64.9291 91.1453 64.4169 91.237 63.9014 91.1233C62.7851 90.8769 62.0798 89.7725 62.3262 88.6565C62.573 87.5406 63.6786 86.835 64.7949 87.0813C65.911 87.3278 66.6164 88.4323 66.3701 89.5481C66.3292 89.7331 66.2619 89.9058 66.1777 90.0657L69.6406 93.4339L107.922 92.9182L116.717 85.1126L116.81 85.0305L116.934 85.0286L134.918 84.7874L135.251 84.7825L135.256 85.1165ZM79.4238 102.696C78.5738 102.707 77.8909 103.409 77.9023 104.258C77.9138 105.107 78.6157 105.79 79.4658 105.779C80.3161 105.767 80.9988 105.065 80.9873 104.216C80.9859 104.112 80.9743 104.01 80.9531 103.912L80.793 104.054C80.8003 104.108 80.8058 104.163 80.8066 104.219C80.8172 104.969 80.2141 105.586 79.4648 105.597C78.7145 105.608 78.0956 105.006 78.085 104.256C78.0745 103.506 78.6775 102.889 79.4268 102.878C79.5506 102.876 79.6706 102.893 79.7852 102.922L79.9443 102.781C79.781 102.724 79.6061 102.693 79.4238 102.696ZM78.7939 104.006C78.7668 104.082 78.7508 104.163 78.752 104.247C78.7576 104.629 79.0734 104.936 79.4551 104.931C79.5044 104.93 79.5523 104.924 79.5986 104.913L79.4775 104.777L78.915 104.142L78.7939 104.006ZM79.6338 103.949L79.7549 104.084L80.0186 103.849C79.9841 103.798 79.9426 103.754 79.8965 103.714L79.6338 103.949ZM80.3984 103.269C80.4418 103.311 80.4812 103.358 80.5186 103.406L80.6543 103.284C80.6166 103.237 80.5771 103.191 80.5342 103.148L80.3984 103.269ZM107.597 94.0989L103.182 98.0188L103.089 98.1008L102.965 98.1028L85.9609 98.3313L81.0322 102.706C81.0744 102.75 81.1148 102.795 81.1533 102.842L85.9404 98.595L86.0332 98.512L86.1572 98.511L103.158 98.2805L107.873 94.095L107.597 94.0989ZM117.066 85.6936L108.735 93.0882L108.738 93.2415L108.739 93.3264L117.044 85.9573L117.137 85.8753L117.261 85.8733L134.595 85.6399L134.593 85.4573L117.066 85.6936ZM64.6504 87.7327C63.8933 87.5658 63.1438 88.0442 62.9766 88.8001C62.8098 89.556 63.2879 90.3057 64.0449 90.4729C64.3231 90.5343 64.6002 90.5071 64.8477 90.4124L63.9326 89.5217L63.6934 89.2893L63.9258 89.0501L64.2812 88.6858L64.5137 88.4465L64.7529 88.679L65.6689 89.5706C65.688 89.5167 65.7061 89.4617 65.7188 89.4046C65.8856 88.6485 65.4075 87.8998 64.6504 87.7327ZM135.189 80.2659L135.206 81.4534L135.21 81.7864L134.877 81.7913L110.062 82.1243L101.191 89.9993L101.099 90.0813L100.975 90.0833L78.3672 90.387L78.2432 90.3889L78.1484 90.3089L75.6953 88.2464C75.2347 88.5376 74.6931 88.7132 74.1094 88.721C72.4246 88.7432 71.0352 87.3916 71.0127 85.7073C70.9904 84.0231 72.3433 82.635 74.0283 82.6126C75.7128 82.5905 77.1023 83.9412 77.125 85.6253C77.1307 86.0522 77.0467 86.4598 76.8926 86.8313L78.9082 88.5257L85.9297 88.4309L78.2207 81.9505L50.2861 82.3264L47.375 85.3137C47.6481 85.7293 47.8129 86.2231 47.8203 86.7561C47.8409 88.2477 46.6429 89.4756 45.1514 89.4964C43.6591 89.5169 42.4297 88.3206 42.4092 86.8294C42.3889 85.3378 43.5865 84.1097 45.0781 84.0891C45.6116 84.0819 46.1102 84.2327 46.5332 84.4944L49.6875 81.2571L49.7842 81.1585L49.9219 81.1565L78.5186 80.7717L78.6426 80.7698L78.7373 80.8499L87.7275 88.4065L100.383 88.2366L109.254 80.3626L109.347 80.2796L109.471 80.2786L134.853 79.9378L135.186 79.9329L135.189 80.2659ZM76.5625 87.4241C76.4618 87.5664 76.3506 87.7005 76.2275 87.8235L78.4824 89.719L87.3193 89.5989L86.71 89.0872L78.7939 89.1936L78.6699 89.1956L78.5752 89.1155L76.5625 87.4241ZM109.604 80.9426L100.733 88.8176L100.641 88.9007L100.517 88.9016L88.5088 89.0628L88.5469 89.095L88.332 89.3508L88.1309 89.5882L100.841 89.4173L109.712 81.5432L109.805 81.4612L109.929 81.4592L134.534 81.1282L134.527 80.6077L109.604 80.9426ZM45.0947 85.2639C44.2514 85.2754 43.5737 85.972 43.585 86.8137C43.5967 87.6557 44.292 88.3328 45.1348 88.3215C45.9779 88.3098 46.6559 87.6144 46.6445 86.7727C46.6417 86.5668 46.5963 86.3712 46.5195 86.1926L45.5361 87.2034L45.3037 87.4426L45.0654 87.2102L44.7002 86.8557L44.4609 86.6233L44.6934 86.384L45.6777 85.3723C45.4973 85.3005 45.3005 85.2613 45.0947 85.2639ZM74.0371 83.2796C72.7199 83.2971 71.6622 84.3827 71.6797 85.6985C71.6973 87.0141 72.7833 88.0714 74.1006 88.054C74.4796 88.0489 74.8357 87.9523 75.1523 87.7903L74.71 87.4173C74.5172 87.488 74.3105 87.5306 74.0938 87.5335C73.0642 87.5468 72.2148 86.7216 72.2012 85.6917C72.1878 84.6622 73.0137 83.8135 74.0439 83.8001C75.0735 83.7868 75.9231 84.6118 75.9365 85.6419C75.9381 85.7643 75.9264 85.884 75.9053 86.0003L76.3486 86.3733C76.4213 86.1399 76.4614 85.8922 76.458 85.635C76.4405 84.3195 75.3543 83.2623 74.0371 83.2796ZM75.6494 86.6565C75.5564 86.8045 75.4431 86.9376 75.3135 87.054L75.7139 87.3909C75.8399 87.2707 75.9533 87.1383 76.0508 86.9934L75.6494 86.6565ZM74.0527 84.4661C73.3908 84.4747 72.8586 85.0214 72.8672 85.6829C72.8758 86.3326 73.4042 86.8554 74.0518 86.8645L73.4707 86.3762L73.2158 86.1614L73.4307 85.9065L74.1953 84.9983L74.4102 84.7434L74.665 84.9573L75.249 85.4485C75.1448 84.8848 74.646 84.4585 74.0527 84.4661ZM74.1553 86.0803L74.7959 86.6184C74.935 86.5122 75.0509 86.3777 75.1328 86.2219L74.4902 85.6819L74.1553 86.0803ZM83.2773 75.6448L87.8291 79.4719L101.287 79.2913L104.909 76.0784L105.002 75.9954L105.126 75.9944L134.794 75.595L135.127 75.5911L135.132 75.9241L135.139 76.4329L135.144 76.7659L134.81 76.7708L105.455 77.1643L101.835 80.3782L101.742 80.4612L101.618 80.4622L87.5312 80.6526L87.4072 80.6536L87.3125 80.5745L82.7598 76.7454L61.0732 77.0374L57.7432 79.9934L57.6504 80.0764L57.5264 80.0774L39.5566 80.3186C39.3005 81.7418 38.0639 82.834 36.5645 82.8538C34.8636 82.8761 33.4619 81.5132 33.4395 79.8137C33.4172 78.1148 34.7814 76.7132 36.4814 76.6907C37.9797 76.6709 39.2461 77.7281 39.541 79.1428L57.1973 78.9055L60.5273 75.9514L60.6201 75.8684L60.7441 75.8674L83.0576 75.5667L83.1826 75.5647L83.2773 75.6448ZM36.4971 77.8655C35.4449 77.8803 34.601 78.7479 34.6152 79.7981C34.63 80.8491 35.497 81.6934 36.5488 81.679C37.396 81.6672 38.1066 81.1031 38.3447 80.3352L38.2246 80.3362C37.9902 81.0407 37.3308 81.554 36.5469 81.5647H36.5459C35.5578 81.5772 34.7432 80.7851 34.7295 79.7962C34.7162 78.8076 35.5096 77.9936 36.499 77.9798C37.2825 77.9691 37.9542 78.4635 38.208 79.1604L38.3281 79.1594C38.0685 78.3994 37.3435 77.8545 36.4971 77.8655ZM36.5322 80.3596L36.3516 80.3616C36.4085 80.3781 36.468 80.3898 36.5303 80.3889C36.5917 80.388 36.6502 80.3743 36.7061 80.3567L36.5322 80.3596ZM36.1836 79.2581C36.0144 79.3706 35.9024 79.5634 35.9053 79.7805C35.9083 79.9982 36.0251 80.1878 36.1973 80.2952L36.1943 80.0305L36.1875 79.5217L36.1836 79.2581ZM36.5146 79.1546C36.4518 79.1554 36.3919 79.1674 36.335 79.1858L36.5156 79.1839L36.6943 79.1809C36.6372 79.1643 36.5771 79.1538 36.5146 79.1546ZM23.0947 64.2864C23.8575 64.2865 24.5159 64.7266 24.835 65.3655L43.6582 65.1135L43.7822 65.1116L43.877 65.1917L48.6748 69.2249L86.46 68.7171L88.7588 66.677L88.8516 66.595L88.9756 66.593L129.573 66.0481L129.907 66.0432L129.911 66.3762L129.924 67.3948L129.929 67.7278L129.596 67.7327L89.501 68.2717L87.2031 70.3108L87.1104 70.3938L86.9863 70.3948L48.1953 70.9163L48.0713 70.9182L47.9766 70.8382L43.1768 66.803L24.8574 67.0501C24.5481 67.7151 23.8766 68.1769 23.0947 68.177C22.02 68.177 21.1486 67.3062 21.1484 66.2317C21.1487 65.1573 22.0201 64.2864 23.0947 64.2864ZM25.0293 66.0296C25.0362 66.096 25.041 66.1634 25.041 66.2317C25.041 66.2816 25.0359 66.3312 25.0322 66.3801L43.292 66.136L43.416 66.134L43.5107 66.2141L48.3096 70.2483L86.8525 69.7298L89.1523 67.6907L89.2451 67.6087L89.3691 67.6067L129.253 67.0696L129.248 66.718L89.1094 67.2581L86.8105 69.2991L86.7178 69.3811L86.5938 69.3831L48.5605 69.8938L48.4365 69.8948L48.3418 69.8147L43.543 65.7805L25.0293 66.0296ZM129.852 61.9495L129.858 62.4583L129.862 62.7923L129.529 62.7962L104.436 63.1331L100.989 66.1926L100.896 66.2747L100.772 66.2766L52.6836 66.9231C52.4558 67.5059 51.89 67.919 51.2266 67.9192C50.3623 67.9192 49.6612 67.219 49.6611 66.3548C49.6613 65.4906 50.3623 64.7903 51.2266 64.7903C51.8751 64.7905 52.4315 65.1852 52.6689 65.7473L100.441 65.1048L103.889 62.0471L103.981 61.9641L104.105 61.9632L129.514 61.6214L129.847 61.6165L129.852 61.9495ZM23.0947 64.9524C22.3878 64.9524 21.8147 65.526 21.8145 66.2317C21.8146 66.9375 22.3877 67.51 23.0947 67.51C23.4843 67.5099 23.8316 67.3351 24.0664 67.0608L23.1064 67.0745L22.7725 67.0784L22.7686 66.7454L22.7559 65.7278L22.751 65.3948L23.084 65.3899L24.0439 65.3762C23.8097 65.117 23.4718 64.9525 23.0947 64.9524ZM51.2266 65.4563C50.73 65.4563 50.3273 65.8592 50.3271 66.3548C50.3273 66.8503 50.73 67.2522 51.2266 67.2522C51.502 67.2521 51.7474 67.1277 51.9121 66.9329L51.2354 66.9426L50.9014 66.9475L50.8975 66.6145L50.8906 66.1057L50.8857 65.7717L51.2188 65.7678L51.8965 65.7581C51.732 65.5736 51.4933 65.4564 51.2266 65.4563ZM23.4258 66.052L23.4307 66.4026L24.3633 66.3899C24.3697 66.3381 24.375 66.2852 24.375 66.2317C24.375 66.1662 24.3679 66.1022 24.3584 66.0393L23.4258 66.052ZM79.9541 56.5979C80.6197 56.5979 81.1906 57.0046 81.4307 57.5833L96.5664 57.3801L96.6504 57.3059L96.7148 57.3782L129.784 56.9339L129.8 58.1087L97.0195 58.5491L92.998 62.1194L92.9053 62.2014L92.7812 62.2034L43.5371 62.8665L43.4131 62.8674L43.3184 62.7883L39.0068 59.1643L0.472656 59.6829L0.138672 59.6878L0.134766 59.3538L0.128906 58.844L0.125 58.511L0.457031 58.5071L39.3057 57.9846L39.4297 57.9837L39.5244 58.0628L43.833 61.6858L92.4512 61.0325L95.2217 58.5735L81.4473 58.7581C81.2189 59.3609 80.6372 59.7903 79.9541 59.7903C79.0727 59.7899 78.3578 59.076 78.3574 58.1946C78.3574 57.3129 79.0724 56.5983 79.9541 56.5979ZM72.7148 48.7903L77.4072 52.7366L129.384 52.0374L129.718 52.0335L129.722 52.3665L129.737 53.554L129.742 53.887L129.409 53.8919L77.4326 54.5901L72.8477 58.6624L72.7549 58.7444L72.6309 58.7464L64.7197 58.8518C64.3571 60.0542 63.2771 60.9509 61.9727 61.0354L61.8145 61.0413C60.1706 61.063 58.8053 59.7872 58.7002 58.1643L58.6943 58.0061C58.6721 56.31 60.0336 54.9115 61.7314 54.888C63.1063 54.8692 64.2841 55.7586 64.6953 56.9983L72.0381 56.8987L75.6572 53.6868L71.9531 50.5725L58.5283 50.7542L53.8047 54.8303L53.7129 54.9094L53.5918 54.9114L0.417969 55.6253L0.0849609 55.6301L0.0800781 55.2971L0.0644531 54.1096L0.0595703 53.7766L0.392578 53.7717L53.0127 53.0637L57.7363 48.9885L57.8281 48.9094L57.9492 48.9075L72.4951 48.7122L72.6191 48.7102L72.7148 48.7903ZM61.7402 55.5549C60.4101 55.5736 59.344 56.6697 59.3613 57.9973C59.38 59.326 60.4763 60.3918 61.8057 60.3743C62.807 60.3601 63.6575 59.7358 64.0098 58.8616L63.4297 58.8694C63.1129 59.4477 62.504 59.8446 61.7979 59.8538C60.7552 59.8669 59.8975 59.0318 59.8828 57.9905V57.9895C59.8698 56.9476 60.7047 56.0888 61.748 56.0755C62.453 56.0667 63.073 56.4468 63.4053 57.0159L63.9854 57.0081C63.6094 56.143 62.7414 55.5413 61.7402 55.5549ZM61.7559 56.7415C61.0817 56.7503 60.5407 57.3065 60.5488 57.9807C60.5583 58.6541 61.1147 59.1964 61.79 59.1878C62.0937 59.1837 62.3695 59.068 62.5811 58.8811L61.7852 58.8919L61.4521 58.8967L61.4473 58.5628L61.4316 57.3762L61.4268 57.0423L61.7598 57.0383L62.5566 57.0266C62.3399 56.8457 62.06 56.7377 61.7559 56.7415ZM79.9541 57.2639C79.4401 57.2643 79.0234 57.6815 79.0234 58.1946C79.0239 58.7073 79.4404 59.1239 79.9541 59.1243C80.2506 59.1243 80.5139 58.9845 80.6846 58.7688L79.6299 58.7835L79.6143 57.6087L80.665 57.594C80.4941 57.3923 80.2392 57.2639 79.9541 57.2639ZM62.1016 57.6995L62.1094 58.22L62.9707 58.2083C62.9879 58.1241 62.9982 58.0368 62.9971 57.9475C62.9959 57.8582 62.9833 57.7715 62.9639 57.6878L62.1016 57.6995ZM63.6387 57.678C63.6517 57.7636 63.6619 57.8507 63.6631 57.9397C63.6642 58.0274 63.656 58.1138 63.6455 58.1985L64.1719 58.1917C64.1799 58.1063 64.1858 58.0195 64.1846 57.9319C64.1833 57.8437 64.1755 57.7568 64.165 57.6712L63.6387 57.678ZM72.3896 57.4807L72.2969 57.5628L72.1729 57.5647L64.835 57.6624C64.8434 57.7483 64.8503 57.8352 64.8516 57.9231C64.8528 58.0104 64.8488 58.0973 64.8428 58.1829L72.4961 58.0803L76.5762 54.4592L76.1738 54.1204L72.3896 57.4807ZM58.0791 49.5725L53.3564 53.6487L53.2646 53.7278L53.1426 53.7298L0.734375 54.4339L0.742188 54.9544L53.4609 54.2454L58.1855 50.1702L58.2773 50.0911L58.3984 50.0891L72.0684 49.9055L72.1924 49.9036L72.2871 49.9837L76.1602 53.2395L76.5547 52.8899L72.3799 49.3792L58.0791 49.5725ZM76.9756 53.4094L76.6768 53.6741L76.9814 53.9299L129.066 53.2288L129.059 52.7083L76.9756 53.4094ZM92.7656 44.7923L96.6777 48.0803L129.659 47.637L129.68 49.1516L86.0957 49.7376C85.7882 50.7578 84.8469 51.5087 83.7256 51.5237C82.3419 51.542 81.2001 50.4328 81.1816 49.0491V49.0452C81.1652 47.6635 82.2753 46.5246 83.6582 46.5061C84.7768 46.4914 85.7365 47.2142 86.0732 48.2229L94.8789 48.1048L92.248 45.8919L43.6299 46.5471L39.4199 50.2844L39.3271 50.3665L39.2031 50.3684L29.3301 50.5012C29.1009 51.1254 28.5066 51.5763 27.8027 51.5852C26.9497 51.5958 26.234 50.9559 26.1387 50.1243L26.1279 49.9563C26.1155 49.0456 26.8467 48.2949 27.7578 48.2835C28.4606 48.2748 29.0669 48.7084 29.3135 49.3255L38.8721 49.1975L43.084 45.4592L43.1768 45.3772L43.3008 45.3753L92.5459 44.7141L92.6699 44.7122L92.7656 44.7923ZM83.667 47.1731C82.6512 47.1867 81.8354 48.0245 81.8486 49.0393V49.0403L81.8604 49.2288C81.9676 50.1542 82.7641 50.8703 83.7168 50.8577C84.4637 50.8477 85.1003 50.3913 85.3809 49.7473L85.1797 49.7503C84.9114 50.2907 84.3577 50.6662 83.7139 50.6751C82.7979 50.6875 82.0418 49.9531 82.0293 49.0374C82.0171 48.1217 82.7534 47.3673 83.6689 47.3548C84.3108 47.3461 84.8725 47.7054 85.1562 48.2356L85.3584 48.2327C85.0593 47.5997 84.4117 47.1633 83.667 47.1731ZM27.4414 49.5979C27.3578 49.6821 27.3063 49.7978 27.3037 49.9241V49.9407C27.3056 50.0727 27.3624 50.1913 27.4512 50.2766L27.4502 50.1936L27.4434 49.6848L27.4414 49.5979ZM83.6777 48.0208C83.1296 48.0283 82.689 48.4817 82.6963 49.0286C82.7039 49.5758 83.157 50.0164 83.7051 50.009C83.9509 50.0056 84.174 49.9119 84.3457 49.761L83.3691 49.7747L83.3496 48.26L84.3193 48.2464C84.1445 48.1033 83.9207 48.0175 83.6777 48.0208ZM84.0244 48.9173L84.0264 49.0999L84.6816 49.0901C84.6838 49.0609 84.686 49.0311 84.6855 49.0012C84.6851 48.9696 84.6821 48.9384 84.6787 48.9075L84.0244 48.9173ZM85.3457 48.8987C85.3479 48.9298 85.3521 48.9609 85.3525 48.9924C85.3529 49.0221 85.3498 49.052 85.3486 49.0813L85.5312 49.0794C85.5323 49.05 85.5356 49.0202 85.5352 48.9905C85.5347 48.959 85.5313 48.9278 85.5293 48.8967L85.3457 48.8987ZM86.1953 48.887C86.1969 48.9185 86.2017 48.9499 86.2021 48.9817C86.2025 49.011 86.1989 49.0405 86.1982 49.0696L95.8721 48.9397L95.6582 48.76L86.1953 48.887ZM97.1885 48.7395L97.0879 48.8606L97.0332 48.9241L129.004 48.4944L129.002 48.3118L97.1885 48.7395ZM48.5439 39.6741C49.4646 39.6614 50.2512 40.2629 50.5156 41.0979L100.424 40.427L100.548 40.4251L100.643 40.5051L104.168 43.47L129.264 43.1321L129.597 43.1272L129.602 43.4612L129.608 43.969L129.613 44.303L129.279 44.3069L103.871 44.6487L103.747 44.6507L103.652 44.5706L100.125 41.6057L50.5322 42.2737C50.2904 43.1148 49.5196 43.7374 48.5996 43.7503C47.4745 43.7657 46.548 42.8638 46.5322 41.7395C46.5168 40.6158 47.4194 39.6897 48.5439 39.6741ZM89.7246 20.3557C90.9262 20.3395 91.918 21.3016 91.9336 22.5042C91.9379 22.8437 91.8618 23.165 91.7266 23.4534L95.041 26.302L100.889 26.2239L101.013 26.2219L101.107 26.302L104.811 29.4153L134.167 29.0217L134.5 29.0178L134.504 29.3508L134.512 29.8596L134.516 30.1926L134.183 30.1975L104.515 30.596L104.391 30.5979L104.296 30.5178L100.59 27.4016L95.0508 27.4768L90.6025 31.4251L90.5332 31.4856L113.476 31.179L113.6 31.177L113.694 31.2571L116.681 33.7678L129.136 33.6008L129.469 33.5969L129.474 33.9299L129.484 34.7786L129.488 35.1116L129.155 35.1165L116.263 35.2893L116.139 35.2913L116.044 35.2112L113.055 32.6985L83.1885 33.1008L80.1494 35.7981L80.0566 35.8801L79.9326 35.8821L59.1924 36.1604C59.0086 36.6606 58.6432 37.0729 58.1738 37.3167L86.4414 36.9368L86.5654 36.9348L86.6602 37.0149L89.0117 38.9924L129.201 38.4524L129.534 38.4485L129.539 38.7815L129.546 39.2903L129.55 39.6233L129.217 39.6282L88.7148 40.1721L88.5908 40.1741L88.4951 40.094L86.1426 38.1155L43.3311 38.6917L38.6416 42.8538L38.5488 42.9358L38.4248 42.9378L11.7051 43.2971C11.4807 43.8645 10.931 44.2699 10.2832 44.2786C9.42802 44.2895 8.72367 43.6057 8.71191 42.7503C8.70045 41.8946 9.38636 41.1907 10.2422 41.179C10.8903 41.1705 11.4501 41.5606 11.6895 42.1214L38.0947 41.7669L42.7852 37.6048L42.8779 37.5227L43.002 37.5208L56.2715 37.3421C55.5704 37.0018 55.0804 36.29 55.0693 35.4592C55.054 34.287 55.9951 33.3206 57.168 33.3049C58.0732 33.2931 58.8536 33.8514 59.1709 34.6458L79.4717 34.3723L82.5127 31.6751L82.5811 31.6135L52.0234 32.0247L51.8994 32.0266L51.8047 31.9465L48.3975 29.0823L31.0205 29.3157C30.7834 30.0636 30.0887 30.6123 29.2627 30.6243C28.2305 30.6389 27.3791 29.8097 27.3643 28.7786V28.7747C27.3525 27.7435 28.1799 26.8956 29.2109 26.8821C30.0367 26.8715 30.7457 27.3996 31.0039 28.1399L48.6953 27.9026L48.8193 27.9007L48.9141 27.9807L52.3213 30.846L90.0557 30.3382L93.9326 26.8977L90.9609 24.345C90.6229 24.5706 90.2185 24.7062 89.7822 24.7122C88.5793 24.7284 87.5901 23.7646 87.5732 22.5628C87.5567 21.3612 88.5216 20.3703 89.7246 20.3548V20.3557ZM10.251 41.845C9.76321 41.8518 9.3716 42.2534 9.37793 42.7405C9.3845 43.2273 9.78643 43.6187 10.2744 43.6126C10.5363 43.6091 10.769 43.4901 10.9287 43.3069L10.2715 43.3167L9.9375 43.3215L9.93359 42.9876L9.92676 42.4788L9.92188 42.1458L10.2549 42.1409L10.9141 42.1311C10.7498 41.9526 10.513 41.8416 10.251 41.845ZM48.5615 40.8489C48.0855 40.8554 47.7035 41.2485 47.71 41.7239V41.7327C47.7214 42.2034 48.1109 42.5808 48.584 42.5745C48.832 42.5711 49.0535 42.4615 49.209 42.2913L48.5801 42.3001L48.2471 42.304L48.2422 41.971L48.2354 41.4622L48.2305 41.1292L48.5635 41.1243L49.1953 41.1155C49.0354 40.949 48.8104 40.8456 48.5615 40.8489ZM57.1768 33.971C56.3719 33.9818 55.7249 34.6464 55.7354 35.4505C55.7461 36.2542 56.4114 36.9014 57.2168 36.8909C57.7443 36.8838 58.2012 36.5941 58.4521 36.1702L58.2354 36.1731C58.0062 36.4923 57.6356 36.7046 57.2139 36.7102C56.5091 36.7195 55.9276 36.153 55.918 35.4485C55.9085 34.7433 56.476 34.1631 57.1807 34.1536C57.6011 34.1481 57.9764 34.3476 58.2139 34.6585L58.4316 34.6555C58.1691 34.2395 57.7039 33.964 57.1768 33.971ZM56.8555 34.9241C56.6901 35.036 56.5821 35.2267 56.585 35.4397C56.588 35.653 56.7018 35.8393 56.8701 35.9465L56.8691 35.8587L56.8574 35.012L56.8555 34.9241ZM57.5283 35.3352L57.5303 35.5159L57.8018 35.512C57.8057 35.4828 57.81 35.4534 57.8096 35.4231C57.8091 35.3919 57.8038 35.3613 57.7988 35.3313L57.5283 35.3352ZM58.4697 35.3225C58.4723 35.3528 58.4761 35.3835 58.4766 35.4143C58.477 35.4442 58.4743 35.4738 58.4727 35.5032L58.6533 35.5003C58.6547 35.4708 58.6576 35.4413 58.6572 35.4114C58.6568 35.3806 58.6527 35.3499 58.6504 35.3196L58.4697 35.3225ZM82.8623 32.2561L79.8223 34.9544L79.7295 35.0364L79.6055 35.0383L59.3184 35.3108C59.3201 35.3412 59.3238 35.3719 59.3242 35.4026C59.3246 35.4324 59.3211 35.462 59.3203 35.4915L79.7998 35.2161L82.8398 32.5198L82.9326 32.4378L83.0566 32.4358L113.17 32.0315L113.294 32.0296L113.39 32.1096L116.377 34.6204L128.812 34.4534L128.811 34.2717L116.566 34.4368L116.442 34.4387L116.348 34.3587L113.36 31.846L82.8623 32.2561ZM29.2197 27.5481C28.5558 27.5568 28.0217 28.1046 28.0303 28.7688V28.7698L28.0391 28.8928C28.11 29.4978 28.6309 29.9671 29.2529 29.9583C29.7037 29.9518 30.0931 29.6956 30.2949 29.3255L30.0811 29.3284C29.8994 29.5942 29.5971 29.772 29.251 29.7766C28.6868 29.784 28.2207 29.3321 28.2129 28.7669C28.2055 28.2023 28.6582 27.7372 29.2236 27.7298C29.5688 27.7255 29.8765 27.8926 30.0654 28.1526L30.2783 28.1497C30.0662 27.7858 29.6699 27.5424 29.2197 27.5481ZM28.9014 28.6321C28.8872 28.6713 28.8793 28.714 28.8799 28.7581C28.8805 28.8018 28.8891 28.8435 28.9043 28.8821L28.9014 28.6321ZM100.205 16.7034L109.283 24.3352L134.1 24.0022L134.433 23.9983L134.438 24.3313L134.453 25.5188L134.458 25.8518L134.124 25.8567L108.743 26.1975L108.619 26.1985L108.524 26.1194L99.4443 18.4856L86.7881 18.6555L78.0049 26.4514L77.9121 26.5335L77.7881 26.5354L60.6602 26.7659L60.5361 26.7678L60.4414 26.6878L56.0186 22.97C55.5095 23.3792 54.8672 23.6304 54.165 23.6399C52.4942 23.6623 51.1155 22.3219 51.0928 20.6516C51.0703 18.9813 52.4119 17.6038 54.083 17.5813C55.7539 17.5589 57.1328 18.8992 57.1553 20.5696C57.1625 21.1137 57.0228 21.6253 56.7764 22.0706L60.957 25.5862L77.458 25.3645L84.9893 18.6799L74.0996 18.8264L71.667 20.9846C71.7562 21.2341 71.8097 21.5011 71.8135 21.7805C71.832 23.145 70.736 24.2697 69.3711 24.2883C68.0063 24.3067 66.881 23.2122 66.8623 21.8479C66.8438 20.4833 67.9397 19.3586 69.3047 19.3401C69.7107 19.3347 70.0947 19.4295 70.4355 19.5989L73.292 17.0647L73.3848 16.9827L73.5088 16.9807L99.9863 16.6253L100.11 16.6233L100.205 16.7034ZM87.1611 17.4632L87.3672 17.6956L87.5889 17.9456L87.5498 17.9798L99.5596 17.8186L99.6836 17.8167L99.7793 17.8967L108.857 25.5286L133.781 25.1936L133.774 24.6731L109.169 25.0042L109.045 25.0051L108.95 24.926L99.8711 17.2923L87.1611 17.4632ZM69.3135 20.0071C68.3163 20.0206 67.516 20.8424 67.5293 21.8382C67.5428 22.8341 68.365 23.6349 69.3623 23.6214C70.3595 23.6077 71.16 22.7852 71.1465 21.7893C71.145 21.6828 71.1315 21.5791 71.1123 21.4778L70.6201 21.9153C70.5686 22.5701 70.0253 23.0917 69.3555 23.1008C68.6459 23.1103 68.0602 22.5416 68.0508 21.8313C68.0414 21.1217 68.6102 20.5371 69.3203 20.5276C69.3429 20.5273 69.3654 20.5287 69.3877 20.5296L69.8809 20.0911C69.7018 20.0346 69.5112 20.0045 69.3135 20.0071ZM89.7393 21.5296C89.1862 21.5373 88.7416 21.9942 88.749 22.5462C88.7566 23.0982 89.2137 23.5427 89.7666 23.5354C89.8417 23.5344 89.9151 23.5238 89.9854 23.5071L89.1143 22.7581L89.8799 21.8674L90.7539 22.6184C90.7567 22.5859 90.7573 22.553 90.7568 22.5198C90.7493 21.9675 90.2924 21.5221 89.7393 21.5296ZM54.0986 18.7561C53.0758 18.7698 52.2552 19.6132 52.2686 20.635C52.2822 21.6567 53.126 22.4776 54.1494 22.4641C54.4944 22.4595 54.8151 22.3581 55.0898 22.1897L54.9336 22.0579C54.7006 22.1879 54.433 22.2639 54.1475 22.2678C53.2301 22.2802 52.4762 21.5474 52.4639 20.6301C52.4515 19.713 53.1852 18.9599 54.1025 18.9475C55.0197 18.9353 55.7736 19.6682 55.7861 20.5852C55.7888 20.786 55.7533 20.9785 55.6904 21.1575L55.8486 21.2903C55.9352 21.072 55.9828 20.8342 55.9795 20.5852C55.9659 19.5635 55.1221 18.7426 54.0986 18.7561ZM68.7422 21.6458C68.7261 21.7021 68.716 21.7611 68.7168 21.8225C68.7213 22.1636 69.0042 22.4384 69.3467 22.4339C69.376 22.4334 69.4044 22.4275 69.4326 22.4231L68.7422 21.6458ZM69.4141 21.3977L69.7598 21.7874L69.9287 21.636C69.8755 21.4611 69.7497 21.3187 69.584 21.2464L69.4141 21.3977ZM54.1113 19.6135C53.5617 19.6209 53.1225 20.0727 53.1299 20.6214C53.1374 21.1698 53.5883 21.609 54.1377 21.6018C54.2133 21.6008 54.2869 21.5904 54.3574 21.5735L53.7461 21.0598L53.4912 20.845L53.7061 20.5891L54.0342 20.2005L54.249 19.9465L54.5039 20.1604L55.1162 20.6751C55.118 20.6484 55.1205 20.6212 55.1201 20.594C55.1125 20.0456 54.6608 19.6062 54.1113 19.6135ZM85.7842 0.000259399C87.412 -0.0211038 88.7539 1.28288 88.7754 2.91042C88.7814 3.37305 88.6766 3.81083 88.4912 4.20338L92.8018 7.82643L102.063 7.70143L102.188 7.70045L102.282 7.77956L116.492 19.7268L134.039 19.4915L134.372 19.4866L134.376 19.8206L134.388 20.6682L134.392 21.0012L134.059 21.0051L116.074 21.2473L115.95 21.2493L115.855 21.1692L106.852 13.5999L61.998 14.2024C61.7647 14.8684 61.1323 15.3469 60.3867 15.3469C59.4436 15.3466 58.6787 14.582 58.6787 13.6389C58.6788 12.6959 59.4437 11.9322 60.3867 11.9319C61.1143 11.9319 61.735 12.3869 61.9814 13.0276L105.476 12.4426L101.644 9.22194L92.3818 9.34694L92.2578 9.34792L92.1631 9.26881L87.5176 5.36354C87.0484 5.69337 86.4792 5.89151 85.8633 5.89967C84.2367 5.92107 82.8938 4.61694 82.8721 2.98952C82.8506 1.36337 84.1559 0.0217183 85.7842 0.000259399ZM70.1055 20.7835C70.2457 20.888 70.3641 21.0199 70.4521 21.1721L70.8467 20.8215C70.7502 20.6757 70.6334 20.5451 70.5 20.4329L70.1055 20.7835ZM107.663 13.4114L116.188 20.5784L133.716 20.343L133.714 20.1624L116.378 20.3948L116.254 20.3967L116.159 20.3167L107.66 13.1712L107.663 13.4114ZM73.6416 17.6458L71.002 19.9876C71.1306 20.1047 71.2479 20.2336 71.3496 20.3753L73.75 18.2464L73.8428 18.1633L73.9668 18.1624L85.751 18.0032L86.3477 17.4739L73.6416 17.6458ZM60.3867 12.5979C59.8114 12.5982 59.3448 13.0646 59.3447 13.6389C59.3447 14.2133 59.8114 14.6796 60.3867 14.6799C60.75 14.6799 61.0694 14.4937 61.2559 14.2122L60.0625 14.2288L60.0469 13.054L61.2363 13.0374C61.0475 12.7718 60.7376 12.5979 60.3867 12.5979ZM88.1387 4.77663C88.1011 4.82409 88.0599 4.8683 88.0195 4.91335L92.4961 8.67799L101.759 8.55397L101.883 8.55202L101.978 8.6321L106.495 12.429L106.773 12.426L101.948 8.3694L92.6875 8.49538L92.5635 8.49733L92.4678 8.41725L88.1387 4.77663ZM85.793 0.667252C84.5329 0.683859 83.5225 1.72269 83.5391 2.98073C83.5559 4.23901 84.5951 5.24925 85.8545 5.23268C86.2671 5.22721 86.6516 5.10972 86.9834 4.91335L86.8359 4.78932C86.5433 4.95085 86.2086 5.0462 85.8516 5.05104C84.6929 5.06648 83.7356 4.13722 83.7197 2.9778C83.7043 1.81913 84.6361 0.863508 85.7949 0.847916C86.9538 0.832515 87.9101 1.76266 87.9258 2.92116C87.9291 3.16954 87.8861 3.40768 87.8096 3.63014L87.959 3.75514C88.0576 3.49513 88.1122 3.21364 88.1084 2.9192C88.0918 1.66066 87.0534 0.650718 85.793 0.667252ZM87.4863 4.22878C87.4494 4.27663 87.411 4.32297 87.3701 4.36745L87.5098 4.48463C87.5504 4.44007 87.5899 4.39461 87.627 4.34694L87.4863 4.22878ZM85.8037 1.51393C85.0127 1.52467 84.3764 2.17829 84.3867 2.96803C84.3974 3.75877 85.0507 4.39437 85.8418 4.38405C85.9907 4.38206 86.134 4.35679 86.2686 4.31276L85.3359 3.52858L85.0811 3.31471L85.2959 3.05885L85.8418 2.41042L86.0566 2.15553L86.3115 2.37038L87.2432 3.15358C87.2537 3.08051 87.2608 3.006 87.2598 2.92995C87.249 2.14003 86.5948 1.50343 85.8037 1.51393ZM86.0205 3.23268L86.8604 3.93874C86.9021 3.89512 86.9405 3.84861 86.9766 3.80006L86.1367 3.09401L86.0205 3.23268Z" fill="#D6D6D6"/>
</svg>
